<mxfile host="Electron" agent="Mozilla/5.0 (Windows NT 10.0; Win64; x64) AppleWebKit/537.36 (KHTML, like Gecko) draw.io/26.0.9 Chrome/128.0.6613.186 Electron/32.2.5 Safari/537.36" version="26.0.9">
  <diagram name="Page-1" id="a5RaEWU_v8_memax8xYf">
    <mxGraphModel dx="5573" dy="3617" grid="1" gridSize="10" guides="1" tooltips="1" connect="1" arrows="1" fold="1" page="0" pageScale="1" pageWidth="850" pageHeight="1100" math="0" shadow="0">
      <root>
        <mxCell id="0" />
        <mxCell id="1" parent="0" />
        <mxCell id="zZAPOe-Mrj-PTgLpYuUe-49" value="True" style="edgeStyle=orthogonalEdgeStyle;rounded=0;orthogonalLoop=1;jettySize=auto;html=1;entryX=0.5;entryY=0;entryDx=0;entryDy=0;fontFamily=Helvetica;fontSize=20;fontColor=default;" edge="1" parent="1" source="fro03u778HVyqYOYv_vU-3" target="zZAPOe-Mrj-PTgLpYuUe-53">
          <mxGeometry relative="1" as="geometry">
            <mxPoint x="270" y="220" as="targetPoint" />
          </mxGeometry>
        </mxCell>
        <mxCell id="zZAPOe-Mrj-PTgLpYuUe-63" value="False" style="edgeStyle=orthogonalEdgeStyle;rounded=0;orthogonalLoop=1;jettySize=auto;html=1;fontFamily=Helvetica;fontSize=20;fontColor=default;" edge="1" parent="1" source="fro03u778HVyqYOYv_vU-3" target="zZAPOe-Mrj-PTgLpYuUe-51">
          <mxGeometry relative="1" as="geometry" />
        </mxCell>
        <mxCell id="fro03u778HVyqYOYv_vU-3" value="Choice == &#39;y&#39;" style="rhombus;whiteSpace=wrap;html=1;rounded=0;strokeColor=default;align=center;verticalAlign=middle;fontFamily=Helvetica;fontSize=20;fontColor=default;fillColor=default;" parent="1" vertex="1">
          <mxGeometry x="80" y="140" width="160" height="160" as="geometry" />
        </mxCell>
        <mxCell id="fro03u778HVyqYOYv_vU-4" value="Main" style="rounded=0;whiteSpace=wrap;html=1;strokeColor=default;align=center;verticalAlign=middle;fontFamily=Helvetica;fontSize=20;fontColor=default;fillColor=default;" parent="1" vertex="1">
          <mxGeometry x="100" y="-100" width="120" height="60" as="geometry" />
        </mxCell>
        <mxCell id="zZAPOe-Mrj-PTgLpYuUe-66" value="" style="edgeStyle=orthogonalEdgeStyle;rounded=0;orthogonalLoop=1;jettySize=auto;html=1;fontFamily=Helvetica;fontSize=20;fontColor=default;" edge="1" parent="1" source="fro03u778HVyqYOYv_vU-9" target="fro03u778HVyqYOYv_vU-11">
          <mxGeometry relative="1" as="geometry" />
        </mxCell>
        <mxCell id="fro03u778HVyqYOYv_vU-9" value="CreateTargets" style="shape=process;whiteSpace=wrap;html=1;backgroundOutline=1;rounded=0;align=center;verticalAlign=middle;fontFamily=Helvetica;fontSize=20;fillColor=#fff2cc;gradientColor=#ffd966;strokeColor=#d6b656;" parent="1" vertex="1">
          <mxGeometry x="100" y="640" width="120" height="60" as="geometry" />
        </mxCell>
        <mxCell id="fro03u778HVyqYOYv_vU-10" value="CreateTargets" style="shape=process;whiteSpace=wrap;html=1;backgroundOutline=1;rounded=0;strokeColor=#d6b656;align=center;verticalAlign=middle;fontFamily=Helvetica;fontSize=20;fillColor=#fff2cc;gradientColor=#ffd966;" parent="1" vertex="1">
          <mxGeometry x="-510" y="100" width="120" height="60" as="geometry" />
        </mxCell>
        <mxCell id="zZAPOe-Mrj-PTgLpYuUe-68" value="" style="edgeStyle=orthogonalEdgeStyle;rounded=0;orthogonalLoop=1;jettySize=auto;html=1;fontFamily=Helvetica;fontSize=20;fontColor=default;" edge="1" parent="1" source="fro03u778HVyqYOYv_vU-11" target="fro03u778HVyqYOYv_vU-15">
          <mxGeometry relative="1" as="geometry" />
        </mxCell>
        <mxCell id="fro03u778HVyqYOYv_vU-11" value="FillNumbers" style="shape=process;whiteSpace=wrap;html=1;backgroundOutline=1;rounded=0;align=center;verticalAlign=middle;fontFamily=Helvetica;fontSize=20;fillColor=#ffcd28;gradientColor=#ffa500;strokeColor=#d79b00;" parent="1" vertex="1">
          <mxGeometry x="190" y="790" width="120" height="60" as="geometry" />
        </mxCell>
        <mxCell id="fro03u778HVyqYOYv_vU-15" value="PlayGame" style="shape=process;whiteSpace=wrap;html=1;backgroundOutline=1;rounded=0;strokeColor=#b85450;align=center;verticalAlign=middle;fontFamily=Helvetica;fontSize=20;fillColor=#f8cecc;gradientColor=#ea6b66;" parent="1" vertex="1">
          <mxGeometry x="190" y="910" width="120" height="60" as="geometry" />
        </mxCell>
        <mxCell id="fro03u778HVyqYOYv_vU-16" value="FillNumbers" style="shape=process;whiteSpace=wrap;html=1;backgroundOutline=1;rounded=0;strokeColor=#d79b00;align=center;verticalAlign=middle;fontFamily=Helvetica;fontSize=20;fillColor=#ffcd28;gradientColor=#ffa500;" parent="1" vertex="1">
          <mxGeometry x="-340" y="100" width="120" height="60" as="geometry" />
        </mxCell>
        <UserObject label="def CreateTargets(SizeOfTargets, MaxTarget):&#xa;    Targets = []&#xa;    for Count in range(1, 6):&#xa;        Targets.append(-1)&#xa;    for Count in range(1, SizeOfTargets - 4):&#xa;        Targets.append(GetTarget(MaxTarget))&#xa;    return Targets" id="fro03u778HVyqYOYv_vU-18">
          <mxCell style="text;whiteSpace=wrap;fontFamily=Helvetica;fontSize=5;fontColor=default;" parent="1" vertex="1">
            <mxGeometry x="-510" y="170" width="120" height="60" as="geometry" />
          </mxCell>
        </UserObject>
        <mxCell id="fro03u778HVyqYOYv_vU-20" value="GetTarget" style="shape=process;whiteSpace=wrap;html=1;backgroundOutline=1;rounded=0;strokeColor=#d6b656;align=center;verticalAlign=middle;fontFamily=Helvetica;fontSize=20;fillColor=#fff2cc;gradientColor=light-dark(#FF99FF,#543300);gradientDirection=south;" parent="1" vertex="1">
          <mxGeometry x="-510" y="230" width="120" height="60" as="geometry" />
        </mxCell>
        <mxCell id="zZAPOe-Mrj-PTgLpYuUe-21" style="edgeStyle=orthogonalEdgeStyle;rounded=0;orthogonalLoop=1;jettySize=auto;html=1;exitX=0.5;exitY=1;exitDx=0;exitDy=0;entryX=0.5;entryY=0;entryDx=0;entryDy=0;fontFamily=Helvetica;fontSize=10;fontColor=default;" edge="1" parent="1" source="fro03u778HVyqYOYv_vU-21" target="fro03u778HVyqYOYv_vU-24">
          <mxGeometry relative="1" as="geometry" />
        </mxCell>
        <mxCell id="fro03u778HVyqYOYv_vU-21" value="PlayGame" style="shape=process;whiteSpace=wrap;html=1;backgroundOutline=1;rounded=0;strokeColor=#b85450;align=center;verticalAlign=middle;fontFamily=Helvetica;fontSize=20;fillColor=#f8cecc;gradientColor=#ea6b66;" parent="1" vertex="1">
          <mxGeometry x="590" y="10" width="120" height="60" as="geometry" />
        </mxCell>
        <mxCell id="zZAPOe-Mrj-PTgLpYuUe-13" style="edgeStyle=orthogonalEdgeStyle;rounded=0;orthogonalLoop=1;jettySize=auto;html=1;exitX=0.5;exitY=1;exitDx=0;exitDy=0;entryX=0.5;entryY=0;entryDx=0;entryDy=0;fontFamily=Helvetica;fontSize=10;fontColor=default;" edge="1" parent="1" source="fro03u778HVyqYOYv_vU-23" target="zZAPOe-Mrj-PTgLpYuUe-11">
          <mxGeometry relative="1" as="geometry" />
        </mxCell>
        <mxCell id="fro03u778HVyqYOYv_vU-23" value="print(&quot;Game over!&quot;)&#xa;&amp;nbsp; &amp;nbsp; DisplayScore(Score)" style="shape=parallelogram;perimeter=parallelogramPerimeter;whiteSpace=wrap;html=1;fixedSize=1;rounded=0;strokeColor=default;align=center;verticalAlign=middle;fontFamily=Helvetica;fontSize=10;fontColor=default;fillColor=default;" parent="1" vertex="1">
          <mxGeometry x="760" y="150" width="120" height="60" as="geometry" />
        </mxCell>
        <mxCell id="zZAPOe-Mrj-PTgLpYuUe-12" style="edgeStyle=orthogonalEdgeStyle;rounded=0;orthogonalLoop=1;jettySize=auto;html=1;exitX=1;exitY=0.5;exitDx=0;exitDy=0;entryX=0;entryY=0.5;entryDx=0;entryDy=0;fontFamily=Helvetica;fontSize=10;fontColor=default;" edge="1" parent="1" source="fro03u778HVyqYOYv_vU-24" target="fro03u778HVyqYOYv_vU-23">
          <mxGeometry relative="1" as="geometry" />
        </mxCell>
        <mxCell id="zZAPOe-Mrj-PTgLpYuUe-14" style="edgeStyle=orthogonalEdgeStyle;rounded=0;orthogonalLoop=1;jettySize=auto;html=1;exitX=0.5;exitY=1;exitDx=0;exitDy=0;entryX=0.5;entryY=0;entryDx=0;entryDy=0;fontFamily=Helvetica;fontSize=10;fontColor=default;" edge="1" parent="1" source="fro03u778HVyqYOYv_vU-24" target="fro03u778HVyqYOYv_vU-25">
          <mxGeometry relative="1" as="geometry" />
        </mxCell>
        <mxCell id="fro03u778HVyqYOYv_vU-24" value="&lt;font style=&quot;font-size: 20px;&quot;&gt;while not GameOver&lt;/font&gt;" style="rhombus;whiteSpace=wrap;html=1;rounded=0;strokeColor=default;align=center;verticalAlign=middle;fontFamily=Helvetica;fontSize=10;fontColor=default;fillColor=default;aspect=fixed;" parent="1" vertex="1">
          <mxGeometry x="570" y="100" width="160" height="160" as="geometry" />
        </mxCell>
        <mxCell id="zZAPOe-Mrj-PTgLpYuUe-15" style="edgeStyle=orthogonalEdgeStyle;rounded=0;orthogonalLoop=1;jettySize=auto;html=1;exitX=0.5;exitY=1;exitDx=0;exitDy=0;entryX=0.5;entryY=0;entryDx=0;entryDy=0;fontFamily=Helvetica;fontSize=10;fontColor=default;" edge="1" parent="1" source="fro03u778HVyqYOYv_vU-25" target="fro03u778HVyqYOYv_vU-27">
          <mxGeometry relative="1" as="geometry" />
        </mxCell>
        <mxCell id="fro03u778HVyqYOYv_vU-25" value="DisplayState" style="shape=process;whiteSpace=wrap;html=1;backgroundOutline=1;rounded=0;align=center;verticalAlign=middle;fontFamily=Helvetica;fontSize=20;fillColor=#e6d0de;gradientColor=#7F00FF;strokeColor=#996185;" parent="1" vertex="1">
          <mxGeometry x="590" y="310" width="120" height="60" as="geometry" />
        </mxCell>
        <mxCell id="zZAPOe-Mrj-PTgLpYuUe-16" style="edgeStyle=orthogonalEdgeStyle;rounded=0;orthogonalLoop=1;jettySize=auto;html=1;exitX=0.5;exitY=1;exitDx=0;exitDy=0;entryX=0.5;entryY=0;entryDx=0;entryDy=0;fontFamily=Helvetica;fontSize=10;fontColor=default;" edge="1" parent="1" source="fro03u778HVyqYOYv_vU-27" target="fro03u778HVyqYOYv_vU-29">
          <mxGeometry relative="1" as="geometry" />
        </mxCell>
        <mxCell id="fro03u778HVyqYOYv_vU-27" value="UserInput = input(&quot;Enter an expression: &quot;)" style="shape=parallelogram;perimeter=parallelogramPerimeter;whiteSpace=wrap;html=1;fixedSize=1;rounded=0;strokeColor=default;align=center;verticalAlign=middle;fontFamily=Helvetica;fontSize=10;fontColor=default;fillColor=default;" parent="1" vertex="1">
          <mxGeometry x="590" y="410" width="120" height="60" as="geometry" />
        </mxCell>
        <mxCell id="fro03u778HVyqYOYv_vU-28" value="DisplayState" style="shape=process;whiteSpace=wrap;html=1;backgroundOutline=1;rounded=0;strokeColor=#996185;align=center;verticalAlign=middle;fontFamily=Helvetica;fontSize=20;fontColor=default;fillColor=#e6d0de;gradientColor=#7F00FF;" parent="1" vertex="1">
          <mxGeometry x="910" y="10" width="120" height="60" as="geometry" />
        </mxCell>
        <mxCell id="9tuNxj0f0gs2dZ3dZJT_-7" value="False" style="edgeStyle=orthogonalEdgeStyle;rounded=0;hachureGap=4;orthogonalLoop=1;jettySize=auto;html=1;entryX=0.5;entryY=0;entryDx=0;entryDy=0;fontFamily=Helvetica;fontSize=20;fontColor=default;" parent="1" source="fro03u778HVyqYOYv_vU-29" target="9tuNxj0f0gs2dZ3dZJT_-6" edge="1">
          <mxGeometry x="-0.9007" relative="1" as="geometry">
            <mxPoint as="offset" />
          </mxGeometry>
        </mxCell>
        <mxCell id="zZAPOe-Mrj-PTgLpYuUe-17" value="True" style="edgeStyle=orthogonalEdgeStyle;rounded=0;orthogonalLoop=1;jettySize=auto;html=1;exitX=0.5;exitY=1;exitDx=0;exitDy=0;entryX=0.5;entryY=0;entryDx=0;entryDy=0;fontFamily=Helvetica;fontSize=20;fontColor=default;" edge="1" parent="1" source="fro03u778HVyqYOYv_vU-29" target="fro03u778HVyqYOYv_vU-32">
          <mxGeometry relative="1" as="geometry" />
        </mxCell>
        <mxCell id="fro03u778HVyqYOYv_vU-29" value="" style="rhombus;whiteSpace=wrap;html=1;rounded=0;strokeColor=default;align=center;verticalAlign=middle;fontFamily=Helvetica;fontSize=10;fontColor=default;fillColor=default;" parent="1" vertex="1">
          <mxGeometry x="570" y="500" width="160" height="160" as="geometry" />
        </mxCell>
        <mxCell id="zZAPOe-Mrj-PTgLpYuUe-18" value="&lt;font style=&quot;font-size: 20px;&quot;&gt;True&lt;/font&gt;" style="edgeStyle=orthogonalEdgeStyle;rounded=0;orthogonalLoop=1;jettySize=auto;html=1;exitX=0.5;exitY=1;exitDx=0;exitDy=0;entryX=0.5;entryY=0;entryDx=0;entryDy=0;fontFamily=Helvetica;fontSize=10;fontColor=default;" edge="1" parent="1" source="fro03u778HVyqYOYv_vU-32" target="fro03u778HVyqYOYv_vU-38">
          <mxGeometry relative="1" as="geometry" />
        </mxCell>
        <mxCell id="fro03u778HVyqYOYv_vU-32" value="ConvertToRPN" style="shape=process;whiteSpace=wrap;html=1;backgroundOutline=1;rounded=0;strokeColor=#6c8ebf;align=center;verticalAlign=middle;fontFamily=Helvetica;fontSize=20;fillColor=#dae8fc;gradientColor=#00CCCC;" parent="1" vertex="1">
          <mxGeometry x="590" y="760" width="120" height="60" as="geometry" />
        </mxCell>
        <mxCell id="fro03u778HVyqYOYv_vU-33" value="ConvertToRPN" style="shape=process;whiteSpace=wrap;html=1;backgroundOutline=1;rounded=0;strokeColor=#6c8ebf;align=center;verticalAlign=middle;fontFamily=Helvetica;fontSize=20;fillColor=#dae8fc;gradientColor=#00CCCC;fontColor=default;" parent="1" vertex="1">
          <mxGeometry x="1600" y="10" width="120" height="60" as="geometry" />
        </mxCell>
        <mxCell id="fro03u778HVyqYOYv_vU-36" value="CheckIfUser&lt;div&gt;InputValid&lt;/div&gt;" style="shape=process;whiteSpace=wrap;html=1;backgroundOutline=1;rounded=0;strokeColor=#6c8ebf;align=center;verticalAlign=middle;fontFamily=Helvetica;fontSize=20;fillColor=#dae8fc;gradientColor=#3333FF;" parent="1" vertex="1">
          <mxGeometry x="590" y="550" width="120" height="60" as="geometry" />
        </mxCell>
        <mxCell id="fro03u778HVyqYOYv_vU-37" value="CheckIfUser&lt;div&gt;InputValid&lt;/div&gt;" style="shape=process;whiteSpace=wrap;html=1;backgroundOutline=1;rounded=0;strokeColor=#6c8ebf;align=center;verticalAlign=middle;fontFamily=Helvetica;fontSize=20;fontColor=default;fillColor=#dae8fc;gradientColor=#3333FF;" parent="1" vertex="1">
          <mxGeometry x="1360" y="10" width="120" height="60" as="geometry" />
        </mxCell>
        <mxCell id="bOVGFRXhkvJAqVVgA9O2-1" value="False" style="edgeStyle=orthogonalEdgeStyle;rounded=0;orthogonalLoop=1;jettySize=auto;html=1;exitX=1;exitY=0.5;exitDx=0;exitDy=0;entryX=0.5;entryY=0;entryDx=0;entryDy=0;fontSize=20;" parent="1" source="fro03u778HVyqYOYv_vU-38" target="9tuNxj0f0gs2dZ3dZJT_-6" edge="1">
          <mxGeometry x="-0.8571" relative="1" as="geometry">
            <mxPoint as="offset" />
          </mxGeometry>
        </mxCell>
        <mxCell id="zZAPOe-Mrj-PTgLpYuUe-19" value="&lt;font style=&quot;font-size: 20px;&quot;&gt;True&lt;/font&gt;" style="edgeStyle=orthogonalEdgeStyle;rounded=0;orthogonalLoop=1;jettySize=auto;html=1;exitX=0.5;exitY=1;exitDx=0;exitDy=0;entryX=0.5;entryY=0;entryDx=0;entryDy=0;fontFamily=Helvetica;fontSize=10;fontColor=default;" edge="1" parent="1" source="fro03u778HVyqYOYv_vU-38" target="zZAPOe-Mrj-PTgLpYuUe-1">
          <mxGeometry relative="1" as="geometry" />
        </mxCell>
        <mxCell id="fro03u778HVyqYOYv_vU-38" value="" style="rhombus;whiteSpace=wrap;html=1;rounded=0;strokeColor=default;align=center;verticalAlign=middle;fontFamily=Helvetica;fontSize=10;fontColor=default;fillColor=default;" parent="1" vertex="1">
          <mxGeometry x="570" y="930" width="160" height="160" as="geometry" />
        </mxCell>
        <mxCell id="fro03u778HVyqYOYv_vU-41" value="CheckNumbersUsed&lt;div&gt;AreAll&lt;/div&gt;&lt;div&gt;InNumbersAllowed&lt;/div&gt;" style="shape=process;whiteSpace=wrap;html=1;backgroundOutline=1;rounded=0;strokeColor=#82b366;align=center;verticalAlign=middle;fontFamily=Helvetica;fontSize=10;fillColor=#d5e8d4;gradientColor=#4D9900;" parent="1" vertex="1">
          <mxGeometry x="590" y="980" width="120" height="60" as="geometry" />
        </mxCell>
        <mxCell id="fro03u778HVyqYOYv_vU-74" value="" style="edgeStyle=orthogonalEdgeStyle;rounded=0;orthogonalLoop=1;jettySize=auto;html=1;fontFamily=Helvetica;fontSize=20;fontColor=default;" parent="1" source="fro03u778HVyqYOYv_vU-42" target="fro03u778HVyqYOYv_vU-43" edge="1">
          <mxGeometry relative="1" as="geometry" />
        </mxCell>
        <mxCell id="fro03u778HVyqYOYv_vU-42" value="CheckNumbersUsed&lt;div&gt;AreAll&lt;/div&gt;&lt;div&gt;InNumbersAllowed&lt;/div&gt;" style="shape=process;whiteSpace=wrap;html=1;backgroundOutline=1;rounded=0;strokeColor=#82b366;align=center;verticalAlign=middle;fontFamily=Helvetica;fontSize=10;fillColor=#d5e8d4;gradientColor=#4D9900;fontColor=default;" parent="1" vertex="1">
          <mxGeometry x="2810" y="10" width="120" height="60" as="geometry" />
        </mxCell>
        <mxCell id="fro03u778HVyqYOYv_vU-73" value="" style="edgeStyle=orthogonalEdgeStyle;rounded=0;orthogonalLoop=1;jettySize=auto;html=1;fontFamily=Helvetica;fontSize=20;fontColor=default;" parent="1" source="fro03u778HVyqYOYv_vU-43" target="fro03u778HVyqYOYv_vU-46" edge="1">
          <mxGeometry relative="1" as="geometry" />
        </mxCell>
        <mxCell id="fro03u778HVyqYOYv_vU-43" value="Temp = []" style="rounded=0;whiteSpace=wrap;html=1;strokeColor=default;align=center;verticalAlign=middle;fontFamily=Helvetica;fontSize=20;fontColor=default;fillColor=default;" parent="1" vertex="1">
          <mxGeometry x="2810" y="100" width="120" height="60" as="geometry" />
        </mxCell>
        <mxCell id="fro03u778HVyqYOYv_vU-51" value="False" style="edgeStyle=orthogonalEdgeStyle;rounded=0;orthogonalLoop=1;jettySize=auto;html=1;exitX=1;exitY=0.5;exitDx=0;exitDy=0;entryX=0;entryY=0.5;entryDx=0;entryDy=0;fontFamily=Helvetica;fontSize=20;fontColor=default;" parent="1" source="fro03u778HVyqYOYv_vU-45" target="fro03u778HVyqYOYv_vU-50" edge="1">
          <mxGeometry relative="1" as="geometry" />
        </mxCell>
        <mxCell id="fro03u778HVyqYOYv_vU-54" value="True" style="edgeStyle=orthogonalEdgeStyle;rounded=0;orthogonalLoop=1;jettySize=auto;html=1;fontFamily=Helvetica;fontSize=20;fontColor=default;" parent="1" source="fro03u778HVyqYOYv_vU-45" target="fro03u778HVyqYOYv_vU-53" edge="1">
          <mxGeometry relative="1" as="geometry" />
        </mxCell>
        <mxCell id="fro03u778HVyqYOYv_vU-45" value="last item?" style="rhombus;whiteSpace=wrap;html=1;rounded=0;strokeColor=default;align=center;verticalAlign=middle;fontFamily=Helvetica;fontSize=20;fontColor=default;fillColor=default;" parent="1" vertex="1">
          <mxGeometry x="2810" y="310" width="120" height="120" as="geometry" />
        </mxCell>
        <mxCell id="fro03u778HVyqYOYv_vU-48" value="" style="edgeStyle=orthogonalEdgeStyle;rounded=0;orthogonalLoop=1;jettySize=auto;html=1;fontFamily=Helvetica;fontSize=20;fontColor=default;" parent="1" source="fro03u778HVyqYOYv_vU-46" target="fro03u778HVyqYOYv_vU-45" edge="1">
          <mxGeometry relative="1" as="geometry" />
        </mxCell>
        <mxCell id="fro03u778HVyqYOYv_vU-46" value="get Item in NumbersAllowed" style="rounded=0;whiteSpace=wrap;html=1;strokeColor=default;align=center;verticalAlign=middle;fontFamily=Helvetica;fontSize=20;fontColor=default;fillColor=default;" parent="1" vertex="1">
          <mxGeometry x="2810" y="200" width="120" height="60" as="geometry" />
        </mxCell>
        <mxCell id="fro03u778HVyqYOYv_vU-52" value="get next item" style="edgeStyle=orthogonalEdgeStyle;rounded=0;orthogonalLoop=1;jettySize=auto;html=1;entryX=1;entryY=0.5;entryDx=0;entryDy=0;fontFamily=Helvetica;fontSize=20;fontColor=default;exitX=0.5;exitY=0;exitDx=0;exitDy=0;" parent="1" source="fro03u778HVyqYOYv_vU-50" target="fro03u778HVyqYOYv_vU-46" edge="1">
          <mxGeometry x="-0.4594" relative="1" as="geometry">
            <Array as="points">
              <mxPoint x="3140" y="230" />
            </Array>
            <mxPoint as="offset" />
          </mxGeometry>
        </mxCell>
        <mxCell id="fro03u778HVyqYOYv_vU-50" value="Temp.append&lt;div&gt;&lt;span style=&quot;background-color: transparent; color: light-dark(rgb(0, 0, 0), rgb(255, 255, 255));&quot;&gt;(Item)&lt;/span&gt;&lt;/div&gt;" style="rounded=0;whiteSpace=wrap;html=1;strokeColor=default;align=center;verticalAlign=middle;fontFamily=Helvetica;fontSize=20;fontColor=default;fillColor=default;" parent="1" vertex="1">
          <mxGeometry x="3030" y="340" width="120" height="60" as="geometry" />
        </mxCell>
        <mxCell id="fro03u778HVyqYOYv_vU-58" value="" style="edgeStyle=orthogonalEdgeStyle;rounded=0;orthogonalLoop=1;jettySize=auto;html=1;fontFamily=Helvetica;fontSize=20;fontColor=default;" parent="1" source="fro03u778HVyqYOYv_vU-53" target="fro03u778HVyqYOYv_vU-57" edge="1">
          <mxGeometry relative="1" as="geometry" />
        </mxCell>
        <mxCell id="fro03u778HVyqYOYv_vU-53" value="Temp.append&lt;div&gt;&lt;span style=&quot;background-color: transparent; color: light-dark(rgb(0, 0, 0), rgb(255, 255, 255));&quot;&gt;(Item)&lt;/span&gt;&lt;/div&gt;" style="rounded=0;whiteSpace=wrap;html=1;strokeColor=default;align=center;verticalAlign=middle;fontFamily=Helvetica;fontSize=20;fontColor=default;fillColor=default;" parent="1" vertex="1">
          <mxGeometry x="2810" y="490" width="120" height="60" as="geometry" />
        </mxCell>
        <mxCell id="fro03u778HVyqYOYv_vU-64" value="" style="edgeStyle=orthogonalEdgeStyle;rounded=0;orthogonalLoop=1;jettySize=auto;html=1;fontFamily=Helvetica;fontSize=20;fontColor=default;" parent="1" source="fro03u778HVyqYOYv_vU-57" target="fro03u778HVyqYOYv_vU-59" edge="1">
          <mxGeometry relative="1" as="geometry" />
        </mxCell>
        <mxCell id="fro03u778HVyqYOYv_vU-57" value="get Item in UserInputInRPN" style="whiteSpace=wrap;html=1;fontSize=20;rounded=0;" parent="1" vertex="1">
          <mxGeometry x="2810" y="610" width="120" height="60" as="geometry" />
        </mxCell>
        <mxCell id="fro03u778HVyqYOYv_vU-70" value="False" style="edgeStyle=orthogonalEdgeStyle;rounded=0;orthogonalLoop=1;jettySize=auto;html=1;entryX=0;entryY=0.5;entryDx=0;entryDy=0;fontFamily=Helvetica;fontSize=20;fontColor=default;" parent="1" source="fro03u778HVyqYOYv_vU-59" target="fro03u778HVyqYOYv_vU-62" edge="1">
          <mxGeometry relative="1" as="geometry" />
        </mxCell>
        <mxCell id="fro03u778HVyqYOYv_vU-81" value="True" style="edgeStyle=orthogonalEdgeStyle;rounded=0;orthogonalLoop=1;jettySize=auto;html=1;exitX=0.5;exitY=1;exitDx=0;exitDy=0;entryX=0.5;entryY=0;entryDx=0;entryDy=0;fontFamily=Helvetica;fontSize=20;fontColor=default;" parent="1" source="fro03u778HVyqYOYv_vU-59" target="fro03u778HVyqYOYv_vU-75" edge="1">
          <mxGeometry relative="1" as="geometry" />
        </mxCell>
        <mxCell id="fro03u778HVyqYOYv_vU-59" value="last item?" style="rhombus;whiteSpace=wrap;html=1;rounded=0;strokeColor=default;align=center;verticalAlign=middle;fontFamily=Helvetica;fontSize=20;fontColor=default;fillColor=default;" parent="1" vertex="1">
          <mxGeometry x="2810" y="710" width="120" height="120" as="geometry" />
        </mxCell>
        <mxCell id="fro03u778HVyqYOYv_vU-67" value="True" style="edgeStyle=orthogonalEdgeStyle;rounded=0;orthogonalLoop=1;jettySize=auto;html=1;fontFamily=Helvetica;fontSize=20;fontColor=default;" parent="1" source="fro03u778HVyqYOYv_vU-62" target="fro03u778HVyqYOYv_vU-66" edge="1">
          <mxGeometry relative="1" as="geometry" />
        </mxCell>
        <mxCell id="fro03u778HVyqYOYv_vU-71" value="False - get next Item" style="edgeStyle=orthogonalEdgeStyle;rounded=0;orthogonalLoop=1;jettySize=auto;html=1;exitX=0.5;exitY=0;exitDx=0;exitDy=0;entryX=1;entryY=0.5;entryDx=0;entryDy=0;fontFamily=Helvetica;fontSize=20;fontColor=default;" parent="1" source="fro03u778HVyqYOYv_vU-62" target="fro03u778HVyqYOYv_vU-57" edge="1">
          <mxGeometry x="-0.84" relative="1" as="geometry">
            <mxPoint as="offset" />
          </mxGeometry>
        </mxCell>
        <mxCell id="fro03u778HVyqYOYv_vU-62" value="" style="rhombus;whiteSpace=wrap;html=1;rounded=0;strokeColor=default;align=center;verticalAlign=middle;fontFamily=Helvetica;fontSize=10;fontColor=default;fillColor=default;" parent="1" vertex="1">
          <mxGeometry x="3050" y="690" width="160" height="160" as="geometry" />
        </mxCell>
        <mxCell id="fro03u778HVyqYOYv_vU-63" value="CheckValid&lt;div&gt;Number&lt;/div&gt;" style="shape=process;whiteSpace=wrap;html=1;backgroundOutline=1;rounded=0;strokeColor=#82b366;align=center;verticalAlign=middle;fontFamily=Helvetica;fontSize=20;fontColor=default;fillColor=#4D9900;gradientColor=#FFFF00;" parent="1" vertex="1">
          <mxGeometry x="3070" y="740" width="120" height="60" as="geometry" />
        </mxCell>
        <mxCell id="fro03u778HVyqYOYv_vU-69" value="True" style="edgeStyle=orthogonalEdgeStyle;rounded=0;orthogonalLoop=1;jettySize=auto;html=1;fontFamily=Helvetica;fontSize=20;fontColor=default;" parent="1" source="fro03u778HVyqYOYv_vU-66" target="fro03u778HVyqYOYv_vU-68" edge="1">
          <mxGeometry relative="1" as="geometry" />
        </mxCell>
        <mxCell id="fro03u778HVyqYOYv_vU-85" value="False" style="edgeStyle=orthogonalEdgeStyle;rounded=0;orthogonalLoop=1;jettySize=auto;html=1;fontFamily=Helvetica;fontSize=20;fontColor=default;" parent="1" source="fro03u778HVyqYOYv_vU-66" target="fro03u778HVyqYOYv_vU-84" edge="1">
          <mxGeometry relative="1" as="geometry" />
        </mxCell>
        <mxCell id="fro03u778HVyqYOYv_vU-66" value="is Item in Temp?" style="rhombus;whiteSpace=wrap;html=1;rounded=0;strokeColor=default;align=center;verticalAlign=middle;fontFamily=Helvetica;fontSize=20;fontColor=default;fillColor=default;" parent="1" vertex="1">
          <mxGeometry x="3070" y="900" width="120" height="120" as="geometry" />
        </mxCell>
        <mxCell id="fro03u778HVyqYOYv_vU-68" value="Temp.remove&lt;div&gt;(int(Item))&lt;/div&gt;" style="whiteSpace=wrap;html=1;fontSize=20;rounded=0;" parent="1" vertex="1">
          <mxGeometry x="3070" y="1070" width="120" height="60" as="geometry" />
        </mxCell>
        <mxCell id="fro03u778HVyqYOYv_vU-72" value="CheckValid&lt;div&gt;Number&lt;/div&gt;" style="shape=process;whiteSpace=wrap;html=1;backgroundOutline=1;rounded=0;strokeColor=#82b366;align=center;verticalAlign=middle;fontFamily=Helvetica;fontSize=20;fontColor=default;fillColor=#4D9900;gradientColor=#FFFF00;" parent="1" vertex="1">
          <mxGeometry x="3140" y="10" width="120" height="60" as="geometry" />
        </mxCell>
        <mxCell id="fro03u778HVyqYOYv_vU-75" value="" style="rhombus;whiteSpace=wrap;html=1;rounded=0;strokeColor=default;align=center;verticalAlign=middle;fontFamily=Helvetica;fontSize=10;fontColor=default;fillColor=default;" parent="1" vertex="1">
          <mxGeometry x="2790" y="880" width="160" height="160" as="geometry" />
        </mxCell>
        <mxCell id="fro03u778HVyqYOYv_vU-76" value="CheckValid&lt;div&gt;Number&lt;/div&gt;" style="shape=process;whiteSpace=wrap;html=1;backgroundOutline=1;rounded=0;strokeColor=#82b366;align=center;verticalAlign=middle;fontFamily=Helvetica;fontSize=20;fontColor=default;fillColor=#4D9900;gradientColor=#FFFF00;" parent="1" vertex="1">
          <mxGeometry x="2810" y="930" width="120" height="60" as="geometry" />
        </mxCell>
        <mxCell id="fro03u778HVyqYOYv_vU-77" value="True" style="edgeStyle=orthogonalEdgeStyle;rounded=0;orthogonalLoop=1;jettySize=auto;html=1;fontFamily=Helvetica;fontSize=20;fontColor=default;exitX=0.5;exitY=1;exitDx=0;exitDy=0;" parent="1" source="fro03u778HVyqYOYv_vU-75" target="fro03u778HVyqYOYv_vU-79" edge="1">
          <mxGeometry relative="1" as="geometry">
            <mxPoint x="2879.9999999999995" y="1040" as="sourcePoint" />
          </mxGeometry>
        </mxCell>
        <mxCell id="fro03u778HVyqYOYv_vU-78" value="True" style="edgeStyle=orthogonalEdgeStyle;rounded=0;orthogonalLoop=1;jettySize=auto;html=1;fontFamily=Helvetica;fontSize=20;fontColor=default;" parent="1" source="fro03u778HVyqYOYv_vU-79" target="fro03u778HVyqYOYv_vU-80" edge="1">
          <mxGeometry relative="1" as="geometry" />
        </mxCell>
        <mxCell id="fro03u778HVyqYOYv_vU-89" value="" style="edgeStyle=orthogonalEdgeStyle;rounded=0;orthogonalLoop=1;jettySize=auto;html=1;fontFamily=Helvetica;fontSize=20;fontColor=default;" parent="1" source="fro03u778HVyqYOYv_vU-79" target="fro03u778HVyqYOYv_vU-88" edge="1">
          <mxGeometry relative="1" as="geometry" />
        </mxCell>
        <mxCell id="fro03u778HVyqYOYv_vU-90" value="False" style="edgeLabel;html=1;align=center;verticalAlign=middle;resizable=0;points=[];rounded=0;strokeColor=default;fontFamily=Helvetica;fontSize=20;fontColor=default;fillColor=default;" parent="fro03u778HVyqYOYv_vU-89" vertex="1" connectable="0">
          <mxGeometry x="-0.1662" y="-1" relative="1" as="geometry">
            <mxPoint as="offset" />
          </mxGeometry>
        </mxCell>
        <mxCell id="fro03u778HVyqYOYv_vU-79" value="is Item in Temp?" style="rhombus;whiteSpace=wrap;html=1;rounded=0;strokeColor=default;align=center;verticalAlign=middle;fontFamily=Helvetica;fontSize=20;fontColor=default;fillColor=default;" parent="1" vertex="1">
          <mxGeometry x="2810" y="1100" width="120" height="120" as="geometry" />
        </mxCell>
        <mxCell id="fro03u778HVyqYOYv_vU-87" value="" style="edgeStyle=orthogonalEdgeStyle;rounded=0;orthogonalLoop=1;jettySize=auto;html=1;fontFamily=Helvetica;fontSize=20;fontColor=default;" parent="1" source="fro03u778HVyqYOYv_vU-80" target="fro03u778HVyqYOYv_vU-86" edge="1">
          <mxGeometry relative="1" as="geometry" />
        </mxCell>
        <mxCell id="fro03u778HVyqYOYv_vU-80" value="Temp.remove&lt;div&gt;(int(Item))&lt;/div&gt;" style="whiteSpace=wrap;html=1;fontSize=20;rounded=0;" parent="1" vertex="1">
          <mxGeometry x="2810" y="1270" width="120" height="60" as="geometry" />
        </mxCell>
        <mxCell id="fro03u778HVyqYOYv_vU-82" value="" style="shape=image;verticalLabelPosition=bottom;labelBackgroundColor=default;verticalAlign=top;aspect=fixed;imageAspect=0;image=https://cdn.prod.website-files.com/6184b461a39ff1011f8c0582/623c0c5447c67e81d4ac3f35_for-loop-flowchart.png;" parent="1" vertex="1">
          <mxGeometry x="1450" y="-498" width="219.59" height="298" as="geometry" />
        </mxCell>
        <mxCell id="fro03u778HVyqYOYv_vU-83" value="" style="shape=image;verticalLabelPosition=bottom;labelBackgroundColor=default;verticalAlign=top;aspect=fixed;imageAspect=0;image=https://cdn.prod.website-files.com/6184b461a39ff1011f8c0582/623c0c66fad507a80764a3f5_while-loop-flowchart.png;" parent="1" vertex="1">
          <mxGeometry x="1710" y="-500" width="235.39" height="300" as="geometry" />
        </mxCell>
        <mxCell id="fro03u778HVyqYOYv_vU-84" value="return False" style="whiteSpace=wrap;html=1;fontSize=20;rounded=0;fillColor=#f8cecc;strokeColor=#b85450;" parent="1" vertex="1">
          <mxGeometry x="3290" y="930" width="120" height="60" as="geometry" />
        </mxCell>
        <mxCell id="fro03u778HVyqYOYv_vU-86" value="return True" style="whiteSpace=wrap;html=1;fontSize=20;rounded=0;fillColor=#d5e8d4;strokeColor=#82b366;" parent="1" vertex="1">
          <mxGeometry x="2810" y="1380" width="120" height="60" as="geometry" />
        </mxCell>
        <mxCell id="fro03u778HVyqYOYv_vU-88" value="return False" style="whiteSpace=wrap;html=1;fontSize=20;rounded=0;fillColor=#f8cecc;strokeColor=#b85450;" parent="1" vertex="1">
          <mxGeometry x="2610" y="1130" width="120" height="60" as="geometry" />
        </mxCell>
        <mxCell id="zZAPOe-Mrj-PTgLpYuUe-36" value="" style="edgeStyle=orthogonalEdgeStyle;rounded=0;orthogonalLoop=1;jettySize=auto;html=1;fontFamily=Helvetica;fontSize=20;fontColor=default;" edge="1" parent="1" source="9tuNxj0f0gs2dZ3dZJT_-6" target="zZAPOe-Mrj-PTgLpYuUe-31">
          <mxGeometry relative="1" as="geometry" />
        </mxCell>
        <mxCell id="9tuNxj0f0gs2dZ3dZJT_-6" value="&lt;font face=&quot;Helvetica&quot;&gt;Score -= 1&lt;/font&gt;" style="rounded=0;whiteSpace=wrap;html=1;hachureGap=4;fontFamily=Architects Daughter;fontSource=https%3A%2F%2Ffonts.googleapis.com%2Fcss%3Ffamily%3DArchitects%2BDaughter;fontSize=20;" parent="1" vertex="1">
          <mxGeometry x="800" y="1860" width="120" height="60" as="geometry" />
        </mxCell>
        <mxCell id="4xgNi9IAfBMTuD8kdTDg-3" value="Position = 0" style="rounded=0;whiteSpace=wrap;html=1;strokeColor=default;align=center;verticalAlign=middle;fontFamily=Helvetica;fontSize=20;fontColor=default;fillColor=default;" parent="1" vertex="1">
          <mxGeometry x="1600" y="100" width="120" height="60" as="geometry" />
        </mxCell>
        <mxCell id="4xgNi9IAfBMTuD8kdTDg-6" value="Precedence = {&quot;+&quot;: 2, &quot;-&quot;: 2, &quot;*&quot;: 4, &quot;/&quot;: 4}" style="rounded=0;whiteSpace=wrap;fontSize=15;html=1;" parent="1" vertex="1">
          <mxGeometry x="1600" y="200" width="120" height="60" as="geometry" />
        </mxCell>
        <mxCell id="4xgNi9IAfBMTuD8kdTDg-9" value="Operators=[]" style="rounded=0;whiteSpace=wrap;html=1;strokeColor=default;align=center;verticalAlign=middle;fontFamily=Helvetica;fontSize=20;fontColor=default;fillColor=default;" parent="1" vertex="1">
          <mxGeometry x="1600" y="300" width="120" height="60" as="geometry" />
        </mxCell>
        <mxCell id="4xgNi9IAfBMTuD8kdTDg-11" value="GetNumber&lt;div&gt;From&lt;span style=&quot;background-color: transparent; color: light-dark(rgb(0, 0, 0), rgb(255, 255, 255));&quot;&gt;UserInput&lt;/span&gt;&lt;/div&gt;" style="shape=process;whiteSpace=wrap;html=1;backgroundOutline=1;rounded=0;strokeColor=#6c8ebf;align=center;verticalAlign=middle;fontFamily=Helvetica;fontSize=20;fillColor=#99CCFF;gradientColor=#33FF33;" parent="1" vertex="1">
          <mxGeometry x="1600" y="400" width="120" height="60" as="geometry" />
        </mxCell>
        <mxCell id="zZAPOe-Mrj-PTgLpYuUe-102" value="" style="edgeStyle=orthogonalEdgeStyle;rounded=0;orthogonalLoop=1;jettySize=auto;html=1;fontFamily=Helvetica;fontSize=20;fontColor=default;" edge="1" parent="1" source="4xgNi9IAfBMTuD8kdTDg-12" target="4xgNi9IAfBMTuD8kdTDg-14">
          <mxGeometry relative="1" as="geometry" />
        </mxCell>
        <mxCell id="4xgNi9IAfBMTuD8kdTDg-12" value="GetNumber&lt;div&gt;From&lt;span style=&quot;background-color: transparent; color: light-dark(rgb(0, 0, 0), rgb(255, 255, 255));&quot;&gt;UserInput&lt;/span&gt;&lt;/div&gt;" style="shape=process;whiteSpace=wrap;html=1;backgroundOutline=1;rounded=0;strokeColor=#6c8ebf;align=center;verticalAlign=middle;fontFamily=Helvetica;fontSize=20;fontColor=default;fillColor=#99CCFF;gradientColor=#33FF33;" parent="1" vertex="1">
          <mxGeometry x="2230" y="10" width="120" height="60" as="geometry" />
        </mxCell>
        <mxCell id="zZAPOe-Mrj-PTgLpYuUe-101" value="" style="edgeStyle=orthogonalEdgeStyle;rounded=0;orthogonalLoop=1;jettySize=auto;html=1;fontFamily=Helvetica;fontSize=20;fontColor=default;" edge="1" parent="1" source="4xgNi9IAfBMTuD8kdTDg-14" target="4xgNi9IAfBMTuD8kdTDg-15">
          <mxGeometry relative="1" as="geometry" />
        </mxCell>
        <mxCell id="4xgNi9IAfBMTuD8kdTDg-14" value="Number = &quot;&quot;" style="rounded=0;whiteSpace=wrap;html=1;strokeColor=default;align=center;verticalAlign=middle;fontFamily=Helvetica;fontSize=20;fontColor=default;fillColor=default;" parent="1" vertex="1">
          <mxGeometry x="2230" y="100" width="120" height="60" as="geometry" />
        </mxCell>
        <mxCell id="zZAPOe-Mrj-PTgLpYuUe-100" value="" style="edgeStyle=orthogonalEdgeStyle;rounded=0;orthogonalLoop=1;jettySize=auto;html=1;fontFamily=Helvetica;fontSize=20;fontColor=default;" edge="1" parent="1" source="4xgNi9IAfBMTuD8kdTDg-15" target="zZAPOe-Mrj-PTgLpYuUe-74">
          <mxGeometry relative="1" as="geometry" />
        </mxCell>
        <mxCell id="4xgNi9IAfBMTuD8kdTDg-15" value="MoreDigits = True" style="rounded=0;whiteSpace=wrap;html=1;strokeColor=default;align=center;verticalAlign=middle;fontFamily=Helvetica;fontSize=20;fontColor=default;fillColor=default;" parent="1" vertex="1">
          <mxGeometry x="2230" y="190" width="120" height="60" as="geometry" />
        </mxCell>
        <mxCell id="zZAPOe-Mrj-PTgLpYuUe-20" value="&lt;font style=&quot;font-size: 20px;&quot;&gt;True&lt;/font&gt;" style="edgeStyle=orthogonalEdgeStyle;rounded=0;orthogonalLoop=1;jettySize=auto;html=1;exitX=0.5;exitY=1;exitDx=0;exitDy=0;entryX=0.5;entryY=0;entryDx=0;entryDy=0;fontFamily=Helvetica;fontSize=10;fontColor=default;" edge="1" parent="1" source="zZAPOe-Mrj-PTgLpYuUe-1" target="zZAPOe-Mrj-PTgLpYuUe-3">
          <mxGeometry relative="1" as="geometry" />
        </mxCell>
        <mxCell id="zZAPOe-Mrj-PTgLpYuUe-1" value="CheckIfUserInput&lt;div&gt;Evaluation&lt;span style=&quot;background-color: transparent; color: light-dark(rgb(0, 0, 0), rgb(255, 255, 255));&quot;&gt;IsATarget&lt;/span&gt;&lt;/div&gt;" style="shape=process;whiteSpace=wrap;html=1;backgroundOutline=1;rounded=0;strokeColor=#82b366;align=center;verticalAlign=middle;fontFamily=Helvetica;fontSize=20;fillColor=#CCFFCC;gradientColor=#00CC00;" vertex="1" parent="1">
          <mxGeometry x="590" y="1200" width="120" height="60" as="geometry" />
        </mxCell>
        <mxCell id="zZAPOe-Mrj-PTgLpYuUe-22" value="&lt;font style=&quot;font-size: 20px;&quot;&gt;False&lt;/font&gt;" style="edgeStyle=orthogonalEdgeStyle;rounded=0;orthogonalLoop=1;jettySize=auto;html=1;entryX=0.5;entryY=0;entryDx=0;entryDy=0;fontFamily=Helvetica;fontSize=10;fontColor=default;" edge="1" parent="1" source="zZAPOe-Mrj-PTgLpYuUe-3" target="9tuNxj0f0gs2dZ3dZJT_-6">
          <mxGeometry x="-0.7407" relative="1" as="geometry">
            <mxPoint as="offset" />
          </mxGeometry>
        </mxCell>
        <mxCell id="zZAPOe-Mrj-PTgLpYuUe-29" value="True" style="edgeStyle=orthogonalEdgeStyle;rounded=0;orthogonalLoop=1;jettySize=auto;html=1;exitX=0.5;exitY=1;exitDx=0;exitDy=0;entryX=0.5;entryY=0;entryDx=0;entryDy=0;fontFamily=Helvetica;fontSize=20;fontColor=default;" edge="1" parent="1" source="zZAPOe-Mrj-PTgLpYuUe-3" target="zZAPOe-Mrj-PTgLpYuUe-25">
          <mxGeometry relative="1" as="geometry" />
        </mxCell>
        <mxCell id="zZAPOe-Mrj-PTgLpYuUe-3" value="&lt;font style=&quot;font-size: 20px;&quot;&gt;IsTarget&lt;/font&gt;" style="rhombus;whiteSpace=wrap;html=1;rounded=0;strokeColor=default;align=center;verticalAlign=middle;fontFamily=Helvetica;fontSize=10;fontColor=default;fillColor=default;" vertex="1" parent="1">
          <mxGeometry x="570" y="1370" width="160" height="160" as="geometry" />
        </mxCell>
        <mxCell id="zZAPOe-Mrj-PTgLpYuUe-11" value="DisplayScore" style="shape=process;whiteSpace=wrap;html=1;backgroundOutline=1;rounded=0;strokeColor=#996185;align=center;verticalAlign=middle;fontFamily=Helvetica;fontSize=20;fillColor=#e6d0de;gradientColor=#d5739d;" vertex="1" parent="1">
          <mxGeometry x="760" y="250" width="120" height="60" as="geometry" />
        </mxCell>
        <mxCell id="zZAPOe-Mrj-PTgLpYuUe-28" style="edgeStyle=orthogonalEdgeStyle;rounded=0;orthogonalLoop=1;jettySize=auto;html=1;exitX=0.5;exitY=1;exitDx=0;exitDy=0;entryX=0.5;entryY=0;entryDx=0;entryDy=0;fontFamily=Helvetica;fontSize=20;fontColor=default;" edge="1" parent="1" source="zZAPOe-Mrj-PTgLpYuUe-25" target="zZAPOe-Mrj-PTgLpYuUe-26">
          <mxGeometry relative="1" as="geometry" />
        </mxCell>
        <mxCell id="zZAPOe-Mrj-PTgLpYuUe-25" value="Remove&lt;div&gt;NumbersUsed&lt;/div&gt;" style="shape=process;whiteSpace=wrap;html=1;backgroundOutline=1;rounded=0;shadow=0;strokeColor=#d6b656;align=center;verticalAlign=middle;fontFamily=Helvetica;fontSize=20;fillColor=#FFFF66;gradientColor=#CCCC00;" vertex="1" parent="1">
          <mxGeometry x="590" y="1640" width="120" height="60" as="geometry" />
        </mxCell>
        <mxCell id="zZAPOe-Mrj-PTgLpYuUe-30" style="edgeStyle=orthogonalEdgeStyle;rounded=0;orthogonalLoop=1;jettySize=auto;html=1;exitX=0.5;exitY=1;exitDx=0;exitDy=0;entryX=0;entryY=0.5;entryDx=0;entryDy=0;fontFamily=Helvetica;fontSize=20;fontColor=default;" edge="1" parent="1" source="zZAPOe-Mrj-PTgLpYuUe-26" target="9tuNxj0f0gs2dZ3dZJT_-6">
          <mxGeometry relative="1" as="geometry" />
        </mxCell>
        <mxCell id="zZAPOe-Mrj-PTgLpYuUe-26" value="FillNumbers" style="shape=process;whiteSpace=wrap;html=1;backgroundOutline=1;rounded=0;shadow=0;strokeColor=#d79b00;align=center;verticalAlign=middle;fontFamily=Helvetica;fontSize=20;fillColor=#ffcd28;gradientColor=#ffa500;fontColor=default;" vertex="1" parent="1">
          <mxGeometry x="590" y="1760" width="120" height="60" as="geometry" />
        </mxCell>
        <mxCell id="zZAPOe-Mrj-PTgLpYuUe-33" value="True" style="edgeStyle=orthogonalEdgeStyle;rounded=0;orthogonalLoop=1;jettySize=auto;html=1;fontFamily=Helvetica;fontSize=20;fontColor=default;" edge="1" parent="1" source="zZAPOe-Mrj-PTgLpYuUe-31" target="zZAPOe-Mrj-PTgLpYuUe-32">
          <mxGeometry relative="1" as="geometry" />
        </mxCell>
        <mxCell id="zZAPOe-Mrj-PTgLpYuUe-35" value="False" style="edgeStyle=orthogonalEdgeStyle;rounded=0;orthogonalLoop=1;jettySize=auto;html=1;fontFamily=Helvetica;fontSize=20;fontColor=default;entryX=0;entryY=0.5;entryDx=0;entryDy=0;" edge="1" parent="1" source="zZAPOe-Mrj-PTgLpYuUe-31" target="zZAPOe-Mrj-PTgLpYuUe-42">
          <mxGeometry relative="1" as="geometry">
            <mxPoint x="1040" y="2050" as="targetPoint" />
          </mxGeometry>
        </mxCell>
        <mxCell id="zZAPOe-Mrj-PTgLpYuUe-31" value="Targets[0] != -1" style="rhombus;whiteSpace=wrap;html=1;rounded=0;shadow=0;strokeColor=default;align=center;verticalAlign=middle;fontFamily=Helvetica;fontSize=20;fontColor=default;fillColor=default;aspect=fixed;" vertex="1" parent="1">
          <mxGeometry x="780" y="1970" width="160" height="160" as="geometry" />
        </mxCell>
        <mxCell id="zZAPOe-Mrj-PTgLpYuUe-32" value="GameOver = True" style="whiteSpace=wrap;html=1;fontSize=20;rounded=0;shadow=0;" vertex="1" parent="1">
          <mxGeometry x="800" y="2220" width="120" height="60" as="geometry" />
        </mxCell>
        <mxCell id="zZAPOe-Mrj-PTgLpYuUe-38" value="GetTarget" style="shape=process;whiteSpace=wrap;html=1;backgroundOutline=1;rounded=0;strokeColor=#d6b656;align=center;verticalAlign=middle;fontFamily=Helvetica;fontSize=20;fontColor=default;fillColor=#fff2cc;gradientColor=light-dark(#FF99FF,#543300);gradientDirection=south;" vertex="1" parent="1">
          <mxGeometry x="-680" y="100" width="120" height="60" as="geometry" />
        </mxCell>
        <mxCell id="zZAPOe-Mrj-PTgLpYuUe-39" value="DisplayScore" style="shape=process;whiteSpace=wrap;html=1;backgroundOutline=1;rounded=0;strokeColor=#996185;align=center;verticalAlign=middle;fontFamily=Helvetica;fontSize=20;fillColor=#e6d0de;gradientColor=#d5739d;" vertex="1" parent="1">
          <mxGeometry x="1130" y="10" width="120" height="60" as="geometry" />
        </mxCell>
        <mxCell id="zZAPOe-Mrj-PTgLpYuUe-40" value="CheckIfUserInput&lt;div&gt;Evaluation&lt;span style=&quot;background-color: transparent; color: light-dark(rgb(0, 0, 0), rgb(255, 255, 255));&quot;&gt;IsATarget&lt;/span&gt;&lt;/div&gt;" style="shape=process;whiteSpace=wrap;html=1;backgroundOutline=1;rounded=0;strokeColor=#82b366;align=center;verticalAlign=middle;fontFamily=Helvetica;fontSize=20;fillColor=#CCFFCC;gradientColor=#00CC00;" vertex="1" parent="1">
          <mxGeometry x="3490" y="10" width="120" height="60" as="geometry" />
        </mxCell>
        <mxCell id="zZAPOe-Mrj-PTgLpYuUe-41" value="Remove&lt;div&gt;NumbersUsed&lt;/div&gt;" style="shape=process;whiteSpace=wrap;html=1;backgroundOutline=1;rounded=0;shadow=0;strokeColor=#d6b656;align=center;verticalAlign=middle;fontFamily=Helvetica;fontSize=20;fillColor=#FFFF66;gradientColor=#CCCC00;" vertex="1" parent="1">
          <mxGeometry x="3760" y="10" width="120" height="60" as="geometry" />
        </mxCell>
        <mxCell id="zZAPOe-Mrj-PTgLpYuUe-42" value="Update&lt;div&gt;Targets&lt;/div&gt;" style="shape=process;whiteSpace=wrap;html=1;backgroundOutline=1;rounded=0;shadow=0;strokeColor=#b85450;align=center;verticalAlign=middle;fontFamily=Helvetica;fontSize=20;fillColor=#FFE6CC;gradientColor=#FF0000;" vertex="1" parent="1">
          <mxGeometry x="1040" y="2020" width="120" height="60" as="geometry" />
        </mxCell>
        <mxCell id="zZAPOe-Mrj-PTgLpYuUe-43" value="Update&lt;div&gt;Targets&lt;/div&gt;" style="shape=process;whiteSpace=wrap;html=1;backgroundOutline=1;rounded=0;shadow=0;strokeColor=#b85450;align=center;verticalAlign=middle;fontFamily=Helvetica;fontSize=20;fillColor=#FFE6CC;gradientColor=#FF0000;" vertex="1" parent="1">
          <mxGeometry x="4000" y="10" width="120" height="60" as="geometry" />
        </mxCell>
        <mxCell id="zZAPOe-Mrj-PTgLpYuUe-47" value="" style="edgeStyle=orthogonalEdgeStyle;rounded=0;orthogonalLoop=1;jettySize=auto;html=1;fontFamily=Helvetica;fontSize=20;fontColor=default;" edge="1" parent="1" source="zZAPOe-Mrj-PTgLpYuUe-46" target="fro03u778HVyqYOYv_vU-3">
          <mxGeometry relative="1" as="geometry" />
        </mxCell>
        <mxCell id="zZAPOe-Mrj-PTgLpYuUe-46" value="Choice = input(&quot;Press y to play training game&quot;).lower()" style="shape=parallelogram;perimeter=parallelogramPerimeter;whiteSpace=wrap;html=1;fixedSize=1;rounded=0;strokeColor=default;align=center;verticalAlign=middle;fontFamily=Helvetica;fontSize=10;fontColor=default;fillColor=default;" vertex="1" parent="1">
          <mxGeometry x="100" y="30" width="120" height="60" as="geometry" />
        </mxCell>
        <mxCell id="zZAPOe-Mrj-PTgLpYuUe-64" value="" style="edgeStyle=orthogonalEdgeStyle;rounded=0;orthogonalLoop=1;jettySize=auto;html=1;fontFamily=Helvetica;fontSize=20;fontColor=default;" edge="1" parent="1" source="zZAPOe-Mrj-PTgLpYuUe-51" target="zZAPOe-Mrj-PTgLpYuUe-52">
          <mxGeometry relative="1" as="geometry" />
        </mxCell>
        <mxCell id="zZAPOe-Mrj-PTgLpYuUe-51" value="MaxNumber = 10" style="rounded=0;whiteSpace=wrap;html=1;shadow=0;strokeColor=default;align=center;verticalAlign=middle;fontFamily=Helvetica;fontSize=20;fontColor=default;fillColor=default;" vertex="1" parent="1">
          <mxGeometry x="100" y="400" width="120" height="60" as="geometry" />
        </mxCell>
        <mxCell id="zZAPOe-Mrj-PTgLpYuUe-65" value="" style="edgeStyle=orthogonalEdgeStyle;rounded=0;orthogonalLoop=1;jettySize=auto;html=1;fontFamily=Helvetica;fontSize=20;fontColor=default;" edge="1" parent="1" source="zZAPOe-Mrj-PTgLpYuUe-52" target="fro03u778HVyqYOYv_vU-9">
          <mxGeometry relative="1" as="geometry" />
        </mxCell>
        <mxCell id="zZAPOe-Mrj-PTgLpYuUe-52" value="MaxTarget = 50" style="rounded=0;whiteSpace=wrap;html=1;shadow=0;strokeColor=default;align=center;verticalAlign=middle;fontFamily=Helvetica;fontSize=20;fontColor=default;fillColor=default;" vertex="1" parent="1">
          <mxGeometry x="100" y="520" width="120" height="60" as="geometry" />
        </mxCell>
        <mxCell id="zZAPOe-Mrj-PTgLpYuUe-60" value="" style="edgeStyle=orthogonalEdgeStyle;rounded=0;orthogonalLoop=1;jettySize=auto;html=1;fontFamily=Helvetica;fontSize=20;fontColor=default;" edge="1" parent="1" source="zZAPOe-Mrj-PTgLpYuUe-53" target="zZAPOe-Mrj-PTgLpYuUe-54">
          <mxGeometry relative="1" as="geometry" />
        </mxCell>
        <mxCell id="zZAPOe-Mrj-PTgLpYuUe-53" value="MaxNumber = 1000" style="rounded=0;whiteSpace=wrap;html=1;shadow=0;strokeColor=default;align=center;verticalAlign=middle;fontFamily=Helvetica;fontSize=20;fontColor=default;fillColor=default;" vertex="1" parent="1">
          <mxGeometry x="280" y="280" width="120" height="60" as="geometry" />
        </mxCell>
        <mxCell id="zZAPOe-Mrj-PTgLpYuUe-61" value="" style="edgeStyle=orthogonalEdgeStyle;rounded=0;orthogonalLoop=1;jettySize=auto;html=1;fontFamily=Helvetica;fontSize=20;fontColor=default;" edge="1" parent="1" source="zZAPOe-Mrj-PTgLpYuUe-54" target="zZAPOe-Mrj-PTgLpYuUe-55">
          <mxGeometry relative="1" as="geometry" />
        </mxCell>
        <mxCell id="zZAPOe-Mrj-PTgLpYuUe-54" value="MaxTarget = 1000" style="rounded=0;whiteSpace=wrap;html=1;shadow=0;strokeColor=default;align=center;verticalAlign=middle;fontFamily=Helvetica;fontSize=20;fontColor=default;fillColor=default;" vertex="1" parent="1">
          <mxGeometry x="280" y="400" width="120" height="60" as="geometry" />
        </mxCell>
        <mxCell id="zZAPOe-Mrj-PTgLpYuUe-62" value="" style="edgeStyle=orthogonalEdgeStyle;rounded=0;orthogonalLoop=1;jettySize=auto;html=1;fontFamily=Helvetica;fontSize=20;fontColor=default;" edge="1" parent="1" source="zZAPOe-Mrj-PTgLpYuUe-55" target="zZAPOe-Mrj-PTgLpYuUe-58">
          <mxGeometry relative="1" as="geometry" />
        </mxCell>
        <mxCell id="zZAPOe-Mrj-PTgLpYuUe-55" value="TrainingGame = True" style="rounded=0;whiteSpace=wrap;html=1;strokeColor=default;align=center;verticalAlign=middle;fontFamily=Helvetica;fontSize=20;fontColor=default;fillColor=default;" vertex="1" parent="1">
          <mxGeometry x="280" y="520" width="120" height="60" as="geometry" />
        </mxCell>
        <mxCell id="zZAPOe-Mrj-PTgLpYuUe-67" value="" style="edgeStyle=orthogonalEdgeStyle;rounded=0;orthogonalLoop=1;jettySize=auto;html=1;fontFamily=Helvetica;fontSize=20;fontColor=default;" edge="1" parent="1" source="zZAPOe-Mrj-PTgLpYuUe-58" target="fro03u778HVyqYOYv_vU-11">
          <mxGeometry relative="1" as="geometry" />
        </mxCell>
        <mxCell id="zZAPOe-Mrj-PTgLpYuUe-58" value="Targets = [-1, -1, -1, -1, -1, 23, 9, 140, 82, 121, 34, 45, 68, 75, 34, 23, 119, 43, 23, 119]" style="rounded=0;shadow=0;strokeColor=default;align=center;verticalAlign=middle;fontFamily=Helvetica;fontSize=10;fontColor=default;fillColor=default;whiteSpace=wrap;html=1;horizontal=1;" vertex="1" parent="1">
          <mxGeometry x="280" y="640" width="120" height="60" as="geometry" />
        </mxCell>
        <mxCell id="zZAPOe-Mrj-PTgLpYuUe-103" value="" style="edgeStyle=orthogonalEdgeStyle;rounded=0;orthogonalLoop=1;jettySize=auto;html=1;fontFamily=Helvetica;fontSize=20;fontColor=default;" edge="1" parent="1" source="zZAPOe-Mrj-PTgLpYuUe-71" target="4xgNi9IAfBMTuD8kdTDg-12">
          <mxGeometry relative="1" as="geometry" />
        </mxCell>
        <mxCell id="zZAPOe-Mrj-PTgLpYuUe-71" value="UserInput, Position" style="shape=parallelogram;perimeter=parallelogramPerimeter;whiteSpace=wrap;html=1;fixedSize=1;rounded=0;shadow=0;strokeColor=default;align=center;verticalAlign=middle;fontFamily=Helvetica;fontSize=20;fontColor=default;fillColor=default;" vertex="1" parent="1">
          <mxGeometry x="2230" y="-80" width="120" height="60" as="geometry" />
        </mxCell>
        <mxCell id="zZAPOe-Mrj-PTgLpYuUe-81" value="False" style="edgeStyle=orthogonalEdgeStyle;rounded=0;orthogonalLoop=1;jettySize=auto;html=1;exitX=1;exitY=0.5;exitDx=0;exitDy=0;entryX=0.5;entryY=0;entryDx=0;entryDy=0;fontFamily=Helvetica;fontSize=20;fontColor=default;" edge="1" parent="1" source="zZAPOe-Mrj-PTgLpYuUe-74" target="zZAPOe-Mrj-PTgLpYuUe-75">
          <mxGeometry x="-0.3332" relative="1" as="geometry">
            <mxPoint as="offset" />
          </mxGeometry>
        </mxCell>
        <mxCell id="zZAPOe-Mrj-PTgLpYuUe-83" value="True" style="edgeStyle=orthogonalEdgeStyle;rounded=0;orthogonalLoop=1;jettySize=auto;html=1;fontFamily=Helvetica;fontSize=20;fontColor=default;" edge="1" parent="1" source="zZAPOe-Mrj-PTgLpYuUe-74" target="zZAPOe-Mrj-PTgLpYuUe-82">
          <mxGeometry relative="1" as="geometry" />
        </mxCell>
        <mxCell id="zZAPOe-Mrj-PTgLpYuUe-74" value="&lt;div&gt;MoreDigits&lt;/div&gt;&lt;div&gt;== True&lt;/div&gt;" style="rhombus;whiteSpace=wrap;html=1;rounded=0;strokeColor=default;align=center;verticalAlign=middle;fontFamily=Helvetica;fontSize=20;fontColor=default;fillColor=default;" vertex="1" parent="1">
          <mxGeometry x="2230" y="310" width="120" height="120" as="geometry" />
        </mxCell>
        <mxCell id="zZAPOe-Mrj-PTgLpYuUe-78" value="False" style="edgeStyle=orthogonalEdgeStyle;rounded=0;orthogonalLoop=1;jettySize=auto;html=1;entryX=0.5;entryY=0;entryDx=0;entryDy=0;fontFamily=Helvetica;fontSize=20;fontColor=default;" edge="1" parent="1" source="zZAPOe-Mrj-PTgLpYuUe-75" target="zZAPOe-Mrj-PTgLpYuUe-77">
          <mxGeometry x="-0.5196" relative="1" as="geometry">
            <mxPoint as="offset" />
          </mxGeometry>
        </mxCell>
        <mxCell id="zZAPOe-Mrj-PTgLpYuUe-79" value="True" style="edgeStyle=orthogonalEdgeStyle;rounded=0;orthogonalLoop=1;jettySize=auto;html=1;exitX=0.5;exitY=1;exitDx=0;exitDy=0;entryX=0.5;entryY=0;entryDx=0;entryDy=0;fontFamily=Helvetica;fontSize=20;fontColor=default;" edge="1" parent="1" source="zZAPOe-Mrj-PTgLpYuUe-75" target="zZAPOe-Mrj-PTgLpYuUe-76">
          <mxGeometry x="-0.1429" relative="1" as="geometry">
            <mxPoint as="offset" />
          </mxGeometry>
        </mxCell>
        <mxCell id="zZAPOe-Mrj-PTgLpYuUe-75" value="Number&lt;div&gt;&lt;span style=&quot;background-color: transparent; color: light-dark(rgb(0, 0, 0), rgb(255, 255, 255));&quot;&gt;== &quot;&quot;&lt;/span&gt;&lt;/div&gt;" style="rhombus;whiteSpace=wrap;html=1;rounded=0;strokeColor=default;align=center;verticalAlign=middle;fontFamily=Helvetica;fontSize=20;fontColor=default;fillColor=default;" vertex="1" parent="1">
          <mxGeometry x="2420" y="420" width="120" height="120" as="geometry" />
        </mxCell>
        <mxCell id="zZAPOe-Mrj-PTgLpYuUe-76" value="return -1, Position" style="rounded=0;whiteSpace=wrap;html=1;shadow=0;strokeColor=default;align=center;verticalAlign=middle;fontFamily=Helvetica;fontSize=20;fontColor=default;fillColor=default;" vertex="1" parent="1">
          <mxGeometry x="2420" y="610" width="120" height="60" as="geometry" />
        </mxCell>
        <mxCell id="zZAPOe-Mrj-PTgLpYuUe-77" value="return int(Number), Position" style="rounded=0;whiteSpace=wrap;html=1;shadow=0;strokeColor=default;align=center;verticalAlign=middle;fontFamily=Helvetica;fontSize=18;fontColor=default;fillColor=default;" vertex="1" parent="1">
          <mxGeometry x="2600" y="610" width="120" height="60" as="geometry" />
        </mxCell>
        <mxCell id="zZAPOe-Mrj-PTgLpYuUe-88" value="False" style="edgeStyle=orthogonalEdgeStyle;rounded=0;orthogonalLoop=1;jettySize=auto;html=1;exitX=0;exitY=0.5;exitDx=0;exitDy=0;entryX=0.5;entryY=0;entryDx=0;entryDy=0;fontFamily=Helvetica;fontSize=20;fontColor=default;" edge="1" parent="1" source="zZAPOe-Mrj-PTgLpYuUe-82" target="zZAPOe-Mrj-PTgLpYuUe-86">
          <mxGeometry relative="1" as="geometry" />
        </mxCell>
        <mxCell id="zZAPOe-Mrj-PTgLpYuUe-89" value="True" style="edgeStyle=orthogonalEdgeStyle;rounded=0;orthogonalLoop=1;jettySize=auto;html=1;exitX=0.5;exitY=1;exitDx=0;exitDy=0;entryX=0.5;entryY=0;entryDx=0;entryDy=0;fontFamily=Helvetica;fontSize=20;fontColor=default;" edge="1" parent="1" source="zZAPOe-Mrj-PTgLpYuUe-82" target="zZAPOe-Mrj-PTgLpYuUe-85">
          <mxGeometry relative="1" as="geometry" />
        </mxCell>
        <mxCell id="zZAPOe-Mrj-PTgLpYuUe-82" value="&lt;div&gt;not(re.search(&quot;[0-9]&quot;, str(UserInput[Position])) is None)&amp;nbsp;&lt;/div&gt;" style="rhombus;whiteSpace=wrap;html=1;rounded=0;strokeColor=default;align=center;verticalAlign=middle;fontFamily=Helvetica;fontSize=12;fontColor=default;fillColor=default;" vertex="1" parent="1">
          <mxGeometry x="2230" y="490" width="120" height="120" as="geometry" />
        </mxCell>
        <mxCell id="zZAPOe-Mrj-PTgLpYuUe-84" value="" style="shape=image;verticalLabelPosition=bottom;labelBackgroundColor=default;verticalAlign=top;aspect=fixed;imageAspect=0;image=data:image/png,iVBORw0KGgoAAAANSUhEUgAAAygAAAPwCAMAAADtR6qBAAACeVBMVEX////RQ0NSvZT/sCBHTWbz9vr///7h4+dKUGhNU2v7/Pxma4DR0tnZ2+B0eYyZnapscYXp6ez9/f36+vv/+vDT1NtjaH1RV2+JjZ3/xVn/9eFpboOFiZpYXXSMj59vdIfr7O//syfr+PO9wMmWmqj//vvc3eK6vMaxtL//0XxgZXtVWnHMztaRlaR9gZNzeIv09PX/tjCusbyoq7j/+OrCxM2NkaH/y2v/yWT4/fv29vfJzNTExs7/uTj/+/NbYXf3+PnW192gpLFdYnimqbW1t8F6fpFQVW3f4OTP0Nf/7Mn/6MDo9vHc4Oecn612y6t3e4755eXE6dv/5reI0rZgw53/1IX/znP66en/8tq85tX/2pa+wsz/4Kb/3Z58gJL/147WVVX/v0rvvr7/vEC249L/46/m5+r/79HffHzcbW2s4MyUmKeBhpf/wlLj5eppxqL++vrv8fPZ8ee3usTw+vbu7/H/8dbGyNCR1burrrnttbVXv5fXWlry8vTr7vP77u5zyqnqp6eQlKPggIDVUFBcwZrSR0fA59j11dXIytGjprN9za//4ahuyKZnbIHp6++j3Mb1+/n//ff99vbyyclkxJ/ml5f/tSvN7OD33NzZYGDT7+T44uKe28PppKTnm5v9+Pjl9e/k6O3f8+uE0LPrrq7ih4faaGjaZWXUTEzuurqeoa//0Hj/+e3wwcHt7vCx4s/kkJDw8/iM07jbamr19ffx8fP88vLzzs7/1oredXWn3smZ2cDji4v/vUSW177ooKB/g5X/6sT/wU7H6tz00tL/36P+/PzQ7eL/5LLj9O7n6Ov/25mu4M1tYlf219f66+uzhz0AX+SUAAAzoklEQVR42uzdPYrjQBCG4aLCCecIcwvfwWAwUuJ8IiUC4UCgRIlQIASawGAwDox1AINTwySbzpk2WphldyzJ+nGr+31O0VX1VbUAAAAAAAAAAAAAAAAAAAAAAAAAAAAAAAAAAAAAAAAAAAAAAABgjrbROvi81sWqDP1EJ5P4Ybkq6utnkEdbAcx1yo9emqkBstQ75icBDLM4BJ6vhvG94LAQwBCHKlVjpdVBgKfb33ZquN1tL8ATrWMjSpJmWbwW4CmWlXFVyT1+tRRgantPZ8fjCYZJfVxKnaXy8iHANF6DmVQm/5MFrwJM4GJ8m+u+3bsAY9uEOnvhRoAxrQ0eLXaR/hJgLNtYrRGTnMRINrOamzTxeX9hDMsZDk7u85hAYnDviVonof+FYb1YVJ18F78IMJizJc2uf6VnAQaSW/js+iPJBRhEpVarBOhvUavlavaF0du2UOsVDB/R05u1Zfx36ZsAPZxmunfSVcltI/RwtiAq3E5ImxgPi6wKd93nRwI8ZDnzDa1udiS/8JDFSp2yokuMR1iXFm7iCdDZTZ1zE6CjQB0UCNBJrk4iIYlOljO+3NVHRusLXVgfhPxJLUBrX+qsLwFaitRhTOjRlmOTxr+tBGjlqE47CtDCWR1HkBhtXNVxVwEa7dV5fMyFZg7syDcpBGiwUSj3u9HEmeXf3+zdvWoiURjG8Ye3mCLlXIJ3MfcgLEhstrfaRpApBJs0MoUITiEEJIXoBQiWEWwsJLDXtGpcM19+JJtxZ5j/r0ihhKTwYTznvO97LmkLuKhl2GF6Ny6rxHSi64YC2PJi4wu0/9IWjLxNDUdMxENl59Yz4x7fwqnQwLtrmo6AbBvDCTfR45y14WQtIFulRqheMxZABzA9wfiqV0PEqwBa5Wmex9fUDDHcV4csDUNMQwBLFBYpoCCSwkgklaa38XXiO259s7S9fi1uYQezWu0jsOvau87ihx10ajETy0KfI/IUWr7GfqzpZay4yWmswyxrkeAObMe7778cCrjzcePAleRN6w+Saj2zvncg6cHbC2xvop1eJCju7i1XO87czKZ/f8f19qaWgSNHZCnL+BVfCp9sZxT7W/X48Y0b21VoHC/+anZDyelFZqS07BqGsSCuHBOH2x+f9JXkp4NyekuqxYJy0A+l5WeCwhRi5KRreepG1h51f3YmKG/SMpTaqaDYQgruHpSugPvuDs/TJ//poDQl1wIpSAdlLk1vDwr7w0goyyjVnqTWtaAspK21pTAdlBdpcnNQGK2KpNKURD5L8kf9i0HxpcHxZzIoE2l0e1Aoi0RCac4be2/a84Ons0EZSuH7c2WSDEogqX1zUDhxRH6alrNRqAN/eSYoDSk4rlROLzxst9uJ70p6trsHpSkgqWe5m29D7TWyg+JJw+Nrq1T57sbuH5SegHRQ7mEYeJIWWUF5lPSy15HekkFZGEFBITTtPnpbKcwKSkcR/WNQWs2dUJqY8dULRdC2e3mQ+umg9BxFLKKL+eX7mH0W8yiAH5anoNMZRlpsB+mgjCSn+24j+dGgWE2amrE9jAIYWJ46H9tWTWU+UeqRkxJXGkaDMpD0aBw4ogAeLU9LyVnbXtvPXKOMo/sJE6kRDYrNJN8oYUEBdC1XnqTpz1Wr40jqpoPSkmbRyjAvFpShpBeKIlEAL5arcU1/uY+WDkoorWOxekyWsHiU2aMAflrOGp72Ht6GFiusHx4fGW58UtA2FpRxpKGrJS3sEhq3kFCeVuC93vy127fyoBUYaaGB4RIo0oljSXDeCAbgsTsMRqoyUhUJDOnOwJBupHDtQxrXPiClNGWRpUNJJFiksERBkY8cy4TjRnB9Ntdn4+vWhpO1gGwbw8lGQDanaThqOgLOGBmORgLOmRqOpgIojKQgEv/i2XDwLOCCoWHnScAlLcNOSwB9jvQ2ovDDWMqA8Su4amCVxyhVsPHFlhe+x9IqbinguplV3EzA/59CXHRMHAbN87TKg55gOoBxX7+tsn4LuNncKmou4Hb1Mt3O8I36dQGfEFglBQI+5ZdV0C8Bn7SyylkJoC2Y9l/kwavYueMPT/jD3r2jOghEARgeJFXKLOHuInsQAqJN+lQ2glgINtOIhQimEAKSIsQFCGkDae6+7gZuIT4m8/i/PRyY8xzM4Dt1YrWj4IWZUocO4kV05DHb05nF4ISRYSzwcOQqS8O9OyzyIz0HSH6hw0KZAzv0dSaAhY7WD0gO1IXBjXvu1kOVqvCsVTAHidU8rU3pJWVhrGife1bK9wJY08XC51fBLW6szrdumjhkugtbOFs1+hVxiRsbySzKVHKajNjOryXlLxkIYEtnCwaKE15d2N7F8H2ubhSAAofY4KtfZXwQgBrX0dA9lWa8CkChm4FtlZCvtKCe3xrVV4la+ov4kiA3JFspc+rB+KrbW/siWPfmyQUN9K3GbUjZ9gLQxLGPQ+0yliiMe7Z8oZ1HdQ+lFklLKcN7xQUi6CxLq/jzGupTk0SFp0wRJc2pHl6fOEiZd4QDdjsBgEABCBTgXwQKMAGBAkxAoAATECjABAQKMAGBAkxAoPyxTwcCAAAAAIL8rVcYoByCQRQYRIFBFBhEgUEUGESBQRQYRIFBFBhEgUEUGESBQRQYRIFBFBhEgUEUGESBQRQYRIFBFBhEgUEUGESBQRQYRIFBFBhEgUEUGESBQRQYRIFBFBhEgUEUGESBQRSIvTpGTSCKojB84b0yDFgmhZAyXQKBpNEFaCkIIoKFWLpVtxQZhOjojLdKk+/jbOHwJzgKJDgKJDgKJDgKJDgKJDgKJDgKJDgK/KH3Ufcoo/cAOprx6PIoo3ETQNdTre1Vam1vUutTADea2l6l1vYmVVCgJykn43ZVUKA/KWeCAkNJaQkKDGkEBRJJERRIaAQFEkkRFEhoBAUSSREUSGgEBRJJERRIaAQFEkk5HgUFHtmUsglg0Fs5eQug3+pQWodVAD32r+XsdR/AXctyYRnArZfncuX5JYCOxUfp+FgEcGVb7tgG8Ovzu9z1/RnA2XxSekzmAbTWZcA6gIjpVxn0NQ3492a78sBuFvDDvh3bMAgAQRBE+loc0JAdWCBERP8V+Eu4JzHS7vQxcHsF9kUie30q8nktEtZ1Vui8Fglqq5hJRVhrxUwqoup6EjOpiKrrScykIqp3xUwqoup6EjOpiKrrScykIqqjYiYVUXU9iZlURNX1JGZSEdW3YiYVUXU9iZlURNX1JGZSEdVeMZOKqLqexEwqorrOiplURLVVzKQirLViJhVRTeqJSUVUk3piUhHVu2ImFVFN6olJRVSTemJSEdVRMZOKqCb1xKQiqkk9MamI6lsxk4qoJvXEpCKqST0xqYhqrwmTipDm9cSkIp4b9cSkIpytbjCpCGatvzOp6Om6njyASeXHvh2cRBAEQBRtaAzCAMxAMBDBiyAejdEETMtmI9jZ05/p9w6VQR0/bSs9SRCpUPYxM0QqVK30JESkQtNKT1JEKhR9zxyRCjUrPQkSqdCy0pMkkQolnzNLpELFSk/CRCo0rPQkTaRCwdfME6nwoEukJyIVzmKlJ6cgUuGwK6UnIhVOIJCeiFSoa6QnIhXaKumJSIWyUHoiUqGqlZ6IVGiqpSciFYqC6YlIhZpmeiJSoaWanohUKAmnJyIVKtrpiUiFhnp6IlKh4ATpiUiFB22WnohUOG7H9ESkwmF7piciFQ7aND0RqXDEvumJSIW7bZ2eiFS41+bpiUiFO1w7PXl+WyNSOejpIYPTpid/Y/zMRaTiKBnF9OR1jJd5I1JxlIRmevI7xvu8Ean8s282r00EUQAfmDdrgl89ROtuFVl0MVVUVrduLxvxq2JCegk0hGgopZQebAOlEPCSQ29KsJDL3ns1uXjLJWADgUIv/kW+nZndfK5gMQo6P8pm32Tf0MP8sjO7835RlPyj+1/yShTOf1B6Ykf/lypS+SVR0oDcYiM8WrivRFGlJ6pIZUiUOgDMLeyxEZ7AghLlz5ee9I6NjJHTo7hVMFJGris2jNRytLuFccGjUYObyzT1KZn++rGTKjV8GW5WtlPtWoefd2u1IuXY2Jtsld1tVEqp7LqtilSmiXIH4A1jTIny90tPTsJsn4d+ScYtiqRI09XCZwSyoUyQ5cnMnhy01qbwTeY5ct9Jg7cWZWvTo2H/UnJbFalMEeUxJJgS5fdSOfvDo5SGhxqP28EoNpqEWB4fyJqGp02CdKhoCC5o9iYyPS0IDUuq0cJIcxxsPBkSRQ96c9rBlb7oDvvT2oFibVWkMsGV9F2AdHqJIUevVm9/qI6IcrT05XL6kAn29lcv71eVKDMqPXEDA3zx+9/CeIOQTBc/twgpiYFM2jqlvRohmicbct60zFMUxqbUN4SymNA3sT90TI9E2bQw28RPhxBDiCJF0vAyVaQyzn3gPGXs6wFw3g+JkoaAxFsWsJTk0fOvSpSZlJ5kwu0uLfGb/i58IJDNFuUv/iZFTLywIRpy0zNRkC5FbKOwix+afHGybPS9SJSsvN3QTWkXdpflDQVCTlWRyjh3dgBgZ+c2Y4EyC5fw8FiIIjxJruy8hmQVg2cJgKsP8bCqRJlF6ckGIUakjIbHimyQpKIZnU6IIxp60zNLhGzRAZZYx0ikKJbQDllHt0V3bth9VhWpTFujzDPkIsBcnbH6UzgfibIAN/D2cfQUruFxHp4e4X3nIcBFJcoMSk86hNSWBQ4hHqW7wQqksTEkik4FGrF4gxaTeYqZ7XWPSmoYlormiCgeISke8tOM6F9c4nPvzsx3+CeRoiDVx4cM+QSJSJQEHHCHruBhHxLnGFKfh8sMfgL5vzmzKA0yTFHMgRBr2w1FMQfOCFHiMh1+lsn1KJXLEaT9zhuIoqNcVGKNemcqUeJFichfBzgKRbkLiQ91JjiAFcZ5ACtKlBlMvQqTm/PX2iIwbGmHxEFn+MiOzdxqiqBAA7ysxiNtLRLFJeSYSppEGxdFTb3GGRIlv/rwHiADUd5ikJgT21s+A8xzgpU/iUWJctbFfIWQrB5hU053fdvCLmtClLBjKxrZ8Zl6v6QN9geY7olDkN1QlN6QDYQ0x0VRi/l4US5DQPJFJAryEfVAduqMvYaIeSXKDB4PL3IfJjH7RNxAommdPTKy4zO97ZFXIrvYQy4Uxcc+wnZCnHFR1OPhWFGWAO49vlBnbyJRONX9awmAJ4zdhJt5SVWJMoMXjr5GLJtyymvBSbfciJ7+9rgohohz4WMqLSZTb6yFRlnB3aSgh8WIJSGKmL51orX+1rgo6oVjrCgHkNxjyKtIlJD6XXjN2G24ykKUKLPYwoIDtu3L94eaSakl1xteONMipC+/JkUxsqdnbuCxK0ODb1fMhDtkGpEo5fCiDj8ZE0VtYYkV5TrcYAEPB6I8e3Ajz5DbkODrFfHe8dLKkhJlFpsi/RSmFYqtY0zfEmt0LddaPLbCNQpilDs1LXqVrsVkOhieuOvBlWV+wyFOZblv4LddKYp442j13WKQs0jHRVGbImNF2Qd4WWfVHRiIkgdYyLP6rSR8Y2zvKsCrQ3Z4HSCtRJnJNnuvSSSOiaGdCsOU/MWvhRZ6cmTHZOpaGNbMkQLEd8ObIo3BRHFCFLXNPlaUw3sAkOR/0dQLpYDXQfOV4IIbMppTU68ZFW5tlHiidSpC+1jjYdYMB3KOIFrWprIhLnNXhM2KCFtt4ZtLh0XxRffNMp0URRVuTYryAe6xgKM5QFaWAA6jNcpqEpCb51jAuUuAJD99VaLMrBTYXl507UFo6ostjw4NZLPYWbbjM4fDNdcfhJtuRzfpOL5e/MHeGdsgDENRsIgoKWkYgMoNEktAS88KjMAKWYSKFRgMOivSD3YkZB7Pd10GuCKW7r/7cyAFXtrM31IaV1Meu+M6f42bdOVnvvlxiSyKKByXmMKr12LOe39ROFeEKEoH8FRF4QAeokidVBUVpZeTqogyj9aR7tNhO8jRz5FuRJmF2QdmHxClBoFIRZuehoQQ5QO/j1SkcU1PvgiiMHbqm57EIEoB5rN7S09iEKUVl8EI5/QkBlGa8Y5UTPBOT2IQpQE5UrHAPD2JQZQybEF0lZ7EIEol3utCpCclEKUO77060pMiiFKHZqRSCemJHIjyl5vapCdFEOXFvh3jRBmFURiebWhHYUFpYoKNLEBLEw0xGGMMsWKrbEkgigPcYf47xX/PN/d5tnByyneZzEhlCelJIkdZGKkUNEt60uYoy+VFKvtIT1I5ypFGKhOlJ22O0mfSSGWm9KTNUTpNGalITzaO0mfGSEV6cstRek0XqUhP7jhKv7kiFenJPUc51ByRivTkL0c51BSRivTkH0cZLjhSkZ48cJTxUiMV6ckWRwmQGalIT7Y5SoTASEV68oijZEiLVKQnTzhKiKxIRXrylKPECIpUpCfPOEqOlEhFetLgKEEyIhXpSYujRAmIVKQnTY6SZXikIj1pc5QwB0Qq0pN6HKV0pCI92clR8nRFKtKTkhylbqQiPXmJoyTqiFSkJyU5StVIRXryMkcJtSRSkZ6U5SglIxXpyV6OkmtPpCI9KcxRNptqkYr0ZAlHSbY7UpGe1OYodypFKtKTZRwlXCNSkZ7U5yj3qkQq0pPFHCXfo0hFenIUHOW/+EhFetLBUSp4iFSkJ0fCUbZERyrSkz6OUsRtpCI9OR6O0pAXqUhPujlKGedn0pOj4SjP5EUq0pPxHKUpKVKRniRwlKagSEV6EsFR2mIiFelJBkfZISNSkZ6kcJSmkEhFehLDUXYaH6lIT3I4yiquTqQntTnKOi6upSelOcpaTqUnlTnKai6lJ4U5ynp+/5SelOUoK3rzVXpSlaOs6rv0pChHWdfHX9KTkhxlZedn0pOKHGV136QnBTnK+j59kJ6U4ygDvHsvPanGUYb4IT0pxlHG+PxWelKKowzy+pX0pBJHGeaL9KQQRxnn6kR6UoajDHRxLT2pwlGGOpWeFOEoY11KT2pwlMFubjYU4Ch9DDApO/UxwKTs1McAk7JTHwNMyk59DPCHPTomAAAAQBjUv7UZvAcViPL0ERDl6SMgytNHQJSnj4AoTx8BUZ4+AqI8fQREefoIiPL0ERDl6SMgytNHQJSnj4AoTx8BUZ4+AqI8fQREefoIiPL0ERDl6SMgytNHQJSnj4AoTx8BUZ4+AqI8fQREefoIiPL0ERDl6SMgytNHQJSnj4AoTx8BUZ4+AqI8fQREefoIiPL0ERDl6SMgytNHQJSnj4AoTx8BUZ4+Asa+Hau2DYVhGO7w/Vgmdbc6htRksAnCtTu0pIuG0EDIpF6BL6FBEDx10dAxQ30PXrPpDnJlPRKGWk1RpOXkGL3PYIQ1frzYB6GeYqduGKCn2Mkj6+QNAkIoDQgFhNICoYBQWiAUEEoLhAJCeQVm2/l8SyjHiFA8MhtJKaEcI0JpQCgglFeQxytpHm/MBu4j+zxZu4vYKpt4Z477dn69zgklNITiUapKZLZWNJO0cheyUi4l5jyqdDojlMAQike7u7F0drcqQ1Gk6Xn8byixFJ3/lpQQSlgIxZP6GWUtDd+bUw9lKT0VZtlHTe8JJSiE4k89lI09D2WicWHONykhlKAQij/1ULb/CWWhL1a51U9CCQqh+FMPxZ6HUkg6rUhfCSUohNLAdyip/noilKAQSgOPoQz2vyjX6V5OKEEhlAYeQkmkzJybMhQ70Q+ezIeJUDyqQklqoeTSg5ndn1U3fum26mi3mIwIJSiE4pFZEeldmh2EYlPp4eLyRFUo6VDTpLDRWLoglKAQikdm9knS8DCUmSqrKhR7G5X3JX3nr1dYCMUjMys+SBrYpWR7N1fS1WMuLc1JFnKma84ogSEUj6xUjHZWt83tQLZc5hzmg0MozXgVGITyEkIBobRAKCCUFggFhNICoYBQWiAUEEoLhAJCCQQDHAd26oYBeoqdumGAnmKnbhigp9ipGwboKXbqhgF6ip3+sEfHBAAAAAiD+rc2g/egAh8BUZ4+AqI8fQREefoIiPL0ERDl6SMgytNHQJSnj4AoTx8BUZ4+AqI8fQREefoIiPL0ERDl6SMgytNHQJSnj4AoTx8BUZ4+AqI8fQREefoIiPL0ERDl6SMgytNHQJSnj4AoTx8BUZ4+AqI8fQREefoIiPL0ERDl6SMgytNHQJSnj4AoTx8BUZ4+AqI8fQREefoIiPL0ERDl6SMgauzcwY0CQQxE0TnUsWVpEpgYyD+61TZCQsDF4mAX/k9EML9dR+iUQ4Ch6JRDgKHolEOAoeiUQ4Ch6JRDgKHolEOAoeiUQ4Ch6JRDgKHoVON2vgY4bwfaoVO1uM7nAOcVBxqiU7El7QTS/vzSOtAQnaqFdgJpf34xVE3RqdjSv2v/xFC1RadqoQeGqjM6FVu6Y6h6o1O1YKgs0KnYYqgs0KlaMFQW6FRsMVQW6FQtGCoLdCq2GCoLdKoWDJUFOhVbDJUFOlULhsoCnYothsrCz3cSvna8o1M/BEhqVoBOnzXLJHAoMxAgqVkBOn3WLJPE32c4fD86fYdDyTJ9wHTiUKxxKB44lCzTB0wnDsUah+KBQ8kyfcB04lCscSgeOJQs0wdMJw7F2h/7dYujQBBFUbjEC9MzmcxPCASDI0gWgCIoeg94FA6FYAGsBsf2sEhuUKdzPlvy3SPKUBgMJQUdsHcyFDRDYTCUFHTA3slQ0AyFwVBS0AF7J0NBMxQGQ0lBB+ydDAXNUBgMJQUdsHcyFDRDYTCUFHTA3slQ0AyFwVBS0AF7J0NBMxQGQ0lBB+ydDAXNUBgMJQUdsHcyFDRDYTCUFHTA3slQ0AyFwVBS0AF7J0NBMxQGQ0lBB+ydDAXNUBgMJQUdsHcyFDRDYTCUFHTA3slQ0AyFwVBS0AF7J0NBMxQGQ0lBB+ydDAXNUBgMJQUdMPxOo8mhhQxlUAzlJauqfct8napmF0MZCEwou/47eHnTre/X7VlXdWyZ9aLqPDaUgcCE8ldd8PKmbdWyPfutrm+Z/5/6vI4MZSAM5aVQ2n0T/2rmNf3wj/Jg71x2EtmiMLwHf4qqUpRLuCSAkGCAFHKJHRkACffbhPAAnThkAjExhhAHTJzpwH4QB47seY/PQx1q7SrOprfYmuA54Klv0E3X2g0bXR9Va1krfhUcUd4jCvHxEiX60xHlq7DDoviTp/HHX+d+M+vCYQDhcNhLkcPcKBjPpZgc8R6Pgt1hnxGDcLic6OQjwwZjzN0uREoNZuFLRiORk47OiEx4yLyd6cFdkiqTdhiAEQ5XKGg/1bO0UNqw+yECtXTopxLl2CpR9P43AyikF4xQZsmwhsdMQnFE2Sd2VxSvAaJ3zVgdFu5l4MoDzgkTI5Ti4EzqvLBASoNJhg1BPDBiFgNRCzCTA9QaIIKmAAY4bbFGgUtauI7imoLzUDS3P+IlSmICTnjGltTTIRCPDcURZY/YWVGKKoDHUQ8oMOaPxwHE4/HE8nENgFp4BPC0HmFJykANQNjK7ixUTwhAFDAo/1OUrUEAMfr3mIsCDWqkBSCiMFaKA9Di8cq6KPJCEd+gBQs1qTOlwUsU7xQ2y6Ps5zFs8glHlD1iZ0VJA9HyUoQ80FmrREpAKOBjLACE2FqkAeDCz5SBCgx4duNOZ/odAK1BH/J0FlK6QHdpyOIXELFEQVthrKICrg1dL7ikhSJKIwgcpPuuZAuIXjM9TSVK+QmIdVyJRhe4K7KXJoBJ48p9B6hznyPK/rCzolwCz3StP3oYr+ngLsV4DXIC/FyLBIE5ryi4AMdAgT7se0CGzlJAfPnXPRChOkKPc6MOgAkzeQDSG0WRFook8kDO3LCvqiLYt0sU1wGyA2V5dK7Gbl/0pIpYxSyMZlPgm98RZX/YWVGiwO3bva0mUBEjXuCScQxolN3cDxYHeK2fRYyemrKeK3PO89/NTFzA3UZRpIUC/g4wTdDDvoFWyipRlHttaY3CGFv80BkbF6Bd6LS+DTQdUfaInRXlBoAnWdwginfQKWlAVYxcAFE3J04nm2M73UcAT8oWsss/a4CbcwaUeP7rFK8D+c2iyAttTC8w+X5h8q2HoMsqUZRKDzDOU/VVxzjYoUXJPHDriLJH7KwoSgEmxnD8uyjljkcFsS7KOUQCdnbLomgQ8FD+a4zQ3xRFXmij3PcgkH/W0/xGr3EcJurEbVbyYYh8d2qUPWJnRWHKbQxEc12UH3ZrN/ubKA8Qud8sCkSMbYhSf4DIadn+KYoSeASn41dSBgRiAcURZX/YXVGWuDJTFUB6TZQDQD2de33s5jdROkDOtaK8WZQQ4Frx1zZEuY4C8ZzNpKJ7R+hVSITF/Z1GQqZ89xpC4ZxN22kPi/grRfYHFNe8z8/Ci+pwcpq+Zm+yAwn8L75O8QSIiDqUgdC1dQZZF6UChJnARlGCgJCk2xAlsfTiTBGbxTE8upiF3j8GUNWTwMnCuYXlVfQQkPjDkmoIRspsIfLT9IgaNOGjIdsSzaPpf//1+/DruM7nKzFIB6uOdlP9bR2pipG6imyZEelq+Q1RnoBzK8FvXZtEOfyIKD9GUKs+Cpzd9HXGSxTlZyBzQ3V8P4hexTw4nfHXzZwtdu0Wlvpg4P1QZKtTEykAHfYmsyno40hxG1ii8S+4Cg/bEgfQ9k+UH4CasMToWj9XcVv9Js+qdq+KERYFPCREA9D0zaKMqYRZooyA29fyPwO0PyLKIgqcXJMnNbMc4SWK/xyImkfrt0DhL8W89Lr3md/yCVC42jFRAsC3D0W2eo+r8ojQT/Ym11Hegl+UACOTTBaZIwo/T7Ta7u9hFUhbFUio2fRToJBxp6MgUcRIPQgYzcPBMSj/N4rCvgOIpt1JA+iV5fznKk2GrneL4s8A6KYDF3cAos+Mlyj6DYDJoTuZB3Djp5vUQg+VQSYI9Kq6I8oaf7xLVLn6djNjdEKJHZqLHVFMXBosopTks57V9D1UwQmSKEKELWKwOPJtFkXsJKsV9mr+x6nd9v728FUcNvmxYpUoSioIm2aRdLLR0v5dq1H+G1E+jp6k87Qjis14CpNYh3FmcetE4TJ4qiVJFDHCvFGYZNPrxfzlP6LEGHFTg0n3mb0uil5SgdG7RVk6YZmitq+ZVaIszahmQdSSVKq83IJTCOi7UMzPOqVHT7SqMMaq4RqNK/Di7eVbNPJ42SkzMSLPJyi5cFoZHD9OzRmCRbIUvKTbcqynyB/EJxVGJMJhtz4YRkbfpNkIm0x4Ii8U8Q1OJ5mX8dNdEIiVJu3EP6L0m0cH+Yx/tSd9ftIKrg9kyNMU9tvxxE+T5VUaJG6ikfDNbJ9EYaycmjf84gVOaqzwb8JgfqUwOUL/pxJ4Ye/Ae1gZK2/2Il1+9gGK8+NcbnhBFxC6++LCrZtP4u1McrmHsyLj+Prnk9zk3O3fia7XQAMRVxib2ArTtIIKQuszISLPJ/iA0hAmsaI3xB/w/F2d94/IhTMg2QWRlGYjCMpSaaFIfQi063MVnJPFSpQkiJ7b3pOpobo+kCFPU4hvJ9a3ttDnTx/6sVeiOHyqKAMaV/Co1LjoxFUaV2jzG7cB46gH9GZCRJ5P8AEaUHsEEIlBM58KXWZyZT40sqZSOs//EBCLmEcr4myELIq4cI1EF+q83obFud8WRQPQMjVV+6s9oRX8bSDjtSGJugEg69EAtcHjISBikPiOKPvJJ4gSBTI6Yz9qgEusRLwqcLo0pN4FbpgQkeYTfNZZp6/xUlKvAjDLh0UWaJp38NSAJ57/iHkZe+kCl1KNYosiLRRR3DUE+3rC1Qa6jaurhWKLAkSXwqU8QFDhe8J3vzSQIQ9JUNPTs3xQn5LfFH/SGUuFgAtHlP3kE0TRrM6Gu5spijqUMxF+qTIDSoIo0nwCJWXDaqdnKZDjXZVT4JSfBnpUHp7Zzf6yhuxmUeSFcg1PV2D0WitRDJ26xxoQ4HsavDaQIQ9J3AOhBb1YCHim+B3Fq8CxI8p+8gmihIDUm70tHTgQIvJ8gg/o2SNzUd4k4bVFFprCiAnQp/wvrMaMihtFkRYK2ILQFZhvTRT3atRvIuxJGsiQhiSmdJgOVKt+ijfsNx53RNlPPufSC9ND/+ui1FMXbQ/QEiLyfILP7gym7DPIBX1WL4CsmzMkc86A5koc10ZRpIUCXBDrCkxZE0VnxF9AXNiTNJAhDUnUgDIToDgRQssRZT/5BFFmIZh4MsXfRXGXsuCIosjzCT7g8jVR+hBpUv6fM+L0bVHkhRxbEPsKTBQlZi9R0RL2JA1kSM19DVl5C0TWEWVf+Yz2cDHHM1+br4vSBqHFAWMtAhFjsygNiEy2IIpUogiiGMxCQ0zYkzSQIYkCGI4oX42ti0LojXYBS65EHSoA4hn3C2NZURRpPmGzKGPAcK243oIoUokiiKLa3gOPwp6kgQxJlBBUxRHli/EpohDjR2Ao6nAKPPB8UkVRpPmEzaL4gRgT2IIoUoki1CjPqyLrUhRFHMiQReEijR1RvhjbF0UPPLjsDtaU59kTMykACzvzWkyISPMJm0RhEaBvZe/NbIMo0N8vilyiiKI8MaILZIQ9SQMZkihNIMeIh2DQ64jyJdi+KGkgqFBJwpPTZXdmh9YwzqxGotgReT5hsyhpoOelyyHqQcv5T7MR7xdFLlFEURCwbiLHtbAnaSBDEmUMIGm9wZDiiPIl2L4odRUodNyZLoCEVYH8Gt7TCUQ7HRw+xECirCLSfMJmUdgd0JvMG+c9YCTlvzAb8V5R5BJFFEUNV9Mj6q+JoogDGbIo1m6RTwfaKtD8X1963R512ZaoHh0l2IfYdVFYEjYZfv1hN30vwcmqMISIPJ+wWRTlEhYxr5T/wmzE+0SRSxRRlO4BOF1d3JM0kCGLwtqwmPr/16IUtveadJ/9h9h5UdggwtOowTiZHqjEVoaUYaPnGAwhIs8nrJLSJYiSpAf+Y418OvbLxbwwG/E+UeQSRRQlX/+FJVpbWduTPJAhi8IyWZK5/T8v5h1R/vANmDWqfZ/YW+oXrRmD6iE9kiLSfMJGdNfZ4TOTkGYj3oMyrl6clfn8QkOX4+WzeV8+LA5kbH7mw0BxlxLYEWUXRXHYua+fI4ojyl7z5UWZ3f4Kjp5m/wyDNo6DNcr58TAf9ETvldVv5ypelA6inR/MJlCKR8Id70qUcjXnyd++1xdHlC/FVxelHwLRsYdB09YIaj0KjlG2RcjCRLNM8HVBqBdWvNECccbehSPKl+Kri5IFQq2VKQdQAcRiY8bCWBL5m7075k0bCMM4/g6P3IOAMLHsRKJWTgKFiiotokoGigQGCu2C+AYdO0WRqg7s2bqkH4Wp7J37oQp3XGpLp8ps9fn9T1iGyfcTmLN9VwLwjxBiIIoALKVZsAjCP+AZmNW70GsJAAnliqG4lOtQ0LsmkjeA2CoowKpv5pq6EyIZA00NAYv99kOsYdA7YFk7J2/w/DA9vB0SffWBO8oVQ3Ep16GI37TP883cK1ak+jEdd820W1tDOaumbtbrP39zLIC22h8FtG8LnFHOGIo7uQ5lTioJ9Mz1otlCoKGgmLdWMNOXWHRItRuNZHp/C/AoTwzFpVyHUiPdBaCgCEq1C9urGHjUUML0snZ3wIZMmf33QJ/yxFBcynUou78vf2Yemnm++VyB7jEzTxKp9ywAaZ9HeclQypjrUALSvQG2aSjBGqqLJ+DGAuUKmDAUrjRQrkk3A6ppKA11wfiLgJp2KPdAwlC40kDpksoDKpSGEhkIiQWK3n7FULjSQPE9c5PbrwwUgTGppvZzlBCIqmr7fRTdMpTS5zoU/afuRwCbDJQWhBruobBD8eLjM9CHM+CBoZQ+56Fg/W1zWQF8ykCZAuN58r0jYIdCXw6fGSQfXgM+//TiHIey7EAXyywUOYYusp+jEIU41pMMhXMdCs2FWXYmA4WGaxxqNG1QVJ+esG95OeGTec5tKKpqMqoPyVJQv60H9K9kWJP0f8RQTq6YA5iPE0MpdAylGDGUUyvoAObjxFAKHUMpRgzl1Ao6gPk4/WGfjmkAAAAQhvl3jQbOJZ0FKCjpQGkEylv0wHYCJR0ojUB5ix7YTqCkA6URKG/RA9sJlHSgNALlLXpgO4GSDpRGoLxFD2wnUNKB0giUt+iB7QRKOlAagfIWPbCdQEkHSiNQ3qIHthMo6UBpBMpb9MB2AiXd2KdjIwiBIAaCGOQf8yfwBiocdOrOYGtWhtLBUFKlD6yToVQzlA6Gkip9YJ0MpZqhdDCUVOkD62Qo1Qylg6GkSh9YJ0OpZigdDCVV+sA6GUo1Q+lgKKnSB9bJUKoZSgdDSZU+sE6GUs1QOhhKqvSBdTKUaobSwVBSpQ+sk6FUM5QO74fCa9cjOmU+lunGUDYIEPpYAZ3++1imG0PZcJ3t+AMPoVNGgFE6ZQQYpVNGgFE6ZQQYpVNGgFE6ZQQYpVNGgFE6ZQQYpVNGgFE6ZQQYpVNGgFE6ZQQYpVNGgFE6ZQQYpdOPPTomAAAAQBjUv7UZvAcV+AiI8vQREOXpIyDK00dAlKePgChPHwFRnj4Cojx9BER5+giI8vQREOXpIyDK00dAlKePgChPHwFRnj4Cojx9BER5+giI8vQREOXpIyDK00dAlKePgChPHwFRnj4Cojx9BER5+giI8vQREOXpIyDK00dAlKePgChPHwFRnj4Cojx9BER5+giI8vQREOXpIyDK00dAlKePgChPHwFRnsYeHRMAAAAgDOrf2gzegwp8BER5+giI8vQREOXpIyDK00dAlKePgChPHwFRnj4Cojx9BER5+giI8vQREOXpIyDK00dAlKePgChPHwFRnj4Cojx9BER5+giI8vQREOVp7NXBCUMxDARRH/YoBG7ANfz+qwtxCITcfFoJz0MdiGHP8IBL8aczPOBS/OkMD7gUf/J45v8D5jNQF6GY5Jq/D5grBwojFJOQdirSzkSKgcIIxSW1U5F2JmJQaiMUl9Db2icGpTpCsUl9MSj1EYpN6INB6YBQfJJB6YNQfIJB6YNQjJJBaYNQjIJBaYNQnJJB6YJQnIJB6YJQrJJBaYJQrIJBaYJQvJJBebF3NytqQ2EYx58XSlal0BvoNfRW3LkNruIu6xAIYgjuI4JB4mz8XAiCoAhCN2WW7R1VU7VJx2/j0STPbzWDM7OaPyc5J+ckGxjKc33mgJINDOU+TqMSrurGchbYrifKeK4dzJZGfRVWGg7oAIbyIjrjljEcyQsYDY3WuANKYCjP5y9CQ5cXoxvhwgftMJQn+9kdyMsatH6CIgzlmZpTW16cPW2CAIbyNJO+K5ng9icghvIUpe7L3ZWcondLIIaiWrMumVPnJRhDUWreCySTgtocxFDUeA9fYrHkNqPwHcRQFOhl6tbkI70HYiiPZmX0oisusEAM5ZEmQ8mFIWeLGcrjOH3JjT6fnGQoD2JlZHXxMi6vvxjKI5QyuHByWp0rkAwldT1Pcsfj/BdDSZeZo7uTuL4JYiipaedksuujYRvEUFIyzuFl1443BjGUVHQl17oghnI/35CcM7hfmKHczalK7lW5+MhQ7lR+4e3w6RmUQQzlDp0cPAJ5iYBnGzGUO7Rf/uCItNicJmYoN2tkfOfJNfQGiKHcpFSgTkR0PvnFUG7yNpNCmb2BGMr1cr9+8j8DxFCuNpXCmYIYypVCKaAQxFCuMpZC4hOSDOUqpQyf3HWPEae+GApv5HlDz1DSVZPCqoEYyoUaUmBcoWcolyrYSmPSDMRQLtKSQmuBGMoF2lJwfJCYoVwidwfdXasOYihnNaXw+GIuhnJeAfbIn1MFMZQzLCHh+d0M5ZzCbP49xQYxlJN6Qms8vZuhnJbbQ4avMwQxFE55ceKLoXANhWspRzCU1HSEtngiHkMp7Ln1POOeoaRCy9XbTO/jvoMYymEToT2+iZ6hHLMS2luBGMphhTpC9RwdxFC4A5h7ghnKrX4IxfwAMRRulefmeYZym7JQAt9Xx1AOqQglVEAMhbcovElhKDxGlcerfsRQsrW3sT8pmZqz6MqGW07qScS1HFMz5z8HsjXdft5eTD05ifscj2EoqfBFCW+BrbJ+YFlvIRs9DVvt0Yf7BXMgivgghvKc5UbXAWCWOvPtf/zIf9sAYEZfVGQtasl0fKzN7V0o7+uPzeiToajRwH++gwofiiUqTABtJWvLN6AkOyWgmtiw3tl8q08A/N6FUpM1feoDpqhhIeHzl6+gwofSEhVMYCkRWwO8Q6EMtX9T1XUNqO1DidjRn1Cilczk0zcQQ1mJCrHhoOk4tkSSoSziQ00Y/UI8FLEAS5RYJTL59IkDCkNRtV1eg+ZJzIFQTCCQvTlgJEMxlJ0jXk9kwgGFoWwsRQUHaHsnQ1kCjvxjAc1kKH3glyixjGXCAYWh/DUQFaYAzJ59IpRW8mGaAdBOhjKOvlRhsM+EAwpD2QlEiTE2/EX9WChW8h33I8BJhFLVop9VIdhmwgGFoajf3rgsI2KGh0OZAFOJAeb/QvEMywTmooYeZcIBhaHEeaJKMHawUfYOhTJOnprk7UcUaJqGDd8VRT7RcQzlD3v3zppIGIVx/DnNfD+7tJJKO2sRRBwkvTKgiJPG8VIIwoKyEEgjKbPfaBPXKzsar+Nc/r962gPzvuc9z4mA26tKaocVyvv+7W9F6i4LZaNasYMolCMolET9eq29O5IbUijBfmClLy3+FYrz8qVVLtox/HrhP4k8zG+1pWlIoYz2Wy1dyVufUc7AYR4bCbwe9j4/32zlWaqFNRy70vNuK8NpXFAoXA9jK3kNR1+q7vTcvbBCCXaGyNymtLALCoWGI3Yl7QnLyFkf1RsLycmHFYq1JefdvhWbUsm9pFB4woKtBD6KfJE0e/Z686akZwstFLcpqTQvt/5IcgK7oFB4FIl9SXtm32hpo2bhhWLuk9ZKv+1RhcIzezxyb7Y3c5YV8BTYVlca7n1U1bfS2LWHFQqDW3hw8vDAn1bsB6NivZC3R2IUGGGahj2ESyBUxbCDuCIQgHcCAvBApOoJiFQFId0nIKQbrH04AWsfwCKhn7FICBxSOKIgGS3HJGDZKWIy5BhrrM/GIW+GjTcB4SaGjYmAcB+uYcV1BBzgG1Z8AYd0DStdAQfVDUt1AYe1DEstAUcMDV+GAo7pG770BTDnyGwjkhLGEmtlAT8oWuYVBXDxxZUX6KXQQ0FE2pZxbQGxSSGOLU8Aw/OMyoOZYCaAEaWaZVZNAPGqxKjilnIjy6RRTsAZxpZJYwFn6VkG9QScaWqZMxXAgZ6DPO7hNWN9x1+vAi6Qy1TEap4LL1zoJUOVkqcjj4u1MzMYXOHJMK7Q7VgmdMi7w1WeBpYBA7bQ4UrVDMzQF6sCrtRMfT+l0BRAxj259YjGuGGp1eAdJG6mndpI4iHXwrihUmCpFJQE3FI/hb9fDbK4cXO51AXj1XndhXsop2oXqksSN+6kmqKTSkCTEfczScmLliFb5HFf5RQ8k+zw14X76yd8SiXPXRci8dFLcOrXqPchIBqzWkJ/wDr9mYAItRLYVqmzSgvRy/mJOqzkffqLeJBJkJAepBtwH4yHak1jH0BRmfLLhRhYeDFuQw78hYCYaM57hdidWPKF3pwpX8ROd+wVhrFosYyGBW9MAhEAAAD+tgeHBAAAAACC/r92gx0AAAAAAAAAAAAAAAAAAAAAAAAAAACAJ+bajzeCLzOLAAAAAElFTkSuQmCC;" vertex="1" parent="1">
          <mxGeometry x="1960" y="-498" width="238.87" height="298" as="geometry" />
        </mxCell>
        <mxCell id="zZAPOe-Mrj-PTgLpYuUe-91" value="" style="edgeStyle=orthogonalEdgeStyle;rounded=0;orthogonalLoop=1;jettySize=auto;html=1;fontFamily=Helvetica;fontSize=20;fontColor=default;" edge="1" parent="1" source="zZAPOe-Mrj-PTgLpYuUe-85" target="zZAPOe-Mrj-PTgLpYuUe-87">
          <mxGeometry relative="1" as="geometry">
            <Array as="points">
              <mxPoint x="2290" y="750" />
              <mxPoint x="2210" y="750" />
            </Array>
          </mxGeometry>
        </mxCell>
        <mxCell id="zZAPOe-Mrj-PTgLpYuUe-85" value="Numbers += UserInput[Position]" style="rounded=0;whiteSpace=wrap;html=1;shadow=0;strokeColor=default;align=center;verticalAlign=middle;fontFamily=Helvetica;fontSize=20;fontColor=default;fillColor=default;" vertex="1" parent="1">
          <mxGeometry x="2230" y="660" width="120" height="60" as="geometry" />
        </mxCell>
        <mxCell id="zZAPOe-Mrj-PTgLpYuUe-90" style="edgeStyle=orthogonalEdgeStyle;rounded=0;orthogonalLoop=1;jettySize=auto;html=1;exitX=0.5;exitY=1;exitDx=0;exitDy=0;entryX=0.5;entryY=0;entryDx=0;entryDy=0;fontFamily=Helvetica;fontSize=20;fontColor=default;" edge="1" parent="1" source="zZAPOe-Mrj-PTgLpYuUe-86" target="zZAPOe-Mrj-PTgLpYuUe-87">
          <mxGeometry relative="1" as="geometry">
            <Array as="points">
              <mxPoint x="2110" y="750" />
              <mxPoint x="2210" y="750" />
            </Array>
          </mxGeometry>
        </mxCell>
        <mxCell id="zZAPOe-Mrj-PTgLpYuUe-86" value="MoreDigits = False" style="rounded=0;whiteSpace=wrap;html=1;shadow=0;strokeColor=default;align=center;verticalAlign=middle;fontFamily=Helvetica;fontSize=20;fontColor=default;fillColor=default;" vertex="1" parent="1">
          <mxGeometry x="2050" y="610" width="120" height="60" as="geometry" />
        </mxCell>
        <mxCell id="zZAPOe-Mrj-PTgLpYuUe-95" value="" style="edgeStyle=orthogonalEdgeStyle;rounded=0;orthogonalLoop=1;jettySize=auto;html=1;fontFamily=Helvetica;fontSize=20;fontColor=default;" edge="1" parent="1" source="zZAPOe-Mrj-PTgLpYuUe-87" target="zZAPOe-Mrj-PTgLpYuUe-94">
          <mxGeometry relative="1" as="geometry" />
        </mxCell>
        <mxCell id="zZAPOe-Mrj-PTgLpYuUe-87" value="Position += 1" style="rounded=0;whiteSpace=wrap;html=1;shadow=0;strokeColor=default;align=center;verticalAlign=middle;fontFamily=Helvetica;fontSize=20;fontColor=default;fillColor=default;" vertex="1" parent="1">
          <mxGeometry x="2150" y="790" width="120" height="60" as="geometry" />
        </mxCell>
        <mxCell id="zZAPOe-Mrj-PTgLpYuUe-104" value="False" style="edgeStyle=orthogonalEdgeStyle;rounded=0;orthogonalLoop=1;jettySize=auto;html=1;exitX=0;exitY=0.5;exitDx=0;exitDy=0;entryX=0.5;entryY=0;entryDx=0;entryDy=0;fontFamily=Helvetica;fontSize=20;fontColor=default;" edge="1" parent="1" source="zZAPOe-Mrj-PTgLpYuUe-94" target="zZAPOe-Mrj-PTgLpYuUe-74">
          <mxGeometry x="-0.8909" relative="1" as="geometry">
            <Array as="points">
              <mxPoint x="2030" y="950" />
              <mxPoint x="2030" y="270" />
              <mxPoint x="2290" y="270" />
            </Array>
            <mxPoint as="offset" />
          </mxGeometry>
        </mxCell>
        <mxCell id="zZAPOe-Mrj-PTgLpYuUe-105" value="True" style="edgeStyle=orthogonalEdgeStyle;rounded=0;orthogonalLoop=1;jettySize=auto;html=1;fontFamily=Helvetica;fontSize=20;fontColor=default;" edge="1" parent="1" source="zZAPOe-Mrj-PTgLpYuUe-94" target="zZAPOe-Mrj-PTgLpYuUe-98">
          <mxGeometry relative="1" as="geometry" />
        </mxCell>
        <mxCell id="zZAPOe-Mrj-PTgLpYuUe-94" value="&lt;font style=&quot;font-size: 20px;&quot;&gt;Position&amp;nbsp;&lt;/font&gt;&lt;span style=&quot;font-size: 20px; background-color: transparent; color: light-dark(rgb(0, 0, 0), rgb(255, 255, 255));&quot;&gt;==&lt;/span&gt;&lt;div&gt;&lt;font style=&quot;font-size: 20px;&quot;&gt;len(UserInput)&lt;/font&gt;&lt;/div&gt;" style="rhombus;whiteSpace=wrap;html=1;rounded=0;strokeColor=default;align=center;verticalAlign=middle;fontFamily=Helvetica;fontSize=10;fontColor=default;fillColor=default;" vertex="1" parent="1">
          <mxGeometry x="2150" y="890" width="120" height="120" as="geometry" />
        </mxCell>
        <mxCell id="zZAPOe-Mrj-PTgLpYuUe-107" style="edgeStyle=orthogonalEdgeStyle;rounded=0;orthogonalLoop=1;jettySize=auto;html=1;exitX=0.5;exitY=1;exitDx=0;exitDy=0;entryX=0.5;entryY=0;entryDx=0;entryDy=0;fontFamily=Helvetica;fontSize=20;fontColor=default;" edge="1" parent="1" source="zZAPOe-Mrj-PTgLpYuUe-98" target="zZAPOe-Mrj-PTgLpYuUe-74">
          <mxGeometry relative="1" as="geometry">
            <Array as="points">
              <mxPoint x="2210" y="1200" />
              <mxPoint x="2030" y="1200" />
              <mxPoint x="2030" y="270" />
              <mxPoint x="2290" y="270" />
            </Array>
          </mxGeometry>
        </mxCell>
        <mxCell id="zZAPOe-Mrj-PTgLpYuUe-98" value="MoreDigits = False" style="rounded=0;whiteSpace=wrap;html=1;shadow=0;strokeColor=default;align=center;verticalAlign=middle;fontFamily=Helvetica;fontSize=20;fontColor=default;fillColor=default;" vertex="1" parent="1">
          <mxGeometry x="2150" y="1080" width="120" height="60" as="geometry" />
        </mxCell>
        <mxCell id="zZAPOe-Mrj-PTgLpYuUe-108" value="UserInputInRPN = []" style="rounded=0;whiteSpace=wrap;html=1;shadow=0;strokeColor=default;align=center;verticalAlign=middle;fontFamily=Helvetica;fontSize=20;fontColor=default;fillColor=default;" vertex="1" parent="1">
          <mxGeometry x="1600" y="500" width="120" height="60" as="geometry" />
        </mxCell>
        <mxCell id="zZAPOe-Mrj-PTgLpYuUe-109" value="UserInputInRPN&lt;div&gt;.append&lt;span style=&quot;background-color: transparent; color: light-dark(rgb(0, 0, 0), rgb(255, 255, 255));&quot;&gt;(str(Operand))&lt;/span&gt;&lt;/div&gt;" style="rounded=0;whiteSpace=wrap;html=1;shadow=0;strokeColor=default;align=center;verticalAlign=middle;fontFamily=Helvetica;fontSize=14;fontColor=default;fillColor=default;" vertex="1" parent="1">
          <mxGeometry x="1600" y="590" width="120" height="60" as="geometry" />
        </mxCell>
        <mxCell id="zZAPOe-Mrj-PTgLpYuUe-112" value="Operators.append&lt;br&gt;(UserInput[Position-1])" style="rounded=0;shadow=0;strokeColor=default;align=center;verticalAlign=middle;fontFamily=Helvetica;fontSize=14;fontColor=default;fillColor=default;html=1;" vertex="1" parent="1">
          <mxGeometry x="1600" y="680" width="120" height="60" as="geometry" />
        </mxCell>
        <mxCell id="zZAPOe-Mrj-PTgLpYuUe-118" value="if UserInput is &quot;23+6&quot;&#xa;GetNumberFromUserInput returns 23, 3" style="whiteSpace=wrap;shape=mxgraph.basic.oval_callout;rounded=0;shadow=0;align=center;verticalAlign=middle;fontFamily=Helvetica;fontSize=16;fillColor=#e1d5e7;labelBorderColor=none;strokeColor=#9673a6;" vertex="1" parent="1">
          <mxGeometry x="1720" y="290" width="233.33" height="140" as="geometry" />
        </mxCell>
        <mxCell id="zZAPOe-Mrj-PTgLpYuUe-120" value="Position-1 evaluates &#xa;to 2 i.e. &#39;+&#39;" style="whiteSpace=wrap;shape=mxgraph.basic.oval_callout;rounded=0;shadow=0;strokeColor=#9673a6;align=center;verticalAlign=middle;fontFamily=Helvetica;fontSize=16;fillColor=#e1d5e7;" vertex="1" parent="1">
          <mxGeometry x="1730" y="618" width="170" height="102" as="geometry" />
        </mxCell>
        <mxCell id="zZAPOe-Mrj-PTgLpYuUe-125" value="&lt;div style=&quot;color: rgb(187, 194, 207); background-color: rgb(40, 44, 52); font-family: Consolas, &amp;quot;Courier New&amp;quot;, monospace; font-weight: normal; line-height: 19px; white-space: pre;&quot;&gt;&lt;div&gt;&lt;span style=&quot;color: #ecbe7b;&quot;&gt;def&lt;/span&gt;&lt;span style=&quot;color: #bbc2cf;&quot;&gt; &lt;/span&gt;&lt;span style=&quot;color: #c678dd;&quot;&gt;ConvertToRPN&lt;/span&gt;&lt;span style=&quot;color: #bbc2cf;&quot;&gt;(&lt;/span&gt;&lt;span style=&quot;color: #dcaeea;&quot;&gt;UserInput&lt;/span&gt;&lt;span style=&quot;color: #bbc2cf;&quot;&gt;):&lt;/span&gt;&lt;/div&gt;&lt;div&gt;&lt;span style=&quot;color: #bbc2cf;&quot;&gt;&amp;nbsp; &amp;nbsp; &lt;/span&gt;&lt;span style=&quot;color: #bbc2cf;&quot;&gt;Position&lt;/span&gt;&lt;span style=&quot;color: #bbc2cf;&quot;&gt; &lt;/span&gt;&lt;span style=&quot;color: #51afef;&quot;&gt;=&lt;/span&gt;&lt;span style=&quot;color: #bbc2cf;&quot;&gt; &lt;/span&gt;&lt;span style=&quot;color: #da8548;&quot;&gt;0&lt;/span&gt;&lt;/div&gt;&lt;div&gt;&lt;span style=&quot;color: #bbc2cf;&quot;&gt;&amp;nbsp; &amp;nbsp; &lt;/span&gt;&lt;span style=&quot;color: #bbc2cf;&quot;&gt;Precedence&lt;/span&gt;&lt;span style=&quot;color: #bbc2cf;&quot;&gt; &lt;/span&gt;&lt;span style=&quot;color: #51afef;&quot;&gt;=&lt;/span&gt;&lt;span style=&quot;color: #bbc2cf;&quot;&gt; {&lt;/span&gt;&lt;span style=&quot;color: #98be65;&quot;&gt;&quot;+&quot;&lt;/span&gt;&lt;span style=&quot;color: #bbc2cf;&quot;&gt;: &lt;/span&gt;&lt;span style=&quot;color: #da8548;&quot;&gt;2&lt;/span&gt;&lt;span style=&quot;color: #bbc2cf;&quot;&gt;, &lt;/span&gt;&lt;span style=&quot;color: #98be65;&quot;&gt;&quot;-&quot;&lt;/span&gt;&lt;span style=&quot;color: #bbc2cf;&quot;&gt;: &lt;/span&gt;&lt;span style=&quot;color: #da8548;&quot;&gt;2&lt;/span&gt;&lt;span style=&quot;color: #bbc2cf;&quot;&gt;, &lt;/span&gt;&lt;span style=&quot;color: #98be65;&quot;&gt;&quot;*&quot;&lt;/span&gt;&lt;span style=&quot;color: #bbc2cf;&quot;&gt;: &lt;/span&gt;&lt;span style=&quot;color: #da8548;&quot;&gt;4&lt;/span&gt;&lt;span style=&quot;color: #bbc2cf;&quot;&gt;, &lt;/span&gt;&lt;span style=&quot;color: #98be65;&quot;&gt;&quot;/&quot;&lt;/span&gt;&lt;span style=&quot;color: #bbc2cf;&quot;&gt;: &lt;/span&gt;&lt;span style=&quot;color: #da8548;&quot;&gt;4&lt;/span&gt;&lt;span style=&quot;color: #bbc2cf;&quot;&gt;}&lt;/span&gt;&lt;/div&gt;&lt;div&gt;&lt;span style=&quot;color: #bbc2cf;&quot;&gt;&amp;nbsp; &amp;nbsp; &lt;/span&gt;&lt;span style=&quot;color: #bbc2cf;&quot;&gt;Operators&lt;/span&gt;&lt;span style=&quot;color: #bbc2cf;&quot;&gt; &lt;/span&gt;&lt;span style=&quot;color: #51afef;&quot;&gt;=&lt;/span&gt;&lt;span style=&quot;color: #bbc2cf;&quot;&gt; []&lt;/span&gt;&lt;/div&gt;&lt;div&gt;&lt;span style=&quot;color: #bbc2cf;&quot;&gt;&amp;nbsp; &amp;nbsp; &lt;/span&gt;&lt;span style=&quot;color: #bbc2cf;&quot;&gt;Operand&lt;/span&gt;&lt;span style=&quot;color: #bbc2cf;&quot;&gt;, &lt;/span&gt;&lt;span style=&quot;color: #bbc2cf;&quot;&gt;Position&lt;/span&gt;&lt;span style=&quot;color: #bbc2cf;&quot;&gt; &lt;/span&gt;&lt;span style=&quot;color: #51afef;&quot;&gt;=&lt;/span&gt;&lt;span style=&quot;color: #bbc2cf;&quot;&gt; &lt;/span&gt;&lt;span style=&quot;color: #c678dd;&quot;&gt;GetNumberFromUserInput&lt;/span&gt;&lt;span style=&quot;color: #bbc2cf;&quot;&gt;(&lt;/span&gt;&lt;span style=&quot;color: #dcaeea;&quot;&gt;UserInput&lt;/span&gt;&lt;span style=&quot;color: #bbc2cf;&quot;&gt;,&lt;/span&gt;&lt;span style=&quot;color: #c678dd;&quot;&gt; &lt;/span&gt;&lt;span style=&quot;color: #bbc2cf;&quot;&gt;Position&lt;/span&gt;&lt;span style=&quot;color: #bbc2cf;&quot;&gt;)&lt;/span&gt;&lt;/div&gt;&lt;div&gt;&lt;span style=&quot;color: #bbc2cf;&quot;&gt;&amp;nbsp; &amp;nbsp; &lt;/span&gt;&lt;span style=&quot;color: #bbc2cf;&quot;&gt;UserInputInRPN&lt;/span&gt;&lt;span style=&quot;color: #bbc2cf;&quot;&gt; &lt;/span&gt;&lt;span style=&quot;color: #51afef;&quot;&gt;=&lt;/span&gt;&lt;span style=&quot;color: #bbc2cf;&quot;&gt; []&lt;/span&gt;&lt;/div&gt;&lt;div&gt;&lt;span style=&quot;color: #bbc2cf;&quot;&gt;&amp;nbsp; &amp;nbsp; &lt;/span&gt;&lt;span style=&quot;color: #bbc2cf;&quot;&gt;UserInputInRPN&lt;/span&gt;&lt;span style=&quot;color: #bbc2cf;&quot;&gt;.&lt;/span&gt;&lt;span style=&quot;color: #c678dd;&quot;&gt;append&lt;/span&gt;&lt;span style=&quot;color: #bbc2cf;&quot;&gt;(&lt;/span&gt;&lt;span style=&quot;color: #ecbe7b;&quot;&gt;str&lt;/span&gt;&lt;span style=&quot;color: #bbc2cf;&quot;&gt;(&lt;/span&gt;&lt;span style=&quot;color: #bbc2cf;&quot;&gt;Operand&lt;/span&gt;&lt;span style=&quot;color: #bbc2cf;&quot;&gt;))&lt;/span&gt;&lt;/div&gt;&lt;div&gt;&lt;span style=&quot;color: #bbc2cf;&quot;&gt;&amp;nbsp; &amp;nbsp; &lt;/span&gt;&lt;span style=&quot;color: #bbc2cf;&quot;&gt;Operators&lt;/span&gt;&lt;span style=&quot;color: #bbc2cf;&quot;&gt;.&lt;/span&gt;&lt;span style=&quot;color: #c678dd;&quot;&gt;append&lt;/span&gt;&lt;span style=&quot;color: #bbc2cf;&quot;&gt;(&lt;/span&gt;&lt;span style=&quot;color: #dcaeea;&quot;&gt;UserInput&lt;/span&gt;&lt;span style=&quot;color: #bbc2cf;&quot;&gt;[&lt;/span&gt;&lt;span style=&quot;color: #bbc2cf;&quot;&gt;Position&lt;/span&gt;&lt;span style=&quot;color: #c678dd;&quot;&gt; &lt;/span&gt;&lt;span style=&quot;color: #51afef;&quot;&gt;-&lt;/span&gt;&lt;span style=&quot;color: #c678dd;&quot;&gt; &lt;/span&gt;&lt;span style=&quot;color: #da8548;&quot;&gt;1&lt;/span&gt;&lt;span style=&quot;color: #bbc2cf;&quot;&gt;])&lt;/span&gt;&lt;/div&gt;&lt;div&gt;&lt;span style=&quot;color: #bbc2cf;&quot;&gt;&amp;nbsp; &amp;nbsp; &lt;/span&gt;&lt;span style=&quot;color: #51afef;&quot;&gt;while&lt;/span&gt;&lt;span style=&quot;color: #bbc2cf;&quot;&gt; &lt;/span&gt;&lt;span style=&quot;color: #bbc2cf;&quot;&gt;Position&lt;/span&gt;&lt;span style=&quot;color: #bbc2cf;&quot;&gt; &lt;/span&gt;&lt;span style=&quot;color: #51afef;&quot;&gt;&amp;lt;&lt;/span&gt;&lt;span style=&quot;color: #bbc2cf;&quot;&gt; &lt;/span&gt;&lt;span style=&quot;color: #c678dd;&quot;&gt;len&lt;/span&gt;&lt;span style=&quot;color: #bbc2cf;&quot;&gt;(&lt;/span&gt;&lt;span style=&quot;color: #dcaeea;&quot;&gt;UserInput&lt;/span&gt;&lt;span style=&quot;color: #bbc2cf;&quot;&gt;):&lt;/span&gt;&lt;/div&gt;&lt;div&gt;&lt;span style=&quot;color: #bbc2cf;&quot;&gt;&amp;nbsp; &amp;nbsp; &amp;nbsp; &amp;nbsp; &lt;/span&gt;&lt;span style=&quot;color: #bbc2cf;&quot;&gt;Operand&lt;/span&gt;&lt;span style=&quot;color: #bbc2cf;&quot;&gt;, &lt;/span&gt;&lt;span style=&quot;color: #bbc2cf;&quot;&gt;Position&lt;/span&gt;&lt;span style=&quot;color: #bbc2cf;&quot;&gt; &lt;/span&gt;&lt;span style=&quot;color: #51afef;&quot;&gt;=&lt;/span&gt;&lt;span style=&quot;color: #bbc2cf;&quot;&gt; &lt;/span&gt;&lt;span style=&quot;color: #c678dd;&quot;&gt;GetNumberFromUserInput&lt;/span&gt;&lt;span style=&quot;color: #bbc2cf;&quot;&gt;(&lt;/span&gt;&lt;span style=&quot;color: #dcaeea;&quot;&gt;UserInput&lt;/span&gt;&lt;span style=&quot;color: #bbc2cf;&quot;&gt;,&lt;/span&gt;&lt;span style=&quot;color: #c678dd;&quot;&gt; &lt;/span&gt;&lt;span style=&quot;color: #bbc2cf;&quot;&gt;Position&lt;/span&gt;&lt;span style=&quot;color: #bbc2cf;&quot;&gt;)&lt;/span&gt;&lt;/div&gt;&lt;div&gt;&lt;span style=&quot;color: #bbc2cf;&quot;&gt;&amp;nbsp; &amp;nbsp; &amp;nbsp; &amp;nbsp; &lt;/span&gt;&lt;span style=&quot;color: #bbc2cf;&quot;&gt;UserInputInRPN&lt;/span&gt;&lt;span style=&quot;color: #bbc2cf;&quot;&gt;.&lt;/span&gt;&lt;span style=&quot;color: #c678dd;&quot;&gt;append&lt;/span&gt;&lt;span style=&quot;color: #bbc2cf;&quot;&gt;(&lt;/span&gt;&lt;span style=&quot;color: #ecbe7b;&quot;&gt;str&lt;/span&gt;&lt;span style=&quot;color: #bbc2cf;&quot;&gt;(&lt;/span&gt;&lt;span style=&quot;color: #bbc2cf;&quot;&gt;Operand&lt;/span&gt;&lt;span style=&quot;color: #bbc2cf;&quot;&gt;))&lt;/span&gt;&lt;/div&gt;&lt;div&gt;&lt;span style=&quot;color: #bbc2cf;&quot;&gt;&amp;nbsp; &amp;nbsp; &amp;nbsp; &amp;nbsp; &lt;/span&gt;&lt;span style=&quot;color: #51afef;&quot;&gt;if&lt;/span&gt;&lt;span style=&quot;color: #bbc2cf;&quot;&gt; &lt;/span&gt;&lt;span style=&quot;color: #bbc2cf;&quot;&gt;Position&lt;/span&gt;&lt;span style=&quot;color: #bbc2cf;&quot;&gt; &lt;/span&gt;&lt;span style=&quot;color: #51afef;&quot;&gt;&amp;lt;&lt;/span&gt;&lt;span style=&quot;color: #bbc2cf;&quot;&gt; &lt;/span&gt;&lt;span style=&quot;color: #c678dd;&quot;&gt;len&lt;/span&gt;&lt;span style=&quot;color: #bbc2cf;&quot;&gt;(&lt;/span&gt;&lt;span style=&quot;color: #dcaeea;&quot;&gt;UserInput&lt;/span&gt;&lt;span style=&quot;color: #bbc2cf;&quot;&gt;):&lt;/span&gt;&lt;/div&gt;&lt;div&gt;&lt;span style=&quot;color: #bbc2cf;&quot;&gt;&amp;nbsp; &amp;nbsp; &amp;nbsp; &amp;nbsp; &amp;nbsp; &amp;nbsp; &lt;/span&gt;&lt;span style=&quot;color: #bbc2cf;&quot;&gt;CurrentOperator&lt;/span&gt;&lt;span style=&quot;color: #bbc2cf;&quot;&gt; &lt;/span&gt;&lt;span style=&quot;color: #51afef;&quot;&gt;=&lt;/span&gt;&lt;span style=&quot;color: #bbc2cf;&quot;&gt; &lt;/span&gt;&lt;span style=&quot;color: #dcaeea;&quot;&gt;UserInput&lt;/span&gt;&lt;span style=&quot;color: #bbc2cf;&quot;&gt;[&lt;/span&gt;&lt;span style=&quot;color: #bbc2cf;&quot;&gt;Position&lt;/span&gt;&lt;span style=&quot;color: #bbc2cf;&quot;&gt; &lt;/span&gt;&lt;span style=&quot;color: #51afef;&quot;&gt;-&lt;/span&gt;&lt;span style=&quot;color: #bbc2cf;&quot;&gt; &lt;/span&gt;&lt;span style=&quot;color: #da8548;&quot;&gt;1&lt;/span&gt;&lt;span style=&quot;color: #bbc2cf;&quot;&gt;]&lt;/span&gt;&lt;/div&gt;&lt;div&gt;&lt;span style=&quot;color: #bbc2cf;&quot;&gt;&amp;nbsp; &amp;nbsp; &amp;nbsp; &amp;nbsp; &amp;nbsp; &amp;nbsp; &lt;/span&gt;&lt;span style=&quot;color: #51afef;&quot;&gt;while&lt;/span&gt;&lt;span style=&quot;color: #bbc2cf;&quot;&gt; &lt;/span&gt;&lt;span style=&quot;color: #c678dd;&quot;&gt;len&lt;/span&gt;&lt;span style=&quot;color: #bbc2cf;&quot;&gt;(&lt;/span&gt;&lt;span style=&quot;color: #bbc2cf;&quot;&gt;Operators&lt;/span&gt;&lt;span style=&quot;color: #bbc2cf;&quot;&gt;) &lt;/span&gt;&lt;span style=&quot;color: #51afef;&quot;&gt;&amp;gt;&lt;/span&gt;&lt;span style=&quot;color: #bbc2cf;&quot;&gt; &lt;/span&gt;&lt;span style=&quot;color: #da8548;&quot;&gt;0&lt;/span&gt;&lt;span style=&quot;color: #bbc2cf;&quot;&gt; &lt;/span&gt;&lt;span style=&quot;color: #51afef;&quot;&gt;and&lt;/span&gt;&lt;span style=&quot;color: #bbc2cf;&quot;&gt; &lt;/span&gt;&lt;span style=&quot;color: #bbc2cf;&quot;&gt;Precedence&lt;/span&gt;&lt;span style=&quot;color: #bbc2cf;&quot;&gt;[&lt;/span&gt;&lt;span style=&quot;color: #bbc2cf;&quot;&gt;Operators&lt;/span&gt;&lt;span style=&quot;color: #bbc2cf;&quot;&gt;[&lt;/span&gt;&lt;span style=&quot;color: #51afef;&quot;&gt;-&lt;/span&gt;&lt;span style=&quot;color: #da8548;&quot;&gt;1&lt;/span&gt;&lt;span style=&quot;color: #bbc2cf;&quot;&gt;]] &lt;/span&gt;&lt;span style=&quot;color: #51afef;&quot;&gt;&amp;gt;&lt;/span&gt;&lt;span style=&quot;color: #bbc2cf;&quot;&gt; &lt;/span&gt;&lt;span style=&quot;color: #bbc2cf;&quot;&gt;Precedence&lt;/span&gt;&lt;span style=&quot;color: #bbc2cf;&quot;&gt;[&lt;/span&gt;&lt;span style=&quot;color: #bbc2cf;&quot;&gt;CurrentOperator&lt;/span&gt;&lt;span style=&quot;color: #bbc2cf;&quot;&gt;]:&lt;/span&gt;&lt;/div&gt;&lt;div&gt;&lt;span style=&quot;color: #bbc2cf;&quot;&gt;&amp;nbsp; &amp;nbsp; &amp;nbsp; &amp;nbsp; &amp;nbsp; &amp;nbsp; &amp;nbsp; &amp;nbsp; &lt;/span&gt;&lt;span style=&quot;color: #bbc2cf;&quot;&gt;UserInputInRPN&lt;/span&gt;&lt;span style=&quot;color: #bbc2cf;&quot;&gt;.&lt;/span&gt;&lt;span style=&quot;color: #c678dd;&quot;&gt;append&lt;/span&gt;&lt;span style=&quot;color: #bbc2cf;&quot;&gt;(&lt;/span&gt;&lt;span style=&quot;color: #bbc2cf;&quot;&gt;Operators&lt;/span&gt;&lt;span style=&quot;color: #bbc2cf;&quot;&gt;[&lt;/span&gt;&lt;span style=&quot;color: #51afef;&quot;&gt;-&lt;/span&gt;&lt;span style=&quot;color: #da8548;&quot;&gt;1&lt;/span&gt;&lt;span style=&quot;color: #bbc2cf;&quot;&gt;])&lt;/span&gt;&lt;/div&gt;&lt;div&gt;&lt;span style=&quot;color: #bbc2cf;&quot;&gt;&amp;nbsp; &amp;nbsp; &amp;nbsp; &amp;nbsp; &amp;nbsp; &amp;nbsp; &amp;nbsp; &amp;nbsp; &lt;/span&gt;&lt;span style=&quot;color: #bbc2cf;&quot;&gt;Operators&lt;/span&gt;&lt;span style=&quot;color: #bbc2cf;&quot;&gt;.&lt;/span&gt;&lt;span style=&quot;color: #c678dd;&quot;&gt;pop&lt;/span&gt;&lt;span style=&quot;color: #bbc2cf;&quot;&gt;() &amp;nbsp; &amp;nbsp; &amp;nbsp; &amp;nbsp; &amp;nbsp; &amp;nbsp; &amp;nbsp; &amp;nbsp;&lt;/span&gt;&lt;/div&gt;&lt;div&gt;&lt;span style=&quot;color: #bbc2cf;&quot;&gt;&amp;nbsp; &amp;nbsp; &amp;nbsp; &amp;nbsp; &amp;nbsp; &amp;nbsp; &lt;/span&gt;&lt;span style=&quot;color: #51afef;&quot;&gt;if&lt;/span&gt;&lt;span style=&quot;color: #bbc2cf;&quot;&gt; &lt;/span&gt;&lt;span style=&quot;color: #c678dd;&quot;&gt;len&lt;/span&gt;&lt;span style=&quot;color: #bbc2cf;&quot;&gt;(&lt;/span&gt;&lt;span style=&quot;color: #bbc2cf;&quot;&gt;Operators&lt;/span&gt;&lt;span style=&quot;color: #bbc2cf;&quot;&gt;) &lt;/span&gt;&lt;span style=&quot;color: #51afef;&quot;&gt;&amp;gt;&lt;/span&gt;&lt;span style=&quot;color: #bbc2cf;&quot;&gt; &lt;/span&gt;&lt;span style=&quot;color: #da8548;&quot;&gt;0&lt;/span&gt;&lt;span style=&quot;color: #bbc2cf;&quot;&gt; &lt;/span&gt;&lt;span style=&quot;color: #51afef;&quot;&gt;and&lt;/span&gt;&lt;span style=&quot;color: #bbc2cf;&quot;&gt; &lt;/span&gt;&lt;span style=&quot;color: #bbc2cf;&quot;&gt;Precedence&lt;/span&gt;&lt;span style=&quot;color: #bbc2cf;&quot;&gt;[&lt;/span&gt;&lt;span style=&quot;color: #bbc2cf;&quot;&gt;Operators&lt;/span&gt;&lt;span style=&quot;color: #bbc2cf;&quot;&gt;[&lt;/span&gt;&lt;span style=&quot;color: #51afef;&quot;&gt;-&lt;/span&gt;&lt;span style=&quot;color: #da8548;&quot;&gt;1&lt;/span&gt;&lt;span style=&quot;color: #bbc2cf;&quot;&gt;]] &lt;/span&gt;&lt;span style=&quot;color: #51afef;&quot;&gt;==&lt;/span&gt;&lt;span style=&quot;color: #bbc2cf;&quot;&gt; &lt;/span&gt;&lt;span style=&quot;color: #bbc2cf;&quot;&gt;Precedence&lt;/span&gt;&lt;span style=&quot;color: #bbc2cf;&quot;&gt;[&lt;/span&gt;&lt;span style=&quot;color: #bbc2cf;&quot;&gt;CurrentOperator&lt;/span&gt;&lt;span style=&quot;color: #bbc2cf;&quot;&gt;]:&lt;/span&gt;&lt;/div&gt;&lt;div&gt;&lt;span style=&quot;color: #bbc2cf;&quot;&gt;&amp;nbsp; &amp;nbsp; &amp;nbsp; &amp;nbsp; &amp;nbsp; &amp;nbsp; &amp;nbsp; &amp;nbsp; &lt;/span&gt;&lt;span style=&quot;color: #bbc2cf;&quot;&gt;UserInputInRPN&lt;/span&gt;&lt;span style=&quot;color: #bbc2cf;&quot;&gt;.&lt;/span&gt;&lt;span style=&quot;color: #c678dd;&quot;&gt;append&lt;/span&gt;&lt;span style=&quot;color: #bbc2cf;&quot;&gt;(&lt;/span&gt;&lt;span style=&quot;color: #bbc2cf;&quot;&gt;Operators&lt;/span&gt;&lt;span style=&quot;color: #bbc2cf;&quot;&gt;[&lt;/span&gt;&lt;span style=&quot;color: #51afef;&quot;&gt;-&lt;/span&gt;&lt;span style=&quot;color: #da8548;&quot;&gt;1&lt;/span&gt;&lt;span style=&quot;color: #bbc2cf;&quot;&gt;])&lt;/span&gt;&lt;/div&gt;&lt;div&gt;&lt;span style=&quot;color: #bbc2cf;&quot;&gt;&amp;nbsp; &amp;nbsp; &amp;nbsp; &amp;nbsp; &amp;nbsp; &amp;nbsp; &amp;nbsp; &amp;nbsp; &lt;/span&gt;&lt;span style=&quot;color: #bbc2cf;&quot;&gt;Operators&lt;/span&gt;&lt;span style=&quot;color: #bbc2cf;&quot;&gt;.&lt;/span&gt;&lt;span style=&quot;color: #c678dd;&quot;&gt;pop&lt;/span&gt;&lt;span style=&quot;color: #bbc2cf;&quot;&gt;() &amp;nbsp; &amp;nbsp;&lt;/span&gt;&lt;/div&gt;&lt;div&gt;&lt;span style=&quot;color: #bbc2cf;&quot;&gt;&amp;nbsp; &amp;nbsp; &amp;nbsp; &amp;nbsp; &amp;nbsp; &amp;nbsp; &lt;/span&gt;&lt;span style=&quot;color: #bbc2cf;&quot;&gt;Operators&lt;/span&gt;&lt;span style=&quot;color: #bbc2cf;&quot;&gt;.&lt;/span&gt;&lt;span style=&quot;color: #c678dd;&quot;&gt;append&lt;/span&gt;&lt;span style=&quot;color: #bbc2cf;&quot;&gt;(&lt;/span&gt;&lt;span style=&quot;color: #bbc2cf;&quot;&gt;CurrentOperator&lt;/span&gt;&lt;span style=&quot;color: #bbc2cf;&quot;&gt;)&lt;/span&gt;&lt;/div&gt;&lt;div&gt;&lt;span style=&quot;color: #bbc2cf;&quot;&gt;&amp;nbsp; &amp;nbsp; &amp;nbsp; &amp;nbsp; &lt;/span&gt;&lt;span style=&quot;color: #51afef;&quot;&gt;else&lt;/span&gt;&lt;span style=&quot;color: #bbc2cf;&quot;&gt;:&lt;/span&gt;&lt;/div&gt;&lt;div&gt;&lt;span style=&quot;color: #bbc2cf;&quot;&gt;&amp;nbsp; &amp;nbsp; &amp;nbsp; &amp;nbsp; &amp;nbsp; &amp;nbsp; &lt;/span&gt;&lt;span style=&quot;color: #51afef;&quot;&gt;while&lt;/span&gt;&lt;span style=&quot;color: #bbc2cf;&quot;&gt; &lt;/span&gt;&lt;span style=&quot;color: #c678dd;&quot;&gt;len&lt;/span&gt;&lt;span style=&quot;color: #bbc2cf;&quot;&gt;(&lt;/span&gt;&lt;span style=&quot;color: #bbc2cf;&quot;&gt;Operators&lt;/span&gt;&lt;span style=&quot;color: #bbc2cf;&quot;&gt;) &lt;/span&gt;&lt;span style=&quot;color: #51afef;&quot;&gt;&amp;gt;&lt;/span&gt;&lt;span style=&quot;color: #bbc2cf;&quot;&gt; &lt;/span&gt;&lt;span style=&quot;color: #da8548;&quot;&gt;0&lt;/span&gt;&lt;span style=&quot;color: #bbc2cf;&quot;&gt;:&lt;/span&gt;&lt;/div&gt;&lt;div&gt;&lt;span style=&quot;color: #bbc2cf;&quot;&gt;&amp;nbsp; &amp;nbsp; &amp;nbsp; &amp;nbsp; &amp;nbsp; &amp;nbsp; &amp;nbsp; &amp;nbsp; &lt;/span&gt;&lt;span style=&quot;color: #bbc2cf;&quot;&gt;UserInputInRPN&lt;/span&gt;&lt;span style=&quot;color: #bbc2cf;&quot;&gt;.&lt;/span&gt;&lt;span style=&quot;color: #c678dd;&quot;&gt;append&lt;/span&gt;&lt;span style=&quot;color: #bbc2cf;&quot;&gt;(&lt;/span&gt;&lt;span style=&quot;color: #bbc2cf;&quot;&gt;Operators&lt;/span&gt;&lt;span style=&quot;color: #bbc2cf;&quot;&gt;[&lt;/span&gt;&lt;span style=&quot;color: #51afef;&quot;&gt;-&lt;/span&gt;&lt;span style=&quot;color: #da8548;&quot;&gt;1&lt;/span&gt;&lt;span style=&quot;color: #bbc2cf;&quot;&gt;])&lt;/span&gt;&lt;/div&gt;&lt;div&gt;&lt;span style=&quot;color: #bbc2cf;&quot;&gt;&amp;nbsp; &amp;nbsp; &amp;nbsp; &amp;nbsp; &amp;nbsp; &amp;nbsp; &amp;nbsp; &amp;nbsp; &lt;/span&gt;&lt;span style=&quot;color: #bbc2cf;&quot;&gt;Operators&lt;/span&gt;&lt;span style=&quot;color: #bbc2cf;&quot;&gt;.&lt;/span&gt;&lt;span style=&quot;color: #c678dd;&quot;&gt;pop&lt;/span&gt;&lt;span style=&quot;color: #bbc2cf;&quot;&gt;()&lt;/span&gt;&lt;/div&gt;&lt;div&gt;&lt;span style=&quot;color: #bbc2cf;&quot;&gt;&amp;nbsp; &amp;nbsp; &lt;/span&gt;&lt;span style=&quot;color: #51afef;&quot;&gt;return&lt;/span&gt;&lt;span style=&quot;color: #bbc2cf;&quot;&gt; &lt;/span&gt;&lt;span style=&quot;color: #bbc2cf;&quot;&gt;UserInputInRPN&lt;/span&gt;&lt;/div&gt;&lt;/div&gt;" style="text;whiteSpace=wrap;html=1;fontFamily=Helvetica;fontSize=10;fontColor=default;" vertex="1" parent="1">
          <mxGeometry x="980" y="200" width="540" height="490" as="geometry" />
        </mxCell>
        <mxCell id="zZAPOe-Mrj-PTgLpYuUe-129" value="" style="edgeStyle=orthogonalEdgeStyle;rounded=0;orthogonalLoop=1;jettySize=auto;html=1;fontFamily=Helvetica;fontSize=20;fontColor=default;" edge="1" parent="1" source="zZAPOe-Mrj-PTgLpYuUe-126" target="zZAPOe-Mrj-PTgLpYuUe-128">
          <mxGeometry relative="1" as="geometry" />
        </mxCell>
        <mxCell id="zZAPOe-Mrj-PTgLpYuUe-126" value="Position&lt;div&gt;&lt;span style=&quot;background-color: transparent; color: light-dark(rgb(0, 0, 0), rgb(255, 255, 255));&quot;&gt;&amp;lt;&lt;/span&gt;&lt;/div&gt;&lt;div&gt;&lt;span style=&quot;background-color: transparent; color: light-dark(rgb(0, 0, 0), rgb(255, 255, 255));&quot;&gt;len(UserInput)&lt;/span&gt;&lt;br&gt;&lt;/div&gt;&lt;div&gt;&lt;span style=&quot;background-color: transparent; color: light-dark(rgb(0, 0, 0), rgb(255, 255, 255));&quot;&gt;&lt;br&gt;&lt;/span&gt;&lt;/div&gt;" style="rhombus;whiteSpace=wrap;html=1;rounded=0;shadow=0;strokeColor=default;align=center;verticalAlign=middle;fontFamily=Helvetica;fontSize=20;fontColor=default;fillColor=default;aspect=fixed;" vertex="1" parent="1">
          <mxGeometry x="1580" y="780" width="160" height="160" as="geometry" />
        </mxCell>
        <mxCell id="zZAPOe-Mrj-PTgLpYuUe-127" value="GetNumber&lt;div&gt;From&lt;span style=&quot;background-color: transparent; color: light-dark(rgb(0, 0, 0), rgb(255, 255, 255));&quot;&gt;UserInput&lt;/span&gt;&lt;/div&gt;" style="shape=process;whiteSpace=wrap;html=1;backgroundOutline=1;rounded=0;strokeColor=#6c8ebf;align=center;verticalAlign=middle;fontFamily=Helvetica;fontSize=20;fillColor=#99CCFF;gradientColor=#33FF33;" vertex="1" parent="1">
          <mxGeometry x="1600" y="980" width="120" height="60" as="geometry" />
        </mxCell>
        <mxCell id="zZAPOe-Mrj-PTgLpYuUe-128" value="return UserInputInRPN" style="whiteSpace=wrap;html=1;fontSize=20;rounded=0;shadow=0;" vertex="1" parent="1">
          <mxGeometry x="1360" y="830" width="120" height="60" as="geometry" />
        </mxCell>
        <mxCell id="zZAPOe-Mrj-PTgLpYuUe-130" value="UserInputInRPN&lt;div&gt;.append&lt;span style=&quot;background-color: transparent; color: light-dark(rgb(0, 0, 0), rgb(255, 255, 255));&quot;&gt;(str(Operand))&lt;/span&gt;&lt;/div&gt;" style="rounded=0;whiteSpace=wrap;html=1;shadow=0;strokeColor=default;align=center;verticalAlign=middle;fontFamily=Helvetica;fontSize=14;fontColor=default;fillColor=default;" vertex="1" parent="1">
          <mxGeometry x="1600" y="1080" width="120" height="60" as="geometry" />
        </mxCell>
        <mxCell id="zZAPOe-Mrj-PTgLpYuUe-134" value="False" style="edgeStyle=orthogonalEdgeStyle;rounded=0;orthogonalLoop=1;jettySize=auto;html=1;fontFamily=Helvetica;fontSize=20;fontColor=default;" edge="1" parent="1" source="zZAPOe-Mrj-PTgLpYuUe-131" target="zZAPOe-Mrj-PTgLpYuUe-133">
          <mxGeometry relative="1" as="geometry" />
        </mxCell>
        <mxCell id="zZAPOe-Mrj-PTgLpYuUe-135" value="True" style="edgeStyle=orthogonalEdgeStyle;rounded=0;orthogonalLoop=1;jettySize=auto;html=1;fontFamily=Helvetica;fontSize=20;fontColor=default;" edge="1" parent="1" source="zZAPOe-Mrj-PTgLpYuUe-131" target="zZAPOe-Mrj-PTgLpYuUe-132">
          <mxGeometry relative="1" as="geometry" />
        </mxCell>
        <mxCell id="zZAPOe-Mrj-PTgLpYuUe-131" value="Position&lt;div&gt;&lt;span style=&quot;background-color: transparent; color: light-dark(rgb(0, 0, 0), rgb(255, 255, 255));&quot;&gt;&amp;lt;&lt;/span&gt;&lt;/div&gt;&lt;div&gt;&lt;span style=&quot;background-color: transparent; color: light-dark(rgb(0, 0, 0), rgb(255, 255, 255));&quot;&gt;len(UserInput)&lt;/span&gt;&lt;br&gt;&lt;/div&gt;&lt;div&gt;&lt;span style=&quot;background-color: transparent; color: light-dark(rgb(0, 0, 0), rgb(255, 255, 255));&quot;&gt;&lt;br&gt;&lt;/span&gt;&lt;/div&gt;" style="rhombus;whiteSpace=wrap;html=1;rounded=0;shadow=0;strokeColor=default;align=center;verticalAlign=middle;fontFamily=Helvetica;fontSize=20;fontColor=default;fillColor=default;aspect=fixed;" vertex="1" parent="1">
          <mxGeometry x="1580" y="1180" width="160" height="160" as="geometry" />
        </mxCell>
        <mxCell id="zZAPOe-Mrj-PTgLpYuUe-132" value="&lt;font style=&quot;font-size: 15px;&quot;&gt;CurrentOperator&lt;/font&gt;&lt;font style=&quot;background-color: transparent; color: light-dark(rgb(0, 0, 0), rgb(255, 255, 255)); font-size: 15px;&quot;&gt;=&lt;/font&gt;&lt;div&gt;&lt;font style=&quot;background-color: transparent; color: light-dark(rgb(0, 0, 0), rgb(255, 255, 255)); font-size: 15px;&quot;&gt;UserInput&lt;/font&gt;&lt;span style=&quot;background-color: transparent; color: light-dark(rgb(0, 0, 0), rgb(255, 255, 255)); font-size: 15px;&quot;&gt;[Position-1]&lt;/span&gt;&lt;/div&gt;" style="rounded=0;html=1;shadow=0;strokeColor=default;align=center;verticalAlign=middle;fontFamily=Helvetica;fontSize=20;fontColor=default;fillColor=default;" vertex="1" parent="1">
          <mxGeometry x="1600" y="1400" width="120" height="60" as="geometry" />
        </mxCell>
        <mxCell id="zZAPOe-Mrj-PTgLpYuUe-133" value="&lt;div&gt;&lt;span style=&quot;background-color: transparent; color: light-dark(rgb(0, 0, 0), rgb(255, 255, 255));&quot;&gt;&lt;br&gt;&lt;/span&gt;&lt;/div&gt;&lt;div&gt;&lt;span style=&quot;background-color: transparent; color: light-dark(rgb(0, 0, 0), rgb(255, 255, 255));&quot;&gt;&lt;br&gt;&lt;/span&gt;&lt;/div&gt;&lt;div&gt;&lt;span style=&quot;background-color: transparent; color: light-dark(rgb(0, 0, 0), rgb(255, 255, 255));&quot;&gt;len(Operators)&lt;/span&gt;&lt;/div&gt;&lt;div&gt;&lt;span style=&quot;background-color: transparent; color: light-dark(rgb(0, 0, 0), rgb(255, 255, 255));&quot;&gt;&amp;gt;&lt;/span&gt;&lt;/div&gt;&lt;div&gt;&lt;span style=&quot;background-color: transparent; color: light-dark(rgb(0, 0, 0), rgb(255, 255, 255));&quot;&gt;0&lt;/span&gt;&lt;/div&gt;" style="rhombus;whiteSpace=wrap;html=1;rounded=0;shadow=0;strokeColor=default;align=center;verticalAlign=middle;fontFamily=Helvetica;fontSize=20;fontColor=default;fillColor=default;aspect=fixed;" vertex="1" parent="1">
          <mxGeometry x="1820" y="1180" width="160" height="160" as="geometry" />
        </mxCell>
        <mxCell id="zZAPOe-Mrj-PTgLpYuUe-136" value="&lt;div&gt;&lt;span style=&quot;background-color: transparent; color: light-dark(rgb(0, 0, 0), rgb(255, 255, 255));&quot;&gt;len()&lt;/span&gt;&lt;/div&gt;" style="rhombus;whiteSpace=wrap;html=1;rounded=0;shadow=0;strokeColor=default;align=center;verticalAlign=middle;fontFamily=Helvetica;fontSize=20;fontColor=default;fillColor=default;aspect=fixed;" vertex="1" parent="1">
          <mxGeometry x="1580" y="1520" width="160" height="160" as="geometry" />
        </mxCell>
        <mxCell id="zZAPOe-Mrj-PTgLpYuUe-137" value="" style="shape=image;aspect=fixed;image=data:image/png,iVBORw0KGgoAAAANSUhEUgAAB38AAAQ3CAYAAAD4wqSCAAAAAXNSR0IArs4c6QAAAARnQU1BAACxjwv8YQUAAAAJcEhZcwAADsMAAA7DAcdvqGQAAMqRSURBVHhe7P1/mN1lfSf+P88XhBgQObFQA2pgmEBDNhZlic1s99NQKJgAK3wW+HzY2kRZmzBKS7Ku1VXp+jFotZZmqNIxqYtN6pZuSAsumAhCodt2UqGx1BRTyHggKkRB5kSFiArX+f4xP3LyZvJj5syvnPN4XNfxYl7v932fk/flfc+c8zz3/S719fXVAgAAAAAAAMBh7f9XLAAAAAAAAABw+BH+AgAAAAAAADQB4S8AAAAAAABAExD+AgAAAAAAADQB4S8AAAAAAABAEyj19fXVikUAAABgrD2Tr9zwgdzy9R/lpYHKWe/ekA8uLJy2Xy9vnyQ5693ZcOidAAAA0MSEvwAAAIe9x7P+2vfnrqeL9f0QFr7cAx/PlX/8cLG6Hyfm4k9+JktOLdYP5uXhrfAXAACAsWTbZwAAAJgQJ+TXPvw/cuuGT+biE4vHDsVg+w3ZsGFDPjm6TgAAAGhiwl8AAIAmcta7+4PBDZ+8OP3R4Fl5t7Dw0J14cT45cL3efdZg6ZP913TDuzNQAgAAgClJ+AsAANDCnrnrg/n1K6/MlUOPj+eBJC8+uzXrf/c38+tXXplfX7oin/77Z/PiUKsf5NH//SdZ9f53511Xvz1XDbb99aV59/s/nXt2/nSf59jXi3l264bcsOLqvP2qve1W3LAhWytfyn//9V/Pf/virkNq8+73fzr/+xv1r2syNHItkp8982A23LAiV7/9qhG1G6kXn9267/Nc+etZ+u7359P/+xt5dnIvIAAAAGNI+AsAAHDYOyFtr5+eHDEzs2YVj+11QtvrMz1HZOaBTkryUu9f5vr3fjJ3/esP8rMkP/vxU/nbm96b7n8aPKOSv/7iX2fb49/PD5/76d77z/7sx/n+43+bz33gfVnfO1yi+IM88MnlufaTG/P1p57LTwcb/uzHeerrG/PJD6zL9p/9LN985NG9TV58Kl/66PBtvv/43+YLH7k213Z9NT/Y22J0Zs3KzCOS6a9vywnFY0NmZVb/SWkbOmm016LfI7f9QTZ+/ak8N/gPG2z3vmX5b3/ZOwbB9ot56ksfzfJrP7nv8+Rn+fH3H8/ffuEjufbarny14QsIAADAVFDq6+urFYsAAAAc5h5fn2vff1eezll594YPZmHxeNHQ+dMzffqe7PnJjJz9zt/Jtb/6mvR+7nfzib89Ipfe8If5f04tNtzrxef/JV/44MeyaddLOeLs386t7//lfY4//j+vywe/uCsvHfGqtC9anmv/45tz0jFHDjR+KF3v+lR69iQ5693Z8MGFSV7MQ13vyqd69iRHzMjZV70nv3HenJx0zJF58fmn8rW//HT++K5vZk+OyOlLP5sbLnr1Ps/XqAc+fmX++OH+bZ8/s+QA//BhHPhaPJ71174/dz3d/9P00y7Ou1f8v5n/80flxecr+evP/H4+v7UvL2V6zv7tz+T9v3xsXdu9Hl9/bd5/19N11+vlXnyoK+/6VE/25IjMOPuqvOc3zsuck47JkS8+n6e+9pf59B/flW/uSY44fWk+e8NFGdsrCAAAwESz8hcAAIA6e/KTaR257jOfyfsvaMsxR746v3jNTbn1fx44+E2SI4/5N/mVs1+TJHnp+9/LM/UHX/xq/urLu/JSjsjpb//DfHzJ/L3Bb5IceU7etuh1eUVekdPmntFfe+7ufLFnT5LpecuKP8r7/8O8oTZHHnNS5i/5vdy0fF6Ozkt57Isb8q97e5t0B7wW9U5cnA+vWpL5P39UkuTIY9pywfs/meVnTU+yJ1u/ePf+2x7Uc7n7iz3Zk2T6W1bkj97/HzLvpGNyZJIceUxOmr8kv3fT8sw7OnnpsS9mw1S6gAAAAIyK8BcAAIA6c/POP1qRf/eaumB2OD/dmXv+5PqsqL/P7VVvz0fuebb/+I+fz3P153/70Tz+kyQ5M+deOPz60lP/nz/M/9zwP/N7b5vZX3j4X/LNJMmefPXGt9fdl3jv4zfXbMtPkmT3v2Trt/fpbuKM9FrUOX3R5Wl/2aV+dRb+h1/KcUmy89E8Ujx8yB7Ov/RfwOz56o15+zDX78rfXJNt/Rcw/zJpFxAAAICxIvwFAACgzityVP8i1P16sfcv89+WvS+f+8qjear+Prcv/TQ/Hrqn7P4ckSNeFnaOhZfyUuM3yB2xxq5FMv2Y4bd0zjHTM61YG2cvTcYFBAAAYEwJfwEAABiBXfmr7v+Vb+5Jpp/2a7n2hj/JFzZsyIYNG7LhC3+SD/zqzxUb9Dv2mLwySfJE/vVfDjFkPKM9r0uSnJjFH//z/ufY7+MzGeFtecfAKK9Fne1bv5rhrsaur23Ls0ly3IwcvJf9OSPt/RcwJy7+eP78Zdds38dI72sMAADA1CP8BQAAYAS+mcefSpKjc9q//w/5pdNfnaPy0/zgW9vylb/4dP7H336/2KDfCRfmorOOTrI7f/0H1+dP/s9jefb5vbHni88/m289uD6/+5u/nqv+c3f+KUlOeFuu7Jie5Ols+u+/k8/Ut/npD/LMYw/mtj+5PiuW/nqufMcn83f721t53IzyWtT5yVf/KL/zmf+TSt2/67F7Ppn/b+POvJQjMmvR2/Jvio0O2Ql525UdmZ7k6U3/Pb/zmf+Tx559fiBs/ml+8MxjefC2P8n1K5bm1698Rz458RcQAACAMVbq6+urFYsAAAAchp75Sj76vj/Jv+wpHkiOeNW5+Z3/0Zk37VP9p3T/59/P/T/a3/bEr8gJF304Ny+dU1d7MQ99enn+8G9/tHeL4/06IjMu/N189j8PtP/BP+ezv/uJ/PWuA7c8Yubb8vGbfj2nJsmLvfnL62/I//rmMP+oekecll//o9/L204oHhiZ7f/jmnz07r5h/m2vSPuSrnz84vonGOm1+O38x12fyy1fP7TzX3X28vzh+xdm8A7J+39t+5r+b34zn/rdX0v/K30xvX95fW74X9/Mga/gETnt1/8ov9foBQQAAGBSWfkLAADACByZc36rO5941/ycdOxROSJJ8oq88riT8saLr821F5xYbLDXq38x19z4mXzk7f8+p/7csTmqv3GS5Iijjs1xJ52RX3v7R/KZGweC3yQ5sj3/8ffW5lPXXpw3nlTf5ogcdexx+blT5+XXrviv+cTnVjUc/I5cA9diwLx3fCLv+venpjz4DzviqBx70htz8bWfSHdd8Dt6R6b9P/5e1n7q2lz8xpNybN1FP+KoY3Pcz52aeb92Rf7rJz6XVRN/AQEAABhjVv4CAAAAAAAAHIb+/M//PEnyn/7Tf0qs/AUAAAAAAAA4PP3gBz/ID37wg6Gfhb8AAAAAAAAATUD4CwAAAAAAANAEhL8AAAAAAAAATUD4CwAAAAAAANAEhL8AAAAAAAAATUD4CwAAAAAAANAEhL8AAAAAAAAATUD4CwAAAAAAANAEhL8AAAAAAAAATUD4CwAAAAAAANAEhL8AAAAAAAAATUD4CwAAAAAAANAEhL8AAAAAAAAATUD4CwAAAAAAANAESn19fbViMUmq1WqxBAAAAAAAAMAUUC6X093dnSTp7OxMDhb+fuc9jxTLDRn2icZZI89Z33bWzXOz8xCvx2ifc7Ttmt4YXJgx6GLEGnnO0bYdbbs00Hai26WBtqNt14iRPOfcP56bR959CPPMSDqd4hr5p0xG29G2GzcHeEEHODRCpWJhv0b7nPXt3vzZM/O1a75RVzmIUT7pKJslDbQdbbtGTMZzNmK0r7c29D8TZ4KfLmngOTvWnpm/XzaCcVVntM850e0ON5P175ys550Yw/++2rPnhSTJ4i+8KZve/rXi4STJcccdlzRwfQ6pXe2QzjpkY9vboRntc4623Vg76qij9/6wnxe1n/K4G+3zjrbdkFF0MIomSQPt0kDbQ2q3n5P2Uz6o0bYbL+d/5g2599pvFctJg6+1kbZT2hT4h432JYy2XYptR9DRCE4dM6N9ztp+/k4YT6N/raPXSNuXOcTODvG0MXWg57ys+/W5vfPbxfKQA7WdaibjtY72OUfbbjKM+rXWGmg7CQ6n15oGXu9o2zWikbd2o216oHa/seb1w4a/tn0GAADgMDf82+Hp06cVS/sYDH7HTa3W2KcDHNBRRx19yA8AAIBWIfwFAACgCUyRkHUw8BX6jlgxsD3YAwAAgJcT/gIAANByxnTVr8B3v4qB7YEeAAAANE74CwAAQFOoDbP6d+/Wz2N7v79arZZaCwa+xcD2YA8AAAAmlvAXAACApjFcAFzUyKrfodC3iRQD2wM9AAAAmNqEvwAAADSVQwmAR2Iw8D1cQt+jjj56/w+BLgAAQFMT/gIAANB0Gg2Ap1rg+7IQ9wAPAAAAWpfwl+Z35tx03DI3rz7U+kicOTcdX/7VnH7mYGFGTr+l/udROHNufvmWuTm+WAf278y5Of/uS/K2ocevZt5oxuGZc/Nrn5+bGZmVBZ+fmxn71OBwtCubH7okV9078Ni+tXjCONiazz30xXy3WIbDzq7c84+X5J33DTz+dSLGz6HYla/84yVZ92yxznCGC4APtOXzRAa+xcD2YA8O0fMb89G/35jv7e/nRjy/Mat6xqivJMlX8/nB/p7fmBsO1PfzG3PDl87NO+oe79z21aFjH/vSuXnn0OPa3PP8YH3gv5MkT+aenvqfgcPfk/nrfzg37/ly/+PWZ4rHx9tX8xdf3Zi9T/tk7v/qufmtuwcejwzMU+Oq+BoARuK4nP/5X8kH7h543DBz76Ez27P88+05ue7na/60Pa87sz3X3PMr+W8ve8zP+RcVj83P+WfWtR1JX6P5bBMGCH9pXd94JD1XP5IfFOsjdkzecNWsYhGYaE9V8rcX3pkvXnhnvnjT82l73ygC2288kq+885H0nXlsji3W9j0TDgO7svmhZdny82tz6/l35tbz78z785HxD4D3fCffKtbgsLMr9/zjsjz082vz+fPuzOfPuzMr85EpFAAzEsMFwEVjFfgWA9sDPSDPfzvfKdYOpPyefPKi+/OnF92fP73oE1n4rT/bG+QOHPv8Rffn8/NPza3/vDFPJ0keya2ViQhfgIn3ZP76H96er732C7n5rffn5rd+Itl6be7fUzxvHO35dp4a+uHJ3P/Vt+efXvuFfPrC+/PpC+9PZz4w/gHwnm9nV7EGcEiOy/mff1NO++o/5RMX/k0+ceHf5Ms5fd8AeDjf6M1nL/ib/N4Ff5M/u/3Hqd7+T/m9C/4mv3fBg7n38SRPPZk/Gzj+e10/zjm/Uxf6Fh2or28UT4ZDJ/yldQ2u/D1zbjpWvSVv+vIlOf/Ll+T8VXVB7uK39NeK9XpPVfKtnPby1b5nzs2/G1rBOyNn3PKrOePMwfpb8qZbLsmvffmS/LtrZuWMof8ejKqOTdstl+SCL1+SCwqv54IvF+pnzs0v3/KWvPmWS3Lhl9+y/18k0EqeeC6Dn4PNuOZXh1YEnz80xmZk3ucvyaV39z9+bbB+5tz82ufPzjnva8sxJ7Xl//r83MyoW/k745pfzWV3X5LL7r4kF9S1ueCGt6RjoH7ZDfuZK2Ci7XkwW/KuvPsNe9+0nDXnIznvyX/Iw0my54v53YduzucGVwbXh8LP3vzy1cL7nH9zHk7y3W+9r3Dermx+5HPZ8YPPZeXA6t/6c373WwMfy7ysr/4Vyv/p3v7Hfx88DybLjx/MQ3lXfvP1e8fPG3/hI1n45D/k60ny4y/mY/94c9YNrgyuD4Wfvfnlq4X3Of/mbEvy9Lffl6vvu6T/UX/ev96cdcV6/fn/+Fd1H7IyUvWrfg9llW8xsD3Yg6nuydz99+dmyZf6Hx99/Mm9h565MUu/dG7/o25F7aqeG/P5nnOz9Es39o//wfq2G/P5A55frA+u6n0yd/dcm7uffzJ3//PN6a3enPfXr/h9fmNu2HZj/nRwhe9gHy/zlrzpDY9k13Ahz/RZaR/87/J7clXqQmKgeezZkq/lPVl6yuCatLfk/P/rN/JvkmTPxvzBPwyuhn0y9//DQCi8Z2P+4B9uzK3/cG7e8+Ub88iejblx4Odrv3xjvpEk378x1959bv9jMLjdszE3PnJjbt2n/mTu33ZzHt99cz761Y15Zs+W/FPek9+YNbRGLmfO/UT+3Xf+rr/fPRvzh1+9MX8xuDK4PhT+/o0vXy28z/n9r+2Zndfmt+8+t/8x8BoeGHgNqwZW/9afs3rnwDy/Z2NWf/XG/K+vLsx1A30B5MwTc1qezF2f/eFQ6eEPP5bKOT+Xs/Y5sQFP/DjVYg0mgPAXkuSc5Om33pl73/r1PHvOa/u3cjhzbjoufy4PvfXO3PvWO7M9b8ybFhcb9vverd/Lz41k9e9Jx2TPH9yZr/yXSnLpacngf8+f2R8Wn3RisvHO3PPWv8+3Tn5j3rx4IOS9/Lk8+NY7c89b78w3MlCv6+/ut351ZN8ch2Z1yrE5Jv3j5s2XPZ9/vvDOfPHCr+e5y87q3w568eyc9uTXc8eFd+aOC7+e5y6bnVOGGr+Qb36qkuefquT/1K/4PXNu/u1lz+efLrwztw/09cbBL32ckzw1UP/eOa+t6wsm0Y+/kx3Hvi6v3ad4Uk5+9RN7Pyj+wRM5ee6dufX8tVny3EfyuWcHgtnK67K6brXw5wa3lx06/z05a88X88ff++WB8wZD5ZlZNPddmf3qd2X1OW/La/d8MX/82Cl5/8A5b3jsD7P5Zc/9npz17F9l/bEfyZ+ff2f+/PyP5PWP/VV/QA2TZc930nvs63LiPsWTMvPVT+S7Px748QdPZObcO/P589bmquc+0r8N84+/mI89/rp8sm618ND2zEPnvyfzfvzF/Mn3fjmfOO/O3HLeR/IrT/5Dtg0+zZPJm4v1H38xf/LYKVl53p25Ze7r8p3Gt65pSa985dGp1Wp5xVFH5RVHHfWy4Ha4B03m6b/I/3zVJ7L+ovuz/qJP5PXf+Iv+QPf5jfnojln5/Yvuz7qL7s9784F8fnD/0OrjOekX78+6i96bN9b39a3k7Ivuz7qLPpGF3/q7vcHw0PlfyH/6UV0/L3NyLvzF96S9/J58suPy/Hz9oW8lbx5a3VvX9z6+mn/61tzMnF6sJ9mzM711P57VtjAPWf0Lzef5nam86vU5oa50wvS35ITh5oV6ux/Pa994f25+63szt+7nz7z1vTlzz8bc+M1Z+e8X3p/PXHh/3p0P5NbvD7T7TvKLF96fz1w4GOienHPnvSenHv+e/O5bLs8Je3bm8WP3fT3J6/Lzxz+e7w2+B9j9eH5+3v359IVfyP/93AfyF98fCHm/OSu/W7da+C8Gn3Po/P7X9oXvLsz1F96fP7rwE+kYeA0LB17D9W+5PCfs2Zgv/OupuWbgnJn/+nt5YOi5K/n5eQ/kpgvfm+L6DaBFnfLKlJ98PnVfB0zyfPqeemV+bqwmilNemXKxBhNA+AtJ8tRzeS5J8qM8/9QxOebM/vBo+kltOWdg5e+cc5JXvmE/m8h+45HsHG717/489b18b/BrhvX/PeTpPL0pSfry3Qefz/Q3zBh6PfMHVv6eeU766+nv47sv6wNazElt+feD9/y97phUPvVI+k45Nsc89N08kSTZme8+dEyOOWVgZfA5b+xf+XtDsuXCrw6ccwCFvp566JgcO5jyPvVc+r8j+KM899QxOe5Q5wKYbK/+5bxpepLMzJt+/hfyred39YfGP/hcVg6s1v3kk+mv73N+kulvy0fnJn987yW56t6P5L7UhcqDfvyd7Dj5lwa+MXt2/u3J/5onB4Oz+r5e+brMfvIj/St/tyfvOv89Y/ctWxgvr/7lnPXKJJmZs37+F/KdPbv6Q+MffC7vH1j5u/rJ9Nf3OT/JK9+WD81N/uS+S3L1fR/J36QuVH716wZCoJNy0kDY/PT3/y45/f/OvIG2/2HvghoGHHXU0ft9vOIVRyVJXvOanxPotrpjZqX9Wx/oX/m7LXnnYKC7Z2d6qzfndwZW8t74reQ7zw18DFhemLOOKfSTJOVZA2P1dTmp/Hh2DW2/PHj+yTlr5ty9/YxEoe/vDvZdvTnvH7rn7wfynTP/Wy4YfG0Dx975pXPzzgcfz1W/ePneL7Acc3kusfoXGHT8wvyb+oC4/uc9O/P47pvz/w2s8P3j7yRPPT8wjx0/ayDYfV1eWx/ojsTQc52cf/Pauf19DzznRwdW/nbv85x1r2365Vk5L/nC3efmt+/+QHryeJ4uvoY9O/P46355INx9S974ukfy3cFzjj933383wHg56eT8xuC9e1e8Mg/9fq8FW0w44S8cyENfz70DK3/vfeud6fns/u/6+eSt38vPXbW/+wG8KtNPKtZG4aGv556Blb/3vPXO/N0BXg+0nPp7/l7419l2oC9EfOORfOXCO3PHyspQCLxgPyv74bD1ytdl9nPfyXf3KT6VJ39wyvCrhOqd/JGh+wTfev6d+Wjd1tFDnr05V/V8J//34Mrf4vGRmP62fPT8O/PnHe8aCoGHVhvDZJj+urQ/952B+2UOeiq7fnBKXjsY4O7PyR8Zuk/w58+7Mx+q2zp6yLM35+qe7+Q/DK7wLR7nZQHuwR7DOdiWzrSgYy7P7158f9YvfM9QCDy0MvcNn8i6gZW/6y66P9efOl7fsvhOnhrt3n9D9/z9RBZmbs45se411t/z96LP7A2FB7yxbWEeqmzZtwgc3o6ZlbYffXtga+cD+U6+u7tYO4DXfSKfGVj5+5kL789767ZxPqDps3Lqc8XX8518b/ep+fmDvf943SeG7hP86Qvvz38Z7jm/f2N++2935sLBlb/F4wAj9cSPUz35mP5dQIcckxkn/TjfP9DnigdTf89f9+5lkgh/YX+eeC57zhlczTsjp99yyX63fU4GV/+25Q31Ie9Jx+bYJDnz2Bzs79x9nZgTFyfJjLx2/jHZ862+odfzCwOv5xduuWTvts/A8J54Ls8PbcM8K6895/k8/0T/vXsvvWHWUAj88EPJsftb2T+o0NdJ5zyf5w66XBgm0fT5WZDP5Y/r7p/78PaP5L6hlbhJfvB3+ac9SbIr//S9f80bjpk5sAr3Lwa2Z+6/F+9+g9jBvp79h9xXPJbBFb0D9xjO1vzjk7+Qk4cJzr77rff13zN4+tvy/51/Z37n5OTbg6uNYTK8cn7OyefyJ9/e+//Dr//rR/LAyb+0d9vXH/xdHv5xkuzKw9/717xu+sz+0PjJv8g9A/V7/vGSvds+F538S/0reZ/9h/xN8VjBiT/3y8ljfzWwNfTWfG0UCwmngmJge6DHaB3sPr7Tjp5WLNFsjnl9Xl99IA8PrHL93tMPpPdVr8/PJ/ne49dmyde/2h8CX3R//usbkm8/92T/PXK/9We5+/kM3JO3LhQeqaHnfjIP73okrzt24OPE6s7++/o+/+0xWPnxlrxj4cI89EDdfYgP5pjLc0luzq2jDZ6BqWf6grw5N2fdE4N/GHw1t3753PzB4M+7d/Z/kW3Ptwtbmh7A9Fk59Tt/1n9/4DyZ+7967t5tnw9m+oK8KTfnzwbvs5vkG498IH8/tBI3ye4H8i8Dff/Ldx/JScecPOxzDm37XDTY1/f/Lj3FYxl8/QP3GM5X8/XvzM1rR/aBHNBKvvF0vpmTc/E1xw2Vzrrh9LQ99P3+zzG+8XyqJ83InIFJ7HW/MiPlJ58f3d9y33g+fSfNGPhsv8G+4BAIf2kNdds3n//lS3L+qkO4P+83HknPHz2fN/zhJTn/y/8ub3jy6/mnTcWT9vXkrZUM7TjzjUey86ETM+fLl+TX/uux2fPUvuce0FNPJ5dfkgsGnvdrm/r7+7uB17NPHdi/bzySr91+TH7x7kvytrvfmNzUvyK477N/nYczsO3z3ZfkrJMr2Vq/kv4bz+W5k9ryf31+boYi4W88kn+8/Zi86e5LctlAX1/3zT2mtJlZdM7aLPjeslw1uIVzPpJb55y995RXn5InH7kkV927LOuP/Uje9ZqBVbhvOiXrewr1otf8Us578iP9fT+dnJeBLZ2nvy5v+MHnsvKhL+a709+Wd5/+RD45sDV03vSpLBrmw5fXvuFTeX8Gtn2+95L8/nPvyruHW20ME2ZmLvi3a3PO95blnYNbOOcj+fwv7Dt+dj1ySd5537LceuxHsvQ1A9s5n3VKbu0p1Ite80v5lSc/kqvvuyRXP5P8Sv41TxW3Laz3yrflN09/IqvvuyRX3/cX+c6riydMjmJge7DHeDlY4EureUveOf/U/M/7z82Su87N+55amE+98S1Jkp8/9TP5rxnY9vlL5+YPfvSeLD/15P4weP6p+fMHzs3SL709f/6qT+Sd+9608tCVT81T/1zo55jL87Y33JUbv3Rulv7zzrxu8MZvx7w+r6venPf3bOwPhkfimMtzyRvuyuqejYVdCvbvjW3vSXuxCBzGTs6v/tInctK/vj3v+fK5ec+XP5Anf+EL+a+nnJxMvzyLXn9X/vjL5+Y9X9+Zk48vtt2P6ZfnvWefmr/823Nz7d1vz18e+4lc9XPFk+pMf31O2n1zPvrVjXkmJ+fct3whb/ru2/Nbg1s45xP59Nz+OThJcvyp+d62c/Nbd789f3XsJ/L//lz/c/6Xs0/NX/1toV70c7+cju98IL9997n57e8lHRnY0nn66zNz981Z9dWNeWb65Xn7Lzyezw5sDZ2zP5OFw7z/AOj3w9z7zn/KN9/ypnzg7l/JB+7+lbw1j+UTHx78EvCubLjpx/m3q38lH7jnV/Ibb+nLn31otF9U35UNXT/OOV3920E31hccXKmvr2/Yd8jVajXfec8jxXJDhn2icdbIc9a3nXXz3Ow8xOsx2uccbbumNwYXZgy6GLFGnnO0bUfbLg20neh2aaDtaNs1YiTPOfeP5+aRdx/CPDOSTqe4Rv4pk9F2tO3GzQFe0AEOjVCpWNiv0T5nfbs3f/bMfO2aEaTqo3zSUTZLGmg72naNOOBz7vlifveR5N3nvC2vLR6bJAd8vQdQG/qfiTPBT5c08Jwda8/M3y8bwbiqM9rnnOh2E+7HX8zHHkl+89++be89NUdgsv6dh/K8Rw8T0h5Ku4m2v6B3+Gryyze35+sfeDq1WvLCT14oHk4O0HYqaui1jrLxKJuNut242s+L2k/50D2/Mav+OVnWcfnAPXsPzWifd7Tthoyig1E0SRpolwbaHlK7/Zy0n/JBjbbdeDn/M2/Ivdd+q1hOGnytjbSd0qbAP2y0L2G07VJsO4KORnBqvz0b84fbkt94y+UD9w4euRE/54DaCN7XjpXRv9bRa6TtyxxiZ4d42pg60HNe1v363N757WJ5yIHaTjWT8VpH+5yjbTcZRv1aaw20nQSH02tNA693tO0asZ+3oodktE0P1O431rw+5XI53d3dSZLOzs7Eyl8AAIDmdfTRR/c/jjq0x1Q3mhW+xx23dxu32PoZAACAJif8BQBoRdPflo9OoVW/cFh55dvyoVGu+h0LQ4HuITyagW2dOWwcc3muH+GqX4CWMf3y/JcGVv0CAIdO+AsAADCJioHtwR6tYKwC3+KqXwAAAGh2wl8AAIAxVgxsD/RgQK229wEAAACMivAXAADgIIqB7cEejMA4Bb4HWvXrvr8AAAA0K+EvAADQkoqB7YEejDGrfAEAAGBcCH8BAICmUQxtD/Rggk1g4HugVb8AAADQzEp9fX3DvvOuVqvFEgAAAAAAAABTQLlcTnd3d5Kks7MzOVj429bWViy3rEql4noA48o8A8YBjAfjCowDoDWZ+4BWY94DWk2lUhk2/LXtMwAAAAAAAEATEP4CAAAAAAAANAHhLwAAAAAAAEATEP4CAAAAAAAANAHhLwAAAAAAAEATEP4CAAAAAAAANIFSX19frVhMkmq1mra2tmL5oH72o1p6rtudnXe+kNqLxaOHrnRkMuuSaem46fi84lWlpIG+h+trpCqVyqiuB8ChMs+AcQDjwbgC4wBoTeY+oNWY94BWU6lUUi6X093dnSTp7OxMxmPlb891u/PE7SMLZ4dTezF54vYX0nPd7qHaaPseri8AAAAAAACAZjLm4e/OO18olhpS31+jfTfaHgAAAAAAAGCqGvPwd6Srcg+mvr9G+260PQAAAAAAAMBUNebhLxxuNi8vpVQafCzP5r0H0tHVu+/JSXq7OoatF9X3u3yo0yTpTVdHR7p6D3ROvd50ddS9xv2fCDRi8/JDGI/A0Fjp+HA+PPD7yZgBAAAAgKlB+EuL682j2xZk9Y5aarVaarU1WTQY8N6RXLn9Uyl1dGUo6u3typKVW/btYjibl2fxttXZUaulVtuROav6w94kSe9d2ZArc/GO5VmcTQPPuylZXBc81+ntWpKV8wbP25HV2xb7kB3G3OYsX7ytfy7YsTrb9jMegQHLNqXWc0Nu6Kll07LiQQAAAABgskxS+HtU5m+dkdOLZZhovXdlw5Z5OaN933L7ip6sn7MtK3Npaj0r0n+4N11LNmTesgX7npyXrxLufXRbFlx58UC79lx8ZbLhrv7jvXdtSK68OO2L1qS2ZtFQm/1pX9FTd157Lr5yQbY9evCVx8AI9D6abQuuzMXtSdovzpULtsUwAwAAAADgcDNJ4S9METu2Z8uCbVlV3FK5tytLtl+fHXNWDYW6vV1LsuHK9XnfnH27GE77GfOyZcNdAyuGe3PXhr2rhXdsT668eG/a3NvVkVJpcbKpf9XxgW3Op1bOy/UrCmk10Jgd27Nl3hlDX9g4Y96WbN9RPAkAAAAAAKa2CQ5/p+f86swsrb4mc9qOzoLqzCytnpD584vnwQRZtCa19euzvta/7fOOOav6t1RuX5GeNYvSvqInPSva+8PgDVdmfTF0Hbzv4eK12bJy9t4AedGabJq3MrNLpZRKS7J93uBq4c25Y+2+K43bV/SkVqvl0jsOds/EzVleWpU5Ow4lJAYAAAAAAKDVTHD4uyf3lndlXfnZbK/8JFvKu7Ku/EwefLB43sidftvMLK3OzNKtx+XE4kE4kPb2gdV+/YbbUrn3rg3ZsqU/zJ29cku2rJzdvyJ40Zr+e/FuWpYFq3f0//fAFs2L1gzeR7gnl2ZL5p3Rnmy+I2uXXTpseDt7Tv92zpuXD6xCLqxE7iitypwdPSnmz8AYmD0nC7Y9OrRa/9FtCzJndvEkAAAAAACY2iY4/B0/j12xK+vKu7Lu7B/m6eJB2J/Ny/cGrAPmFW8AXLc6t1arZcfqBVmwekf/iuD9qe+3tyur1i7LpYuSzXeszbJLB6LfwnPv2N4fEO8NjQeC5N6udMzenutrgl8YN+1nZN6WDbmrd//3AgcAAAAAgKluksLfn+bBs/vyWLEME23RmmzK4qGVtkuyPgMLd0dm0Zp9w+D6fmevzLxNa7KouJqw8Nyr5uwY9rk3f2pltmRtFg+uBi6Vhu5DDIyVRVmzaV5Wzq4fswAAAAAAcHiZpPAXpo76lbYHXM07YOg+wAdR329/qNueFT37rt49lOfeZyXwQc4FGjC4jfvQmAUAAAAAgMOL8BcAgJFZuziljg/nwx2lLF5bPAgAAAAATJYxD39LRxYrjanvr9G+G20PANDyBlfJ99yQG3qslgcAAACAqWTMw99Zl0wrlhpS31+jfTfaHgAAAAAAAGCqGvPwt+Om43PKZdMaXmVbOjI55bJp6bjp+KHaaPseri8AAAAAAACAZlLq6+urFYtJUq1W09bWViy3rEql4noA48o8A8YBjAfjCowDoDWZ+4BWY94DWk2lUkm5XE53d3eSpLOzMxmPlb8AAAAAAAAATDzhLwAAAAAAAEATEP4CAAAAAAAANAHhLwAAAAAAAEATEP4CAAAAAAAANAHhLwAAAAAAAEATKPX19dWKxSSpVqvFEgAAAAAAAABTQLlcTnd3d5Kks7MzOVj4O6PUViy3rL5axfUAxpV5BowDGA/GFRgHQGsy9wGtxrwHtJq+WmXY8Ne2zwAAAAAAAABNQPgLAAAAAAAA0ASEvwAAAAAAAABNQPgLAAAAAAAA0ASEvwAAAAAAAABNQPgLAAAAAAAA0ARKfX19tWIxSarVamaU2orlg3rx+VoeXrU7T933QmovFY8eutIRyUnnTctZ1x+fI48pJQ30PVxfI9VXq4zqegAcKvMMGAcwHowrMA6A1mTuA1qNeQ9oNX21Ssrlcrq7u5MknZ2dyXis/H141e48ec/Iwtnh1F5KnrznhTy8avdQbbR9D9cXAAAAAAAAQDMZ8/D3qfteKJYaUt9fo3032h4AAAAAAABgqhrz8Hekq3IPpr6/RvtutD0AAAAAAADAVDXm4S9MGTu7csHlXakU64eocktHLrilt1geuVG/js1ZeYjt7v1QKeW2/sfKB4pHgYPrTffle8dR+UObiycAwKjU/51Wbluee4snAM3pgeX94/7yD+eGgb8zvVcDAAAmwiSFv0dl/tYZOb1YhqliZ1eu+eb1uefq9uKRkZu1IvdsXJG2Yv2gFmX1tdtzzcEC6AeW54pHV2drpZZqZUdO/0xHuncWTwIOpHLLknzwjE2pDoyjjz+62IdzAIyB3ux4dEE+fn9t4HfMmpxfPAVoXldtSnXjDfnwxlpuu6p4EAAAYHxMUvgLE2zwW9f1K/p2duWCDy3PymI9yb1rN+SyZYv2nje0Arc33ZcPhqv7rhQcWiW8sysXXL48Ky8fWN0x2H5/z7fP+YUVhwvfl8s2feqAK0QqlW05Z/HFA+Fyey5cnNx+30ECY2AfbVf3pPqxgTGf9ly4eEEeqRhHADRo5125/WvzMntW8QAAAADA+Jjg8Hd6zq/OzNLqazKn7egsqM7M0uoJmT+/eB6MoZ1dueAzcwZWxtZyW+pW9N2aXFSppVrZlHfcesdAyLo5X7r1ED6ke+BTdSsFN2XuDXUh7de25fQbh1ndMezz1Z9fXHHYngsXb8uXHigE2HVbPLe1zctDm+4aCqfv3rRlsDEwKpvz6Rvm5XfGYuU/AK3t8e156M3b8vvFL/8BAAAAjJMJDn/35N7yrqwrP5vtlZ9kS3lX1pWfyYMPFs8budNvm5ml1ZlZuvW4nFg8SGt7fHse+trKnD3wodsVt2bvir43zxlYMTs7p795W3bsTLLz0TwyVD+AU+fknFsXD3yQl6yuD3rffGUuHC48Hu75Un/+8CsOH6n0JgvXDATNex+rFyZZuCa3nTH471uSx85YsE9bYCQ2Z2Xbqpx+v205ARgDC9ekeuP6fHbgb7etp61yWwEAAABgXE1w+Dt+HrtiV9aVd2Xd2T/M08WDcNXgCt3+x+jv5bsjj31t4D9nrcg9lVqq968eCoHH9cO8/az8TZLzPzb4b+vJRdmSuW2j/fdBC9vZlQvaVuX0+3vSOdyXNwBgNGa17/OlwuKX/AAAAADG0iSFvz/Ng2f35bFiGcbDqXNyzq2r9rlP7wFD2llnZO7Xtg9sozxg8Oedj+aRgVLllo7+rfsGQuDbrmrgw7yvbcjdA6/v7k37hreVbw78vL+Vvw8s3+f+wb9/67JctHCoOXAodnblgnO353cqgl8AxlD932kDfEkPAAAAGE+TFP7CBJq1IvfcMi8fPLeUctvsfPCMTf2h6X4tykVX1W3JPGtFfueqtbmirZTye7dn7pv7y21X9+S2DGz73FbKFY+uzmdHu6L4zfPy2HuHe3292fHoQcLchWv2vo5zV2buLbarhZG6d+3KPJSBcT7wuOCWUX6ZAwAG1f+d1lbKNVl/kL9DAQAAABpT6uvrqxWLSVKtVjOjdNC7nr7MF9+8q1hq2Nu+NjMZo74H+xqpvlplVNeDw9TOrlyw9ozc87FFxSNjb2dXLnhv8tmNK15+n+EHlueCyvsa2Kaaw4l5BowDGA/GFRgHTIIHlqf8lUtTHXhPee+HSvnSrw3s3gQTxNwHtBrzHtBq+mqVlMvldHd3J0k6OzuT8Vj5WzqiWGlMfX+N9t1oe1rIrBX57GmrJnnl3+as/Myc0a8mBgAAYPLcujjlyz+cGy4v5YpbiwcBAADGx5iHvyedN61Yakh9f4323Wh7Wkvb1T0Ts+J21orcM9yq3yzK6mHrAAAATGkL16RaqaW68YZ8eGMt1YpVvwAAwMQY8/D3rOuPz8kXTGt4lW3piOTkC6blrOuPH6qNtu/h+gIAAAAAAABoJmN+z99m5X4BwHgzz4BxAOPBuALjAGhN5j6g1Zj3gFYzYff8BQAAAAAAAGDiCX8BAAAAAAAAmoDwFwAAAAAAAKAJCH8BAAAAAAAAmoDwFwAAAAAAAKAJCH8BAAAAAAAAmkCpr6+vViwmSbVaLZYAAAAAAAAAmALK5XK6u7uTJJ2dncnBwt+2trZiuWVVKhXXAxhX5hkwDmA8GFdgHACtydwHtBrzHtBqKpXKsOGvbZ8BAAAAAAAAmoDwFwAAAAAAAKAJCH8BAAAAAAAAmoDwFwAAAAAAAKAJCH8BAAAAAAAAmoDwFwAAAAAAAKAJlPr6+mrFYpJUq9W0tbUVywf1sx/V0nPd7uy884XUXiwePXSlI5NZl0xLx03H5xWvKiUN9D1cXyNVqVRGdT0ADpV5BowDGA/GFRgHQGsy9wGtxrwHtJpKpZJyuZzu7u4kSWdnZzIeK397rtudJ24fWTg7nNqLyRO3v5Ce63YP1Ubb93B9AQAAAAAAADSTMQ9/d975QrHUkPr+Gu270fYAAAAAAAAAU9WYh78jXZV7MPX9Ndp3o+0BAAAAAAAApqoxD38BAGgim5enVCql1NGV+7o60tHVO1Qf/O/ero50dN2Xro5SSqVSlm/etwsAaAl1vzN7k2xe3v97sf+xPJvT63clAAAw7oS/AAAc2LJNqfWsyKyBH3u7OtJxR3Ll9k+l1NGVnUmSWVnRU8umZfu0BIDWMvA7sz29eXTbgqzeUUutVkuttiaL0u53JQAAMO4mKfw9KvO3zsjpxTIAAFNW+xnzMu+M9rSv6Mn6OduyMpem1rMi5w3UAYABvXdlw5Z58esRAACYaJMU/gIAcNhZtCZrFiXp7cqS7ddnx5xV/Vs/D9YBgH47tmfLgm1ZNbjts32eAQCACTLB4e/0nF+dmaXV12RO29FZUJ2ZpdUTMn9+8TwAAKas9hXpWbMo7St60rPCkiYAeJlFa1Jbvz7ra/3bPu+Ys8p9fgEAgAkxweHvntxb3pV15WezvfKTbCnvyrryM3nwweJ5I3f6bTOztDozS7celxOLBwEAAAAmUnt76r8ite3R3rqfAAAAxscEh7/j57ErdmVdeVfWnf3DPF08CAAAADBRNi9/2VbP89wAGAAAmACTFP7+NA+e3ZfHimUAAACAw92iNdmUxf33+y2VsiTrs2ZR8SQAAICxN0nhLwAAAEDzWrSm/36/tVotPSus+gUAACaG8BcAgANbuziljq4c+E6FvenqKGXx2mIdAFrIAX9n+l0JAACMvzEPf0tHFiuNqe+v0b4bbQ8A0HIWrelftdSzIgdes9SeFT39q5tsawlASzro70y/KwEAgPE35uHvrEumFUsNqe+v0b4bbQ8AAAAAAAAwVY15+Ntx0/E55bJpDa+yLR2ZnHLZtHTcdPxQbbR9D9cXAAAAAAAAQDMp9fX11YrFJKlWq2lrayuWW1alUnE9gHFlngHjAMaDcQXGAdCazH1AqzHvAa2mUqmkXC6nu7s7SdLZ2ZmMx8pfAAAAAAAAACae8BcAAAAAAACgCQh/AQAAAAAAAJqA8BcAAAAAAACgCQh/AQAAAAAAAJqA8BcAAAAAAACgCZT6+vpqxWKSVKvVYgkAAAAAAACAKaBcLqe7uztJ0tnZmRws/J1RaiuWW1ZfreJ6AOPKPAPGAYwH4wqMA6A1mfuAVmPeA1pNX60ybPhr22cAAAAAAACAJiD8BQAAAAAAAGgCwl8AAAAAAACAJiD8BQAAAAAAAGgCwl8AAAAAAACAJiD8BQAAAAAAAGgCpb6+vlqxmCTVajUzSm3F8kG9+HwtD6/anafueyG1l4pHD13piOSk86blrOuPz5HHlJIG+h6ur5Hqq1VGdT0ADpV5BowDGA/GFRgHQGsy9wGtxrwHtJq+WiXlcjnd3d1Jks7OzmQ8Vv4+vGp3nrxnZOHscGovJU/e80IeXrV7qDbavofrCwAAAAAAAKCZjHn4+9R9LxRLDanvr9G+G20PAAAAAAAAMFWNefg70lW5B1PfX6N9N9oeAAAAAAAAYKoa8/AXAA5nlVs6csEtvcUyADTE7xdoQg8sT7mtlPLlXakkufdDpf6f20opty3PvcXz6+ydE3rTfXl/m5UPFM8CAAAYuUkKf4/K/K0zcnqxDACTaWdXrrlhS7EKAI3x+wWa11WbUt24Im3pzY5HF+Tj99dSrdRSrazJ+cVzB+0zJ7Snc2Mtt11VOAcAAGCUJin8BYCppjfd792QuVctKB4AgAb4/QItYedduf1r8zJ7VvFAkTkBaHIPLLfbCQBMsgkOf6fn/OrMLK2+JnPajs6C6swsrZ6Q+fOL5wHAxKrcsiS3L16f3zqteAQARs/vF2gRj2/PQ2/elt8f3Pb5Q5uLZyTmBAAAYAJMcPi7J/eWd2Vd+dlsr/wkW8q7sq78TB58sHjeyJ1+28wsrc7M0q3H5cTiQQA4kJ1duWbTlfns1e3FIwAwen6/QOtYuCbVG9fns5X+bZ+3nrbq5ffwNScAzWzwPuhXr81DN8w+4BdhAIDxNcHh7/h57IpdWVfelXVn/zBPFw8CwAFU7tuQh762Mme3lXL2DVvy0A2zbVMFQMP8foEWM6s9bXU/PlLZd7ybE4CmtnBN/z3Pb1mWcz68o/+/P7aoeBYAMAEmKfz9aR48uy+PFcsAMAnaru7pf2NaqWXrhxfknA/vyD1WZADQIL9foIU8sPxlK9zmtu073s0JAADARJik8BcAAACgSSxck9uyuH+b07ZSrsn6rF6YJJuzsm157i2eD9CsFq7xxRYAmGTCXwCo03Z1jzeqAIw5v1+g+Z3/sf5VvdVKrW68L8pFVxVONCcAAADjaMzD39IRxUpj6vtrtO9G2wMAAAAMuXVxypd3pVKsD+nNjtMuzfnF8pDedF9eyhW3FusAAACjM+bh70nnTSuWGlLfX6N9N9oeAAAAIOnf2rRaqaW6cUXaiseGtKfz6kXFYp32dG7sXy3cv000AABAY8Y8/D3r+uNz8gXTGl5lWzoiOfmCaTnr+uOHaqPte7i+AAAAAAAAAJpJqa+vr1YsJkm1Ws2M0v6/u9pq+moV1wMYV+YZMA5gPBhXYBwArcncB7Qa8x7QavpqlZTL5XR3dydJOjs7k/FY+QsAAAAAAADAxBP+AgAAAAAAADQB4S8AAAAAAABAExD+AgAAAAAAADQB4S8AAAAAAABAExD+AgAAAAAAADSBUl9fX61YTJJqtVosAQAAAAAAADAFlMvldHd3J0k6OzuTg4W/bW1txXLLqlQqrgcwrswzYBzAeDCuwDgAWpO5D2g15j2g1VQqlWHDX9s+AwAAAAAAADQB4S8AAAAAAABAExD+AgAAAAAAADQB4S8AAAAAAABAExD+AgAAAAAAADQB4S8AAAAAAABAEyj19fXVisUkqVaraWtrK5YP6mc/qqXnut3ZeecLqb1YPHroSkcmsy6Zlo6bjs8rXlVKGuh7uL5GqlKpjOp6ABwq8wwYBzAejCswDoDWZO4DWo15D2g1lUol5XI53d3dSZLOzs5kPFb+9ly3O0/cPrJwdji1F5Mnbn8hPdftHqqNtu/h+gIAAAAAAABoJmMe/u6884ViqSH1/TXad6PtAQAAAAAAAKaqMQ9/R7oq92Dq+2u070bbAwAAAAAAAExVYx7+AgAAADSdzctTKpVS6uhKb5LNy0v9P5dKKZWWZ3Px/Dq9XR3p6OotlvttXj5wrDddHf39LT9QZwAAAAcg/AUAAAA4FMs2pdazIu3pzaPbFmT1jlpqtVpqtTVZVDx3UG9XlqzcUqwmg6HwHcmV2z+VUsddubinlk3LimcBAAAcukkKf4/K/K0zcnqxDAAAADDV9d6VDVvm5Yz24oGi3nQt2ZB5yxYUDyRJ2lf0ZP2cbVmZSwdCZQAAgMZMUvgLAAAAcJjasT1bFmzLqsFtn/ezT3Nv15JsuHJ93jeneGRAb1eWbL8+O+as2v+20AAAACMwweHv9JxfnZml1ddkTtvRWVCdmaXVEzJ/fvE8AAAAgClq0ZrU1q/P+lr/ts875qx6+X16e7uyZMOVWb/iAOt521ekZ82itK/oSc+BzgMAADhEExz+7sm95V1ZV3422ys/yZbyrqwrP5MHHyyeN3Kn3zYzS6szs3TrcTmxeBAAAABgLLW377NN87ZH912523vXhmzZsjKzS6XMXrklW1bOtroXAAAYdxMc/o6fx67YlXXlXVl39g/zdPEgAAAAwFjZvPxlWz3PK9wAuH1FT2qDK4NXL8iC1Tus7gUAAMbdJIW/P82DZ/flsWIZAAAAYKpbtCabsrj/fr+lUpZkfdYsSpLNWV5anuIO0Ps6lHMAAABGZ5LCXwAAAIDD16I1/at6a7Va3YreRbl0WeHEgVXABzsHAABgLAh/AQAAAA7F2sUpdXRl/3fu7c2jcy7NomJ5H/s7pzddHaUsXlusAwAAHLoxD39LRxYrjanvr9G+G20PAAAAtKhFa/pX+vasyP7v3NueFSteHuvua3/ntGdFT/9K4v4tpAEAAEZuzMPfWZdMK5YaUt9fo3032h4AAAAAAABgqhrz8LfjpuNzymXTGl5lWzoyOeWyaem46fih2mj7Hq4vAAAAAAAAgGZS6uvrqxWLSVKtVtPW1lYst6xKpeJ6AOPKPAPGAYwH4wqMA6A1mfuAVmPeA1pNpVJJuVxOd3d3kqSzszMZj5W/AAAAAAAAAEw84S8AAAAAAABAExD+AgAAAAAAADQB4S8AAAAAAABAExD+AgAAAAAAADQB4S8AAAAAAABAEyj19fXVisUkqVarxRIAAAAAAAAAU0C5XE53d3eSpLOzMzlY+Duj1FYst6y+WsX1AMaVeQaMAxgPxhUYB0BrMvcBrca8B7Savlpl2PDXts8AAAAAAAAATUD4CwAAAAAAANAEhL8AAAAAAAAATUD4CwAAAAAAANAEhL8AAAAAAAAATUD4CwAAAAAAANAESn19fbViMUmq1WpmlNqK5YN68flaHl61O0/d90JqLxWPHrrSEclJ503LWdcfnyOPKSUN9D1cXyPVV6uM6noAHCrzDBgHMB6MKzAOgNZk7gNajXkPaDV9tUrK5XK6u7uTJJ2dncl4rPx9eNXuPHnPyMLZ4dReSp6854U8vGr3UG20fQ/XFwAAAAAAAEAzGfPw96n7XiiWGlLfX6N9N9oeAAAAAAAAYKoa8/B3pKtyD6a+v0b7brQ9AAAAAAAAwFQ15uEvAABN7IHlKbeVUr78w7nh8lLKbaWsfKB4EgAAAAAwGSYp/D0q87fOyOnFMgAAU99Vm1LdeEM+vLGW264qHgQAAAAAJsskhb8AAAAAAAAAjKUJDn+n5/zqzCytviZz2o7OgurMLK2ekPnzi+cBAAAAAAAAMBITHP7uyb3lXVlXfjbbKz/JlvKurCs/kwcfLJ43cqffNjNLqzOzdOtxObF4EAAAAAAAAKDJTXD4O34eu2JX1pV3Zd3ZP8zTxYMAAAAAAAAATW6Swt+f5sGz+/JYsQwAAAAAAADAqExS+AsAAAAAAADAWBL+AgAAAAAAADSBMQ9/S0cUK42p76/RvhttDwBAklsXp3z5h3PD5aVccWvxIAAAAAAwWcY8/D3pvGnFUkPq+2u070bbAwC0vIVrUq3UUt14Qz68sZZqpZbVC4snAQAAAACTYczD37OuPz4nXzCt4VW2pSOSky+YlrOuP36oNtq+h+sLAAAAAAAAoJmU+vr6asViklSr1cwotRXLLauvVnE9gHFlngHjAMaDcQXGAdCazH1AqzHvAa2mr1ZJuVxOd3d3kqSzszMZj5W/AAAAAAAAAEw84S8AAAAAAABAExD+AgAAAAAAADQB4S8AAAAAAABAExD+AgAAAAAAADQB4S8AAAAAAABAEyj19fXVisUkqVarxRIAAAAAAAAAU0C5XE53d3eSpLOzMzlY+NvW1lYst6xKpeJ6AOPKPAPGAYwH4wqMA6A1mfuAVmPeA1pNpVIZNvy17TMAAAAAAABAExD+AgAAAAAAADQB4S8AAAAAAABAExD+AgAAAAAAADQB4S8AAAAAAABAExD+AgAAAAAAADSBUl9fX61YTJJqtZq2trZi+aB+9qNaeq7bnZ13vpDai8Wjh650ZDLrkmnpuOn4vOJVpaSBvofra6QqlcqorgfAoTLPgHEA48G4AuMAaE3mPqDVmPeAVlOpVFIul9Pd3Z0k6ezsTMZj5W/PdbvzxO0jC2eHU3sxeeL2F9Jz3e6h2mj7Hq4vAAAAAAAAgGYy5uHvzjtfKJYaUt9fo3032h4AAAAAAABgqhrz8Hekq3IPpr6/RvtutD0AAAAAAADAVDXm4S8AAAAAAAAAE0/4Cw3ZnOWl5dlcLCfp7epIR1fv0M+bl5dSKvU/lg/XAACmms3L+393dXTlvsLvtaL+33v3pavD7zoAAAAAmCyTFP4elflbZ+T0YhkOK5uzvLQ4a4vlJOntypKVW/b+vHl5Fm9bnR21Wmq1HZmzqiMH+PwcAKaOZZtS61mRWcX6sGZlRU8tm5YV6wAAAADARJik8BcOd73p6rgjl9Y25eWfb/ema8mGzFu2YG/l0W1ZcOXFaU+StOfiK5MNd0l/ATh8tJ8xL/PO6P9NlvR/sal+JfDLjgMAAAAAE26Cw9/pOb86M0urr8mctqOzoDozS6snZP784nkw1bVnRc+aLCqWk/R2LcmGK9fnfXP21trPmJctG+5K/0fkvblrQ92qYAA4HCxakzXD/eIbdLDjAAAAAMC4m+Dwd0/uLe/KuvKz2V75SbaUd2Vd+Zk8+GDxvJE7/baZWVqdmaVbj8uJxYMwUXq7smTDlVm/orDyadGabJq3MrNLpZRKS7J93t5VwQBwWBm8D/Ditdmycnb/f7vBLwAAAABMCRMc/o6fx67YlXXlXVl39g/zdPEgTJDeuzZky5b+kHf2yi3ZsnL20JaYi9bUUqvVUqv15NJssTUmAIenRWv6f59tWpYFq3f0/7clvwAAAAAwJUxS+PvTPHh2Xx4rluEw176iZyDgrWXH6gVZsHpHela096+SGlwV1duVVWuX5VKfkwMAAAAAADCGJin8hRazaE02ZXH/1pizV2bepuHvFwwAh41Fa/q/4AQAAAAATBnCX2jIoqypDR/ktq/o2edD8b3bPtdid0wAAAAAAADG2piHv6Uji5XG1PfXaN+NtgcAaDlrF6fU0ZX+O9gfTG+6OkpZvLZYBwAAAAAmwpiHv7MumVYsNaS+v0b7brQ9AEBLWbSmf9eKnhU5tA2e27Oixy4XAAAAADBZxjz87bjp+Jxy2bSGV9mWjkxOuWxaOm46fqg22r6H6wsAAAAAAACgmZT6+vpqxWKSVKvVtLW1Fcstq1KpuB7AuDLPgHEA48G4AuMAaE3mPqDVmPeAVlOpVFIul9Pd3Z0k6ezsTMZj5S8AAAAAAAAAE0/4CwAAAAAAANAEhL8AAAAAAAAATUD4CwAAAAAAANAEhL8AAAAAAAAATUD4CwAAAAAAANAESn19fbViMUmq1WqxBAAAAAAAAMAUUC6X093dnSTp7OxMDhb+zii1Fcstq69WcT2AcWWeAeMAxoNxBcYB0JrMfUCrMe8BraavVhk2/LXtMwAAAAAAAEATEP4CAAAAAAAANAHhLwAAAAAAAEATEP4CAAAAAAAANAHhLwAAAAAAAEATEP4CAAAAAAAANIFSX19frVhMkmq1mhmltmL5oF58vpaHV+3OU/e9kNpLxaOHrnREctJ503LW9cfnyGNKSQN9D9fXSPXVKqO6HgCHyjwDxgGMB+MKjAOgNZn7gFZj3gNaTV+tknK5nO7u7iRJZ2dnMh4rfx9etTtP3jOycHY4tZeSJ+95IQ+v2j1UG23fw/UFAAAAAAAA0EzGPPx96r4XiqWG1PfXaN+NtgcAAAAAAACYqsY8/B3pqtyDqe+v0b4bbQ8AAAAAAAAwVY15+AutZXNWti3PvXWVez9USrmt/7Hygb31yi0dQ/XyhzbXtQAAAAAAAIDGCX9h1DZnZdvi/Gl96YHluSKbUq3UUq1sSq4eCIZ3duWaTVdma6WWamVHPv7o4n2CYQAAAAAAAGjUJIW/R2X+1hk5vViGw0Zvui+/IxdVNuUd9eWFa1L92KL6yn4syOmnFmsAAAAAAAAwepMU/sLhrj2dG9fk/GJ5QP8Wz4uTWwbOmbUi99yYXNNWSrltSXJjTzpnFVsBAAAAAADA6E1w+Ds951dnZmn1NZnTdnQWVGdmafWEzJ9fPA8Ob21X96RaqeWirwzc9/eB5Sm/N/lspZZqZX3y3n3vBwwAAAAAAACNmuDwd0/uLe/KuvKz2V75SbaUd2Vd+Zk8+GDxvJE7/baZWVqdmaVbj8uJxYMwSdpOW5BHKr2pVLblnMUXpy3pXzV87bL86Vc2F08HAAAAAACAUZvg8Hf8PHbFrqwr78q6s3+Yp4sHYaI8sDzlD+0NdSvf3JK5be1pa5uXhzbdlcpA/d6vrM05p80eOg8AAAAAAAAaNUnh70/z4Nl9eaxYhsPdwjW5LYtTbiul3FbK75+2I6sXDtTPWJmzB+pXZFPuubq92BoAAAAAAABGbZLCX2gWi7K6sibn11XO/1gt1Ur/oz7gra9XP7aorgUAAAAAAAA0bszD39IRxUpj6vtrtO9G2wMAAAAAAABMVWMe/p503rRiqSH1/TXad6PtAQAAAAAAAKaqMQ9/z7r++Jx8wbSGV9mWjkhOvmBazrr++KHaaPseri8AAAAAAACAZlLq6+urFYtJUq1WM6PUViy3rL5axfUAxpV5BowDGA/GFRgHQGsy9wGtxrwHtJq+WiXlcjnd3d1Jks7OzmQ8Vv4CAAAAAAAAMPGEvwAAAAAAAABNQPgLAAAAAAAA0ASEvwAAAAAAAABNQPgLAAAAAAAA0ASEvwAAAAAAAABNoNTX11crFpOkWq0WSwAAAAAAAABMAeVyOd3d3UmSzs7O5GDhb1tbW7HcsiqViusBjCvzDBgHMB6MKzAOgNZk7gNajXkPaDWVSmXY8Ne2zwAAAAAAAABNQPgLAAAAAAAA0ASEvwAAAAAAAABNQPgLAAAAAAAA0ASEvwAAAAAAAABNQPgLAAAAAAAA0ARKfX19tWIxSarVatra2orlg/rZj2rpuW53dt75QmovFo8eutKRyaxLpqXjpuPzileVkgb6Hq6vkapUKqO6HgCHyjwDxgGMB+MKjAOgNZn7gFZj3gNaTaVSSblcTnd3d5Kks7MzGY+Vvz3X7c4Tt48snB1O7cXkidtfSM91u4dqo+17uL4AAAAAAAAAmsmYh78773yhWGpIfX+N9t1oewAAAAAAAICpaszD35Guyj2Y+v4a7bvR9gAAAAAAAABT1ZiHvwAAAAAAAABMPOEvNGRzlpeWZ3N9ZXkppVL/Y3ndgf3Vgamht6tjaIyWDFIAxoi/AQEAAICJNEnh71GZv3VGTi+W4bCyOctLi7N2n9LyLM6m1Gq11GqbksUDwfDm5Vm8bXV21Gqp1XZkzqqOdPXWNwQmVW9Xlmy4cmiMrt622Af0ADTO34AAAADABJuk8BcOd73p6rgjl9Y2ZVl9edGa1NYsqq8kSXof3ZYFV16c9iRJey6+Mtlwl0/+YKrovWtDUjdGV/TUMsxQBoAR8TcgAAAAMNEmOPydnvOrM7O0+prMaTs6C6ozs7R6QubPL54HU117VvSsyf6yof7tYxcnm/rPaT9jXrZsuCv9H/X15q4NW4pNgEm0Y/uWzMtd6bDtMwBjyN+AAAAAwESb4PB3T+4t78q68rPZXvlJtpR3ZV35mTz4YPG8kTv9tplZWp2ZpVuPy4nFgzDB2lf0pFar5dI7Bu7ttmhNNs1bmdmlUkqlJdk+b0GxCTDJ1m5I1tdqqdVq2RTbPgMwBvwNCAAAAEywCQ5/x89jV+zKuvKurDv7h3m6eBAmyew5C7Lt0f61HovW9IdKtVpPLs2WzDujfwNAYGpYdv2KgW059x27ANAIfwMCAAAAE2mSwt+f5sGz+/JYsQyHu83L99kudsf2gQ/46uu9XVm1dlku3d+e0cCEW3Tpsqy9Y5ixCwCN8DcgAAAAMMEmKfyFJrVoTTZlcf89Q0ulrJqzI2sWFeqzV2bewL2AgSli0ZrsmLPq5WMXABrhb0AAAABgggl/oSGLsqa274d4e7f2q6Vnxd6Vg/V1oRJMPYP36i6OXQBohL8BAQAAgIk05uFv6chipTH1/TXad6PtAQAAAAAAAKaqMQ9/Z10yrVhqSH1/jfbdaHsAAAAAAACAqWrMw9+Om47PKZdNa3iVbenI5JTLpqXjpuOHaqPte7i+AAAAAAAAAJpJqa+vr1YsJkm1Wk1bW1ux3LIqlYrrAYwr8wwYBzAejCswDoDWZO4DWo15D2g1lUol5XI53d3dSZLOzs5kPFb+AgAAAAAAADDxhL8AAAAAAAAATUD4CwAAAAAAANAEhL8AAAAAAAAATUD4CwAAAAAAANAEhL8AAAAAAAAATaDU19dXKxaTpFqtFksAAAAAAAAATAHlcjnd3d1Jks7OzuRg4e+MUlux3LL6ahXXAxhX5hkwDmA8GFdgHACtydwHtBrzHtBq+mqVYcNf2z4DAAAAAAAANAHhLwAAAAAAAEATEP4CAAAAAAAANAHhLwAAAAAAAEATEP4CAAAAAAAANAHhLwAAAAAAAEATKPX19dWKxSSpVquZUWorlg/qxedreXjV7jx13wupvVQ8euhKRyQnnTctZ11/fI48ppQ00PdwfY1UX60yqusBcKjMM2AcwHgwrsA4AFqTuQ9oNeY9oNX01Sopl8vp7u5OknR2dibjsfL34VW78+Q9Iwtnh1N7KXnynhfy8KrdQ7XR9j1cXwAAAAAAAADNZMzD36fue6FYakh9f4323Wh7AAAAAAAAgKlqzMPfka7KPZj6/hrtu9H2AAAAAAAAAFPVmIe/0Fo2Z2Xb8txbLCep3NKRC27p3Vt4YHnKbaWU20pZ+UD9mQAAAEw5g+/hLu9KJcm9H+p/P9f/GP594KCXvR+s98Dy/R6rf47+94296b7c+0gAAODQCX9h1DZnZdvi/GmxnCQ7u3LNDVvqCpuz8upt+fj9tVTvX51Hrj7wBwUAAABMAVdtSnXjirSlNzseXdD/nq5SS7WyJucXzx30sveDe1Vu6cgFX0ku++anhkLlIQ8szxWPrs7WSi3Vyo6c/pmOdO9sT+fGWm67qv5EAACA/Zuk8PeozN86I6cXy3DY6E335XfkosqmvKN4KL3pfu+GzL1qwd7SzkfzyJuvzIWzksy6OJe9eVt27KxvAwAAwJS1867c/rV5mT2reKBomPeDddqu7slnT9uWD+bSgVB5r0plW85ZfPFArT0XLk5uv2/4FcIAAAD7M0nhLxzu2tO5cfhvelduWZLbF6/Pb51WV3x8ex4644yhN/Gzz9iSxx6vOw4AAMDU9fj2PPTmbfn9wW2fP7S5eEayv/eD9XZ25ZpvXp+tp6162dbPbW3z8tCmuwZWA/fm7k3Drx4GAAA4kAkOf6fn/OrMLK2+JnPajs6C6swsrZ6Q+fOL58FhamdXrtl0ZT57dXvxCAAAAIerhWtSvXF9Plvp3/Z562mrXn4P3kN5PzhrRe752KK0Xd2Te4rnLVyT285YmbPbSim3LcljZwy/ehgAAOBAJjj83ZN7y7uyrvxstld+ki3lXVlXfiYPPlg8b+ROv21mllZnZunW43Ji8SBMkMp9G/LQ1/rfrJ99w5Y8dMPs/m9znzon5zz66NA3uHc8uiCnn1psDQAAwJQ1q32fbZofqey7cne/7wdH4PyPDd5TuCcXZUvmth0gSAYAABjGBIe/4+exK3ZlXXlX1p39wzxdPAgTpO3qnoE36rVs/fCCnPPhHf3f5p51RuZ+bUPu3jmSe0UBAAAwJTyw/GVbPReD2f2+HzxU9c+xsyu/f+uyXLSweBIAAMCBTVL4+9M8eHZfHiuWoWktyupb5uWD55ZSPndl5t4y/P2CAQAAmIIWrsltWdx/v9+2Uq7J+qxemCSbs7Jtee4tnr+PA51Td6z+ObxvBAAARmmSwl9oFouyujL8G/KX3cNp4Zqhb4H3f0gAAADA4WLvlsy1uvd6i3LRVYUTX/Z+cPhz+u17rP45vG8EAABGY8zD39IRxUpj6vtrtO9G2wMAAAAt5NbFKV/elUqxPqQ3O067dNgvBO91oHMOdCxJetN9eSlX3FqsAwAADG/Mw9+TzptWLDWkvr9G+260PQAAANAiBndv2rgibcVjQ9rTefWiYrHgQOcc6Fj6j2+0EhgAADh0Yx7+nnX98Tn5gmkNr7ItHZGcfMG0nHX98UO10fY9XF8AAAAAAAAAzaTU19dXKxaTpFqtZkZp/99tbTV9tYrrAYwr8wwYBzAejCswDoDWZO4DWo15D2g1fbVKyuVyuru7kySdnZ3JeKz8BQAAAAAAAGDiCX8BAAAAAAAAmoDwFwAAAAAAAKAJCH8BAAAAAAAAmoDwFwAAAAAAAKAJCH8BAAAAAAAAmkCpr6+vViwmSbVaLZYAAAAAAAAAmALK5XK6u7uTJJ2dncnBwt+2trZiuWVVKhXXAxhX5hkwDmA8GFdgHACtydwHtBrzHtBqKpXKsOGvbZ8BAAAAAAAAmoDwFwAAAAAAAKAJCH8BAAAAAAAAmoDwFwAAAAAAAKAJCH8BAAAAAAAAmoDwFwAAAAAAAKAJlPr6+mrFYpJUq9W0tbUVywf1sx/V0nPd7uy884XUXiwePXSlI5NZl0xLx03H5xWvKiUN9D1cXyNVqVRGdT0ADpV5BowDGA/GFRgHQGsy9wGtxrwHtJpKpZJyuZzu7u4kSWdnZzIeK397rtudJ24fWTg7nNqLyRO3v5Ce63YP1Ubb93B9AQAAAAAAADSTMQ9/d975QrHUkPr+Gu270fYAAAAAAAAAU9WYh78jXZV7MPX9Ndp3o+0BAAAAAAAApqoxD38BAAAAAAAAmHjCX2jI5iwvLc/mYjlJb1dHOrp6B39KV0cppdLAY/lwLQAAAADgcNebro6ODH0sBgBMqEkKf4/K/K0zcnqxDIeVzVleWpy1xXKS9HZlycotdT8uycp5m1Kr1VKr7cjqbYsj/wUAAACg6fTelQ25Mhe3Fw8AABNhksJfONz1pqvjjlxa25RlxUPpTdeSDZm3bMFQpX1FT2prFg3+lIuvXJBtj/r6IwAAAADNpfeuDcmVF0f2CwCTY4LD3+k5vzozS6uvyZy2o7OgOjNLqydk/vzieTDVtWdFz5oMxrn1eruWZMOV6/O+OcUjgzbnUyvn5foV/gQGAAAAoLns2J5cadkvAEyaCQ5/9+Te8q6sKz+b7ZWfZEt5V9aVn8mDDxbPG7nTb5uZpdWZWbr1uJxYPAgTpbcrSzZcmfX7DXY3Z3lpVebsGD44BgAAAIDD1+bcsXZeztjfR2MAwLib4PB3/Dx2xa6sK+/KurN/mKeLB2GC9N61IVu2rMzsUimzV27JlpWz09E1sL1zb1c6SqsyZ0dP9psNAwAAAMDhavMdWbvsUoseAGASTVL4+9M8eHZfHiuW4TDXvqIntVottVotO1YvyILVO9Kzor0/+J29PdfXBL8AAAAANKfNd6zNsktFvwAwmSYp/IXWsvlTK7Mla7O4VEpp4DG0IhgAAAAADnu9eXTbgsyZXawDABNJ+AsNWZQ1teHv39u+oqd/1W+SRWv6VwPXPwaPAQAAAMDhrz0reux6BwCTbczD39KRxUpj6vtrtO9G2wMAAAAAAABMVWMe/s66ZFqx1JD6/hrtu9H2AAAAAAAAAFPVmIe/HTcdn1Mum9bwKtvSkckpl01Lx03HD9VG2/dwfQEAAAAAAAA0k1JfX1+tWEySarWatra2YrllVSoV1wMYV+YZMA5gPBhXYBwArcncB7Qa8x7QaiqVSsrlcrq7u5MknZ2dyXis/AUAAAAAAABg4gl/AQAAAAAAAJqA8BcAAAAAAACgCQh/AQAAAAAAAJqA8BcAAAAAAACgCQh/AQAAAAAAAJpAqa+vr1YsJkm1Wi2WAAAAAAAAAJgCyuVyuru7kySdnZ3JwcLfGaW2Yrll9dUqrgcwrswzYBzAeDCuwDgAWpO5D2g15j2g1fTVKsOGv7Z9BgAAAAAAAGgCwl8AAAAAAACAJiD8BQAAAAAAAGgCwl8AAAAAAACAJiD8BQAAAAAAAGgCwl8AAAAAAACAJlDq6+urFYtJUq1WM6PUViwf1IvP1/Lwqt156r4XUnupePTQlY5ITjpvWs66/vgceUwpaaDv4foaqb5aZVTXA+BQmWfAOIDxYFyBcQC0JnMf0GrMe0Cr6atVUi6X093dnSTp7OxMxmPl78OrdufJe0YWzg6n9lLy5D0v5OFVu4dqo+17uL4AAAAAAAAAmsmYh79P3fdCsdSQ+v4a7bvR9gAAAAAAAABT1ZiHvyNdlXsw9f012nej7QEAAAAAAACmqjEPf+HwsDkr25bn3mI5SeWWjlxwS+/Qz/d+qJRyW/9j5QP7nHpwO7tywUDbwUd93y+zsysXXN6VSrEOAAAAAAAAByH8pQVtzsq2xfnTYjn94es1N2zZ+/MDy3NFNqVaqaVa2ZRcPXxgfEBvXp2tldpAH7Xcc3V78QwAAAAAAABo2CSFv0dl/tYZOb1YhnHXm+7L78hFlU15R/FQetP93g2Ze9WCvaWFa1L92KL6k8ZM5ZaOvSuCP7S5cLQ33ZfvZ7XwA8sP0A4AAAAAAIBWNUnhL0yW9nRuXJPzi+UklVuW5PbF6/NbpxWPDAa1i5Nbhm97QF9bmbMHw9rBLZ13duWaTVcOrAjelHfcese+K4of+FQ+eMbeFcdzb/hU//GdXbngM3OGVhLflsUj34oaAAAAAACApjTB4e/0nF+dmaXV12RO29FZUJ2ZpdUTMn9+8TyYYANh7Gf3syVz29U9qVZquegro7jvb/22zxtXpC1JZq3IPTcm17SVUm5bnD/NtuzYWdfm1Dk559bFA6t7k9WVgdD58e15qC5MvuLW5JHKAe4hDAAAAAAAQMuY4PB3T+4t78q68rPZXvlJtpR3ZV35mTz4YPG8kTv9tplZWp2ZpVuPy4nFg3AQlfs2DIWqZ9+wJQ/dMHvfrZYHtJ224GVh670f2rs98yFvw/zA8pTP3Z7fGVz5Wzw+a0XuqdRSvX/1UAg8FDpfNbgi2D2EAQAAAAAA2GuCw9/x89gVu7KuvCvrzv5hni4ehIMYXNlbrdSy9cMLcs6Hd/SHqg8s3yfQrXxzS+a27Ru2nv+xvUHsiO4PfNWl/at5H7gjf1o49O1bOvqfdyAEvu2qgRW+p87JObeuSvfODN0XeMQrkQEAAAAAAGhKkxT+/jQPnt2Xx4plmGoWrsltGdh+ua2U3z9tR1YvLJ40CgsvzTsGt3X+SvKObMljj+89/Pqre/Z53iseXd2/JfWsFbnnlnn54LmllNtm54NnbBqb1wMAAAAAAMBhr9TX11crFpOkWq1mRqmtWD6oL755V7HUsLd9bWYyRn0P9jVSfbXKqK4HwKEyz4BxAOPBuALjAGhN5j6g1Zj3gFbTV6ukXC6nu7s7SdLZ2ZmMx8rf0hHFSmPq+2u070bbAwAAAAAAAExVYx7+nnTetGKpIfX9Ndp3o+0BAAAAAAAApqoxD3/Puv74nHzBtIZX2ZaOSE6+YFrOuv74odpo+x6uLwAAAAAAAIBmMub3/G1W7hcAjDfzDBgHMB6MKzAOgNZk7gNajXkPaDUTds9fAAAAAAAAACae8BcAAAAAAACgCQh/AQAAAAAAAJqA8BcAAAAAAACgCQh/AQAAAAAAAJqA8BcAAAAAAACgCZT6+vpqxWKSVKvVYgkAAAAAAACAKaBcLqe7uztJ0tnZmRws/G1rayuWW1alUnE9gHFlngHjAMaDcQXGAdCazH1AqzHvAa2mUqkMG/7a9hkAAAAAAACgCQh/AQAAAAAAAJqA8BcAAAAAAACgCQh/AQAAAAAAAJqA8BcAAAAAAACgCQh/AQAAAAAAAJpAqa+vr1YsJkm1Wk1bW1uxfFA/+1EtPdftzs47X0jtxeLRQ1c6Mpl1ybR03HR8XvGqUtJA38P1NVKVSmVU1wPgUJlnwDiA8WBcgXEAtCZzH9BqzHtAq6lUKimXy+nu7k6SdHZ2JuOx8rfnut154vaRhbPDqb2YPHH7C+m5bvdQbbR9D9cXAAAAAAAAQDMZ8/B3550vFEsNqe+v0b4bbQ8AAAAAAAAwVY15+DvSVbkHU99fo3032h4AAAAAAABgqhrz8BcAAAAAAACAiSf8pUVtzvLS8mwulpP0dnWko6t3n59LpVL/Y/lwLQ6gtysdg20HHvV9v0xvVzo6unKAMwAAAAAAAGBYkxT+HpX5W2fk9GIZJsTmLC8tztpiOf3h65KVW/b9ecOV2VGrpVbbkdXbFmek+W8WrB5o3//oWdFePAMAAAAAAAAaNknhL0yW3nR13JFLa5uyrHgovelasiHzli3YW7lrQ3LlxemPa9uzoqeWNYvqmjTgwCuKe9PVsZ/VwpuXH6AdAAAAAAAArWqCw9/pOb86M0urr8mctqOzoDozS6snZP784nkwXtqzomdNhstve7uWZMOV6/O+OXtrO7ZvybzctXfr5tGErVtWZvZg+8EtnfdZUbwpy9bese8W1Js/lZXzNg2sFt6UeSs/1X+8tysdq+YMrSTelFGsRAYAAAAAAKApTXD4uyf3lndlXfnZbK/8JFvKu7Ku/EwefLB43sidftvMLK3OzNKtx+XE4kE4mIEwdv0wWzKv3ZCsbyRsrd/2uWdF/yri9hXpWZ8sKZVSKi3O2mzLo/U3+p09JwvWLh4InJM1tYHAesf2bKkLkxevTbbt0xAAAAAAAIBWNcHh7/h57IpdWVfelXVn/zBPFw/CQfTetWEoVJ29cku2rJw9tNXysusHAtsks+cseFnYunn53u2ZD3ll8OblKc3enusHV/4Wj7evSE+tltqO1UMh8FDXywZXBLuHMAAAAAAAAHtNUvj70zx4dl8eK5ZhkrSv6BkKU3esXpAFq3ekZ0V7Fl26LGvv2Bvo7ti+JfPO2DdsXbRmbxBbG8kNgZdd2r+ad/MdWVs4tLOroz9IHgiBNy0bWOE7e04WrF2V/ly6/77Ah5o3AwAAAAAA0NwmKfyFw8SiNdkxZ9XQyt5Vc3ZkJPnufi26NMsGt3W+I1mWLdm+Y+/hWSt6sikDx0ulLN62un9L6vYV6dk0Lytnl1Iqzc7KeZvG5vUAAAAAAABw2Cv19fXVisUkqVaraWtrK5YPal15V7HUsKXVmckY9T3Y10hVKpVRXQ+AQ2WeAeMAxoNxBcYB0JrMfUCrMe8BraZSqaRcLqe7uztJ0tnZmYzHyt/SkcVKY+r7a7TvRtsDAAAAAAAATFVjHv7OumRasdSQ+v4a7bvR9gAAAAAAAABT1ZiHvx03HZ9TLpvW8Crb0pHJKZdNS8dNxw/VRtv3cH0BAAAAAAAANJMxv+dvs3K/AGC8mWfAOIDxYFyBcQC0JnMf0GrMe0CrmbB7/gIAAAAAAAAw8YS/AAAAAAAAAE1A+AsAAAAAAADQBIS/AAAAAAAAAE1A+AsAAAAAAADQBIS/AAAAAAAAAE2g1NfXVysWk6RarRZLAAAAAAAAAEwB5XI53d3dSZLOzs7kYOHvjFJbsdyy+moV1wMYV+YZMA5gPBhXYBwArcncB7Qa8x7QavpqlWHDX9s+AwAAAAAAADQB4S8AAAAAAABAExD+AgAAAAAAADQB4S8AAAAAAABAExD+AgAAAAAAADQB4S8AAAAAAABAEyj19fXVisUkqVarmVFqK5YP6sXna3l41e48dd8Lqb1UPHroSkckJ503LWddf3yOPKaUNND3cH2NVF+tMqrrAXCozDNgHMB4MK7AOABak7kPaDXmPaDV9NUqKZfL6e7uTpJ0dnYm47Hy9+FVu/PkPSMLZ4dTeyl58p4X8vCq3UO10fY9XF8AAAAAAAAAzWTMw9+n7nuhWGpIfX+N9t1oewAAAAAAAICpaszD35Guyj2Y+v4a7bvR9gAAAAAAAABT1ZiHv9BaNmdl2/LcWywnqdzSkQtu6d3n53Jbqf/xoc37nAsAk+6B5f2/oy7vyt8UfocVFX/HvbzWm+7LO3LDjR254Jb70n15/++/lQ/s0wQAAAAAGGPCXxi1zVnZtjh/Wiwnyc6uXHPDln1/3nRltlZqqVZ25OOPLvYBOABTz1WbUt24Iq8v1kdq5125PVfm35eTZFY6N9Zy21XFkwAAAACAsTZJ4e9Rmb91Rk4vluGw0Zvuy+/IRZVNeUfxUHrT/d4NmXvVguKBOgty+qnFGgBMDW1t8zK3rX1v4YHl+6z0fdnxQq1y34Zk8cX5lWHOAwAAAADGzySFv3C4a0/nxjU5v1hOUrllSW5fvD6/dVpdcdaK3HNjck1bKeW2JcmNPemcVXccAKaShWuyemGxWGe443W1yjeTy85rH/48AAAAAGDcTHD4Oz3nV2dmafU1mdN2dBZUZ2Zp9YTMn188Dw5TA9s7f/bqwiqnB5an/N7ks5VaqpX1yXvd9xCAw8DgfYCvXpuHbph9iPet35wv3Tovs33JCQAAAAAm3ASHv3tyb3lX1pWfzfbKT7KlvCvrys/kwQeL543c6bfNzNLqzCzdelxOLB6ECVK5b0Me+trKnN1Wytk3bMlDN8zOBbf0plLZlnMWX5y2pH/V8LXL8qdfOdiH5wAwyRauSbVSS/WWZTnnwzv6//tji4pn7euBO/KnV1067O4YAAAAAMD4muDwd/w8dsWurCvvyrqzf5iniwdhgrRd3dP/wXillq0fXpBzPrwj91zdnra2eXlo012pDJx371fW5pzTZhdaA8Dh796vrM07fu0gATEAAAAAMC4mKfz9aR48uy+PFcvQrBauyW1n9K8ILreVckU25Z7i1tAAMFUtXLOf31ubs7Jtee4d+rk3Ox5dkNNP3eckAAAAAGCCTFL4C81iUVZX1gy7tWXb1T37fFB+/sf6VwQf0paZAHBYWJSLrqr/uT2dG3vS6X6/AAAAADAphL8AAPS7dXHKl3cN3abg4Hqz47SD3d+3N92Xl3LFrcU6AAAAADDWxjz8LR1RrDSmvr9G+260PQBA01q4pn93io0r0lY8tl/t6bz6YLtZtKdzY//OF6sXFo8BAAAAAGNpzMPfk86bViw1pL6/RvtutD0AAAAAAADAVDXm4e9Z1x+fky+Y1vAq29IRyckXTMtZ1x8/VBtt38P1BQAAAAAAANBMSn19fbViMUmq1WpmlA59079m11eruB7AuDLPgHEA48G4AuMAaE3mPqDVmPeAVtNXq6RcLqe7uztJ0tnZmYzHyl8AAAAAAAAAJp7wFwAAAAAAAKAJCH8BAAAAAAAAmoDwFwAAAAAAAKAJCH8BAAAAAAAAmoDwFwAAAAAAAKAJlPr6+mrFYpJUq9ViCQAAAAAAAIApoFwup7u7O0nS2dmZHCz8bWtrK5ZbVqVScT2AcWWeAeMAxoNxBcYB0JrMfUCrMe8BraZSqQwb/tr2GQAAAAAAAKAJCH8BAAAAAAAAmoDwFwAAAAAAAKAJCH8BAAAAAAAAmoDwFwAAAAAAAKAJlPr6+mrFYpJUq9W0tbUVywf1sx/V0nPd7uy884XUXiwePXSlI5NZl0xLx03H5xWvKiUN9D1cXyNVqVRGdT0ADpV5BowDGA/GFRgHQGsy9wGtxrwHtJpKpZJyuZzu7u4kSWdnZzIeK397rtudJ24fWTg7nNqLyRO3v5Ce63YP1Ubb93B9AQAAAAAAADSTMQ9/d975QrHUkPr+Gu270fYAAAAAAAAAU9WYh78jXZV7MPX9Ndp3o+0BAAAAAAAApqoxD38BAAAAAAAAmHjCX2jI5iwvLc/m+sryUkql/sfyugO9XR1D9VL9AQAAAAAAABgDkxT+HpX5W2fk9GIZDiubs7y0OGv3KS3P4mxKrVZLrbYpWTwQDPd2ZcmGK7OjVkuttiOrty3eJxgGAAAAAACARk1S+AuHu950ddyRS2ubsqy+vGhNamsW1Vf2Y0HmzC7WAAAAAAAAYPQmOPydnvOrM7O0+prMaTs6C6ozs7R6QubPL54HU117VvSsyf5i3v4tnhcnmwbOaV+RnvXJklIppdKSZH1PVrQXWwEAAAAAAMDoTXD4uyf3lndlXfnZbK/8JFvKu7Ku/EwefLB43sidftvMLK3OzNKtx+XE4kGYYO0relKr1XLpHQP3/d28PKUlyfpaLbXa+mTJvvcDBgAAAAAAgEZNcPg7fh67YlfWlXdl3dk/zNPFgzBJZs9ZkG2P9qb30W1ZcOXF6V/s254V1y/L2jukvwAAAAAAAIydSQp/f5oHz+7LY8UyHO42L0+pbknvju1bMu+M9rSfMS9bNtyV3sHT7libBW76CwAAAAAAwBiapPAXmtSiNdmUxSmVSimVSlk1Z0f+/+39b4hc550v+n7r2uNoMjveKoUElOx9nSm3ZHRyBSY6EXS/8hBvD9122PbGFpgBKfiFOg13sJphZs6Z2JcDcuYcEga12QOd1gsT6Y1BNtfexLub7bEZHw50g3wUDGKOkLunJjp3O4KEVOlkTrKVjMO6L/qPSkvV6j9V/UdVnw80uH/rWb9qF/080tK3nrWmhpfqh8dzYKk+kunMeugvAAAAAAAAXST8hY4MZ6qYynBrZapIUSx+tQa8rfViqvUMAAAAAAAA6FzXw9/K/eVKZ1r7ddq70/MBAAAAAAAAdquuh78PfXNPudSR1n6d9u70fAAAAAAAAIDdquvh79Cre/OVZ/Z0vMu2cn/ylWf2ZOjVvSu1zfZu1wsAAAAAAACgl1QajUZRLiZJs9lMrVYrl/tWvV73fgBbyjoD5gFsBfMKzAOgP1n7gH5j3QP6Tb1eT7VazeTkZJJkbGws2YqdvwAAAAAAAABsP+EvAAAAAAAAQA8Q/gIAAAAAAAD0AOEvAAAAAAAAQA8Q/gIAAAAAAAD0AOEvAAAAAAAAQA+oNBqNolxMkmazWS4BAAAAAAAAsAtUq9VMTk4mScbGxpK1wt99lVq53LcaRd37AWwp6wyYB7AVzCswD4D+ZO0D+o11D+g3jaLeNvx122cAAAAAAACAHiD8BQAAAAAAAOgBwl8AAAAAAACAHiD8BQAAAAAAAOgBwl8AAAAAAACAHiD8BQAAAAAAAOgBlUajUZSLSdJsNrOvUiuX1/Tpr4p8dPpGfvr+zRS/Kx9dv8p9yZe+sSePvrw39/9BJemgd7teG9Uo6pt6PwDWyzoD5gFsBfMKzAOgP1n7gH5j3QP6TaOop1qtZnJyMkkyNjaWbMXO349O38gn724snG2n+F3yybs389HpGyu1zfZu1wsAAAAAAACgl3Q9/P3p+zfLpY609uu0d6fnAwAAAAAAAOxWXQ9/N7ordy2t/Trt3en5AAAAAAAAALtV18Nf6C8zGa+N5r2WynvfqaRaW/wa/2DtOrA71F8bWpmj1e/MlA8DwKb4OyAAAACwnYS/sGkzGa+N5IetpQ9G81ym06wXadankxeWguEPRvPc1TO5VC/SrM/n4N8OZfJa64nAjro2kW9PH1uZo399dcQ/0APQudX+bggAAACwRXYo/H0gRy/ty8FyGe4ZC5l89u08WZ/Ot1rLj02l+d3h1kqSpF6/nK+PPJVakmQgfzySvPX+QnkYsGsM5uAflmsAsEGr/N0QAAAAYKvsUPgL97qBjL05lcfL5SWLt48dSV5bHFOrHc6H0++kniRZyH+ZniufAuykh07l3b9Jvl2rpFo7nvzNbMYeKg8CgM0p/90QAAAAYKtsc/j72Tze3J8Tzc/nUO0zGWzuz4nmF3L0aHkc3NtqL8ymWS/y5N8tPdvtsam88ch4jiwFSx8/Mlg+BdhJH4ym+mfJD+pFmvXzyZ95LiMA3XPH3w0BAAAAtsg2h7+/znvV6zlX/UWu1H+Tuer1nKv+PBcvlsdt3ME39udEc39OXHowXywfhB1Se3gw/1BfvL3z498tlp73NpsnM5ev1gbKw4EdUr41+9j/+2R++Hcz5WEA0JHWvxsCAAAAbIVtDn+3zsfPXc+56vWcO/LL/Kx8ELbLB6OpfudWYFT/x6WQt7V+bSLfe/1knnzs1mnAzrr91uzJe393Nl9/+EBpFABs0Gp/NwQAAADYIjsU/v42F4808nG5DPe6x6byRkZSrVVSrVXyvYfnc+axUv2PxvNVz3uD3eW2W7NX8lym8+4L/nEegA6t9ndDAAAAgC1SaTQaRbmYJM1mM/sqizfA3Ij/9LXr5VLH/v2P9ydd6r3ca6MaRX1T7wfAellnwDyArWBegXkA9CdrH9BvrHtAv2kU9VSr1UxOTiZJxsbGkp3b+QsAAAAAAABAN3U9/K3cV650prVfp707PR8AAAAAAABgt+p6+Pulb+wplzrS2q/T3p2eDwAAAAAAALBbdT38ffTlvfnyE3s63mVbuS/58hN78ujLe1dqm+3drhcAAAAAAABAL6k0Go2iXEySZrPp4egtPCwe2GrWGTAPYCuYV2AeAP3J2gf0G+se0G8aRT3VajWTk5NJkrGxsWQrdv4CAAAAAAAAsP2EvwAAAAAAAAA9QPgLAAAAAAAA0AOEvwAAAAAAAAA9QPgLAAAAAAAA0AOEvwAAAAAAAAA9oNJoNIpyMUmazWa5BAAAAAAAAMAuUK1WMzk5mSQZGxtL1gp/a7Vaudy36vW69wPYUtYZMA9gK5hXYB4A/cnaB/Qb6x7Qb+r1etvw122fAQAAAAAAAHqA8BcAAAAAAACgBwh/AQAAAAAAAHqA8BcAAAAAAACgBwh/AQAAAAAAAHqA8BcAAAAAAACgB1QajUZRLiZJs9lMrVYrl9f0L/9cZPbFG7n2o5spPi0fXb/K/clD39yToVf35vc+V0k66N2u10bV6/VNvR8A62WdAfMAtoJ5BeYB0J+sfUC/se4B/aZer6darWZycjJJMjY2lmzFzt/ZF2/kJ29tLJxtp/g0+clbNzP74o2V2mZ7t+sFAAAAAAAA0Eu6Hv5e+9HNcqkjrf067d3p+QAAAAAAAAC7VdfD343uyl1La79Oe3d6PgAAAAAAAMBu1fXwF/rLTEYro5kpl5MsTAxlaGLhVmFmNJVKJZVKJaPtTgAAAGBnLF+vDU1kIcnM6OK12+JX+2u+ZXdc+7WaGV31WOtrrHaNeOeYhUwM3f0cAACgv+1Q+PtAjl7al4PlMtxTZjJaGcnZcjlJFiZyfHyupTCT0ZHLOTNfpJg/k8sjd//HAwAAALbZyekUs6cykIVcvTy4eP1WFCmKqQyXxy6749rvloWJoQy9nRy78v2VUHnFzGhGLp/JfFGkKOZz6PRQ7siIZ0Yzkumln2E6GRnNTAZyarbI9MnSWAAAgCU7FP7CvW4hE0Nv5+liOndecy9k4viFHD452FK6msuDx/LUQJKBp3Js8HKuli/sAQAA2HkL7+TC3OE8MlA+UNbm2q/FwKnZnD90OeN5eilUvmXh6uUMHntqqTaQp44lF94pXSQOT6WYWjV2BgAAaGubw9/P5vHm/pxofj6Hap/JYHN/TjS/kKNHy+NgtxvIqdn2n/5emDieC8fO588PtRTnr2Tu8CMrF/aPHJ7LlfmW4wAAAOwO81cyN3g5p5dv+7zK/ZXbXvu1WpjI8SsvZ/7Q6Ttu/TzwyOHMXXhnaTfwQt650H73cJZ2EFcqI8l0+2tQAACAVtsc/v4671Wv51z1F7lS/03mqtdzrvrzXLxYHrdxB9/YnxPN/Tlx6cF8sXwQtsvCRI5fOJbzp9b8iDgAAAC70fBUivPnc75YvO3z/KHTdz5fdz3XfgOnMjs1nIFTs5ktjxueyvTh8RyoVFKpHM+Vw+13D2dpB3FRFHn6bc/5BQAA1rbN4e/W+fi56zlXvZ5zR36Zn5UPwjZZeOdC5uYWL+APjM9lbvzA4ie8DxzK4OWrK5/qvnp5MIcOlM8GAABgVxgYuO02zZdLz+1Z9dpvA4anlp8pPJunM5fDa9xn+sChwTt+DgAAgLIdCn9/m4tHGvm4XIZ73PInsouiyPyZwQyemV/8hPfAIzk8dyHvLGzk+VEAAABsu5nRO271XA5mV732W6/W11iYyOmzJ/N0+Z7OpZ9j/sraATEAAMAOhb/Qb4YzNX044wcqqRwYz2HPagIAANidhqcynZHF5/1WKjme85kaTpKZjFZGc/c7L99tTMux1te47RpxlTGVSk4fml/6OQAAAFYn/IWODGeqaB/k3vFcp+GplU+Gu2AHAADYvW7dkrloua4bztMnSwPvuPZrP2bR7cdaX+PWNeLqYza0sxgAAOhbXQ9/K/eXK51p7ddp707PBwAAAHrU2ZFUhiay+lN1F3L10NNtP/x7y93G3O3YsrXGLGRiqJKRs+U6AADAoq6Hvw99c0+51JHWfp327vR8AAAAoAct36lp9lRW3187kFOnVo9lF91tzN2OLVtrzEBOzZZ3CwMAANzS9fB36NW9+cozezreZVu5P/nKM3sy9Oreldpme7frBQAAAAAAANBLKo1GoygXk6TZbKZWq5XLfater3s/gC1lnQHzALaCeQXmAdCfrH1Av7HuAf2mXq+nWq1mcnIySTI2NpZsxc5fAAAAAAAAALaf8BcAAAAAAACgBwh/AQAAAAAAAHqA8BcAAAAAAACgBwh/AQAAAAAAAHqA8BcAAAAAAACgB1QajUZRLiZJs9kslwAAAAAAAADYBarVaiYnJ5MkY2NjyVrh775KrVzuW42i7v0AtpR1BswD2ArmFZgHQH+y9gH9xroH9JtGUW8b/rrtMwAAAAAAAEAPEP4CAAAAAAAA9ADhLwAAAAAAAEAPEP4CAAAAAAAA9ADhLwAAAAAAAEAPEP4CAAAAAAAA9IBKo9EoysUkaTab2Veplctr+vRXRT46fSM/ff9mit+Vj65f5b7kS9/Yk0df3pv7/6CSdNC7Xa+NahT1Tb0fAOtlnQHzALaCeQXmAdCfrH1Av7HuAf2mUdRTrVYzOTmZJBkbG0u2YufvR6dv5JN3NxbOtlP8Lvnk3Zv56PSNldpme7frBQAAAAAAANBLuh7+/vT9m+VSR1r7ddq70/MBAAAAAAAAdquuh78b3ZW7ltZ+nfbu9HwAAAAAAACA3arr4S/0l5mM10bzXrmcpP7aUJ54bWHpu4VMPltJtbb09Z2Z0mgAAAAAAADojPAXNm0m47WR/LBcTpJrE/n2K3Mr39ZfO56/emQ6zXqRZn0+f311JOMf3HYGAAAAAAAAdGSHwt8HcvTSvhwsl+GesZDJZ9/Ok/XpfKt8KAuZ/LML+erzgyuV2guzaX53eOm7gfzxyGD+ob68KxgAAAAAAAA6t0PhL9zrBjL25lQeL5eXdvm+NXI+f/pw+ciymfzHVw7nL14YKB8AAAAAAACATdvm8Pezeby5Pyean8+h2mcy2NyfE80v5OjR8ji4R12byLenj+UHqwa7Mxmvnc7Bv28fHAMAAAAAAMBmbXP4++u8V72ec9Vf5Er9N5mrXs+56s9z8WJ53MYdfGN/TjT358SlB/PF8kHYJvX3L+TDH4/nSK2SI6/M5cNXDuSJ15Zu73xtIk/UTufg389m7KHymQAAAABwL5rJeK2S6h1fo3mvPBQA2HLbHP5unY+fu55z1es5d+SX+Vn5IGyT2guzadaLNOtFLr00mK+/NJ93XxhYDH7/6Er+oi74BQAAAKCXDOfM0r+H3f7lzncAsBN2KPz9bS4eaeTjchl61Htnx/Nhzua5lk8/ruwIBgAAAAAAgC7YofAXesVwzqzyKcbaC7OLu36TPP7d8icfi5VjAAAAAAAA0A3CXwAAAAAAAIAe0PXwt3JfudKZ1n6d9u70fAAAAAAAAIDdquvh75e+sadc6khrv057d3o+AAAAAAAAwG7V9fD30Zf35stP7Ol4l23lvuTLT+zJoy/vXalttne7XgAAAAAAAAC9pNJoNIpyMUmazWb2VWrlct9qFHXvB7ClrDNgHsBWMK/APAD6k7UP6DfWPaDfNIp6qtVqJicnkyRjY2PJVuz8BQAAAAAAAGD7CX8BAAAAAAAAeoDwFwAAAAAAAKAHCH8BAAAAAAAAeoDwFwAAAAAAAKAHCH8BAAAAAAAAekCl0WgU5WKSNJvNcgkAAAAAAACAXaBarWZycjJJMjY2lqwV/tZqtXK5b9Xrde8HsKWsM2AewFYwr8A8APqTtQ/oN9Y9oN/U6/W24a/bPgMAAAAAAAD0AOEvAAAAAAAAQA8Q/gIAAAAAAAD0AOEvAAAAAAAAQA8Q/gIAAAAAAAD0AOEvAAAAAAAAQA+oNBqNolxMkmazmVqtVi6v6V/+ucjsizdy7Uc3U3xaPrp+lfuTh765J0Ov7s3vfa6SdNC7Xa+Nqtfrm3o/ANbLOgPmAWwF8wrMA6A/WfuAfmPdA/pNvV5PtVrN5ORkkmRsbCzZip2/sy/eyE/e2lg4207xafKTt25m9sUbK7XN9m7XCwAAAAAAAKCXdD38vfajm+VSR1r7ddq70/MBAAAAAAAAdquuh78b3ZW7ltZ+nfbu9HwAAAAAAACA3arr4S/0l5mMVkYzUy4nWZgYytDEQrm8ah0AAIBtNDOaSqWSytBEFpLMjFYWv69UUlnlOm/ZXa/rZkZXPdb6GqOrvMB6xiQLmRj6Wp752lrjAACAfrND4e8DOXppXw6Wy3BPmcloZSRny+UkWZjI8fG5cnX1OgAAANvv5HSK2VMZyEKuXh7MmfkiRVGkKKYyXB677C7XdQsTQxl6Ozl25fsrofKKmdGMXD6T+aJIUczn0Omh3JERz4xmJNNLP8N0MrJKCL3wTi7keL7/4yLTJ8sHAQCAfrZD4S/c6xYyMfR2ni6mc+d19kImjl/I4ZOD66wDAACwoxbeyYW5w3lkoHyg7O7XdQOnZnP+0OWM5+mlUPmWhauXM3jsqaXaQJ46llx4p5T+Dk+lmFo1dl6x8M6FZKUXAADALdsc/n42jzf350Tz8zlU+0wGm/tzovmFHD1aHge73UBOzbb/JPjCxPFcOHY+f35ofXUAAAB22PyVzA1ezunl2z6vch/lNa/rFiZy/MrLmT90+o5bPw88cjhzF95Z2g28kHcutN89nKUdxJXKSDLd/rpz/kpy7CnRLwAAcKdtDn9/nfeq13Ou+otcqf8mc9XrOVf9eS5eLI/buINv7M+J5v6cuPRgvlg+CNtlYSLHLxzL+VOli/DV6gAAAOy84akU58/nfLF42+f5Q6fvfI7ueq7rBk5ldmo4A6dmM1seNzyV6cPjOVCppFI5niuH2+8eztIO4qIo8vTb7Z7nO5O3z65nlzIAANCPtjn83TofP3c956rXc+7IL/Oz8kHYJgvvXMjc3OLF/IHxucyNH8jQxMKqdQAAAHaJgYHbbqN8+ert12zduK4bnlp+pvBsns5cDq+R4B44NHjHz5GZt3P25NNtdwQDAADsUPj721w80sjH5TLc45Y/nV0URebPDGbwzHxmTw2sWgcAAGAXmBm941bP5WC24+u61tdYmMjpsyfzdDnBLf0c81fuDIhn3j6bk3ecCAAAsGiHwl8AAACAXWJ4KtMZWXzeb6WS4zmfqeEkmcloZTR33Hn5Nncb03Ks9TUOjOfwyvN8VxlTqeT0ofnSz7GQq5cHc+jA7a8CAACwTPgLHRnOVLF8wX67ts94uksdAACAnXPrlsxFyzXbcJ4+WRp4x3Vd+zGLbj/W+hqLoe7dx9z5GgM5NTsbl5QAAMBquh7+Vu4vVzrT2q/T3p2eDwAAAPSQsyOpDE1k9Sf3LuTqobWer3u3MXc7tmyzYxYyMVTJyNnbigAAQJ/revj70Df3lEsdae3Xae9OzwcAAAB6xPDU4g7b2VNZfSPtQE6dunsse/cxdzu2bLNjBnJqtryLGAAA6HddD3+HXt2brzyzp+NdtpX7k688sydDr+5dqW22d7teAAAAAAAAAL2k0mg0inIxSZrNZmq1Wrnct+r1uvcD2FLWGTAPYCuYV2AeAP3J2gf0G+se0G/q9Xqq1WomJyeTJGNjY8lW7PwFAAAAAAAAYPsJfwEAAAAAAAB6gPAXAAAAAAAAoAcIfwEAAAAAAAB6gPAXAAAAAAAAoAcIfwEAAAAAAAB6QKXRaBTlYpI0m81yCQAAAAAAAIBdoFqtZnJyMkkyNjaWrBX+7qvUyuW+1Sjq3g9gS1lnwDyArWBegXkA9CdrH9BvrHtAv2kU9bbhr9s+AwAAAAAAAPQA4S8AAAAAAABADxD+AgAAAAAAAPQA4S8AAAAAAABADxD+AgAAAAAAAPQA4S8AAAAAAABAD6g0Go2iXEySZrOZfZVaubymT39V5KPTN/LT92+m+F356PpV7ku+9I09efTlvbn/DypJB73b9dqoRlHf1PsBsF7WGTAPYCuYV2AeAP3J2gf0G+se0G8aRT3VajWTk5NJkrGxsWQrdv5+dPpGPnl3Y+FsO8Xvkk/evZmPTt9YqW22d7teAAAAAAAAAL2k6+HvT9+/WS51pLVfp707PR8AAAAAAABgt+p6+LvRXblrae3Xae9OzwcAAAAAAADYrboe/kJ/mcl4bTTvlctJ6q8N5YnXFla+f+87lVRry1/tzwGAXeWD0cU/t56dyP9a+nOtbPHPvfcz+ezin3XjH5RHAAAAAABbTfgLmzaT8dpIflguJ8m1iXz7lbmWwkLmrw7mr/++SLNepFmfyuMtRwFg13p+Os03T+XfluttPZSxN4u88Xy5DgAAAABshx0Kfx/I0Uv7crBchnvGQiaffTtP1qfzrfKhLGTyzy7kq88P3ipdeydv/fhwDjzUOg4A7h212uF8tTZwq/DB6G07ge84DgAAAABsux0Kf+FeN5CxN9vv3q2/djxvjZzPnz7cUvynK/nwa5fzveXbPn9npuUgANwDHpvKmcfKxRZrHQcAAAAAttw2h7+fzePN/TnR/HwO1T6Tweb+nGh+IUePlsfBPeraRL49fSw/eKG08+mxqTT/5nx+UF+87fOlh097FiIA96bl5wC/cDYfvnLAh5oAAAAAYBfZ5vD313mvej3nqr/IlfpvMle9nnPVn+fixfK4jTv4xv6caO7PiUsP5ovlg7BN6u9fyIc/Hs+RWiVHXpnLh68cuHVLzIcGUmsZ+w/1W7fKBIB7xmNTi8+vf+1kvv7S/OJ/f3e4PAoAAAAA2AHbHP5unY+fu55z1es5d+SX+Vn5IGyT2guzi/8IXi9y6aXBfP2l+bz7wsDiLqnSrijPRQQAAAAAAKCbdij8/W0uHmnk43IZetVjU3kjI4u3xqxV8u2c91xEAO5tj00tfsAJAAAAANg1dij8hV4xnDP1qTxeLi/tAm79R/HHv7u4I7hZL/xjOQAAAAAAAF0n/AUAYHWvj6T67ETq5XpbC5l8tpLnXi/XAQAAAIDt0PXwt3JfudKZ1n6d9u70fACAvvLY1OJdK948lVr5WFsDGXtz8S4XHm8AAAAAANuv6+Hvl76xp1zqSGu/Tnt3ej4AAAAAAADAbtX18PfRl/fmy0/s6XiXbeW+5MtP7MmjL+9dqW22d7teAAAAAAAAAL2k0mg0inIxSZrNZvZV1neDv37QKOreD2BLWWfAPICtYF6BeQD0J2sf0G+se0C/aRT1VKvVTE5OJknGxsaSrdj5CwAAAAAAAMD2E/4CAAAAAAAA9ADhLwAAAAAAAEAPEP4CAAAAAAAA9ADhLwAAAAAAAEAPEP4CAAAAAAAA9IBKo9EoysUkaTab5RIAAAAAAAAAu0C1Ws3k5GSSZGxsLFkr/K3VauVy36rX694PYEtZZ8A8gK1gXoF5APQnax/Qb6x7QL+p1+ttw1+3fQYAAAAAAADoAcJfAAAAAAAAgB4g/AUAAAAAAADoAcJfAAAAAAAAgB4g/AUAAAAAAADoAcJfAAAAAAAAgB5QaTQaRbmYJM1mM7VarVxe07/8c5HZF2/k2o9upvi0fHT9KvcnD31zT4Ze3Zvf+1wl6aB3u14bVa/XN/V+AKyXdQbMA9gK5hWYB0B/svYB/ca6B/Sber2earWaycnJJMnY2FiyFTt/Z1+8kZ+8tbFwtp3i0+Qnb93M7Is3Vmqb7d2uFwAAAAAAAEAv6Xr4e+1HN8uljrT267R3p+cDAAAAAAAA7FZdD383uit3La39Ou3d6fkAAAAAAAAAu1XXw1+4N8xktDKamXI5ycLEUIYmFla+nxmtpFJZ/Bptd8LdLExkaOnc5a/W3ndYmMjQ0ETuMgIAAAAAAADa2qHw94EcvbQvB8tl2BYzGa2M5Gy5nMXw9fj43K3vZ0YzkukURZGimE5G2gfGdzV4JvNFsdSjyOypgfIIAAAAAAAA6NgOhb+wUxYyMfR2ni6mc7J8KAuZOH4hh08O3ioNT6WYGm4d1DULE0O3dgTfsaV4IRNDq+wWnhm9y3kAAAAAAAD0q20Ofz+bx5v7c6L5+RyqfSaDzf050fxCjh4tj4OtMpBTs1NpF+cuTBzPhWPn8+eHykeWg9qRZLr9uXc1N54Dy2Ht8i2dFyZy/MKxpR3B0zl59u3bdxTPfD/jh2/tOD48/v3F4wsTGTp9aGUn8XRGNn4ragAAAAAAAHrSNoe/v8571es5V/1FrtR/k7nq9Zyr/jwXL5bHbdzBN/bnRHN/Tlx6MF8sH4S1LIWx51e5JfPAqdkURZGn397Ec39bb/s8eyoDSTJwKrPnk+OVSiqVkZzN5VxtfdDvgUMZPDuytLs3mSqWQuf5K5lrCZNHziaXbzsRAAAAAACAfrXN4e/W+fi56zlXvZ5zR36Zn5UPwhoW3rmwEqoeGJ/L3PiB22+1vOTAocE7wtaZ0Vu3Z173bZhnRlM5cCUvL+/8LR8fOJXZokgxf2YlBF5pfXJ5R7BnCAMAAAAAAHDLDoW/v83FI418XC7DDlne2VsURebPDGbwzPxiqDozelugO39lLocfuT1sHZ66FcRu6PnAJ59e3M0783bOlg5dmxhafN2lEHj65NIO3wOHMnj2dBZz6cXnAq83bwYAAAAAAKC37VD4C/eI4alMZ+n2y5VKTh+az0by3VUNP52Ty7d1fjs5mblcmb91+KFTs7e97sjlM4u3pB44ldnpwxk/UEmlciDjh6e78/MAAAAAAABwz6s0Go2iXEySZrOZWq1WLq/pXPV6udSxE839SZd6L/faqHq9vqn3A2C9rDNgHsBWMK/APAD6k7UP6DfWPaDf1Ov1VKvVTE5OJknGxsaSrdj5W7m/XOlMa79Oe3d6PgAAAAAAAMBu1fXw96Fv7imXOtLar9PenZ4PAAAAAAAAsFt1PfwdenVvvvLMno532VbuT77yzJ4Mvbp3pbbZ3u16AQAAAAAAAPSSrj/zt1d5XgCw1awzYB7AVjCvwDwA+pO1D+g31j2g32zbM38BAAAAAAAA2H7CXwAAAAAAAIAeIPwFAAAAAAAA6AHCXwAAAAAAAIAeIPwFAAAAAAAA6AHCXwAAAAAAAIAeUGk0GkW5mCTNZrNcAgAAAAAAAGAXqFarmZycTJKMjY0la4W/+yq1crlvNYq69wPYUtYZMA9gK5hXYB4A/cnaB/Qb6x7QbxpFvW3467bPAAAAAAAAAD1A+AsAAAAAAADQA4S/AAAAAAAAAD1A+AsAAAAAAADQA4S/AAAAAAAAAD1A+AsAAAAAAADQAyqNRqMoF5Ok2WxmX6VWLq/p018V+ej0jfz0/Zspflc+un6V+5IvfWNPHn15b+7/g0rSQe92vTaqUdQ39X4ArJd1BswD2ArmFZgHQH+y9gH9xroH9JtGUU+1Ws3k5GSSZGxsLNmKnb8fnb6RT97dWDjbTvG75JN3b+aj0zdWapvt3a4XAAAAAAAAQC/pevj70/dvlksdae3Xae9OzwcAAAAAAADYrboe/m50V+5aWvt12rvT8wEAAAAAAAB2q66HvwAAAAAAAABsP+EvdGQm47XRvFcuJ6m/NpQnXltY+e9qrXLb1/IxAAAAtsEHo4vXY89OpJ7kve+0XqO1v65b1np9d4cPRlc91voa4x+Ujy5az5hkIZPPDmXyWrletpDJZ9fqBQAA9LIdCn8fyNFL+3KwXIZ7ykzGayP5YbmcJNcm8u1X5la+rb0wm2a9WPz6+zP5ek7mL14YuO0UAAAAttjz02m+eSq1LGT+6mD++u+XrtPqU3m8PHZZ6fquVf21oTzxd8kz//j9lVB5xQejee7qmVyqF2nW53Pwb9uEtx+M5rlML/0M08kLq4TQ197JWzmWP36ofKBsIGNvFnnj+XIdAADoFzsU/sK9biGTz76dJ+vT+Vb5UBYy+WcX8tXnB8sHkiTvnR3PV1+7yz8sAAAAsLWuvZO3fnw4B9YMU+9+fVd7YTY/ePhy/ipPL4XKt9Trl/P1kaeWagP545HkrfdLO4Qfm0rzu8O319qov38hWelVcpedxwAAQP/Z5vD3s3m8uT8nmp/PodpnMtjcnxPNL+To0fI42O0GMvZm+wC3/trxvDVyPn/6cPnI4ifGv3f1TP70sfIBAAAAts0/XcmHX7uc7y3f9vk7M+URyVrXd1naFfyPL+fSw6fvCGBrtcP5cPqdpd3AC/kv0+13D2flUUEjySofFK7/Y/LMN9w9CgAAWNs2h7+/znvV6zlX/UWu1H+Tuer1nKv+PBcvlsdt3ME39udEc39OXHowXywfhO1ybSLfnj6WH6xyS+f3zo6v/mltAAAAtsdjU2n+zfn8YOnxPJcePn3nM3LXuL5Lkjx0Ku9+dzi1F2bzbnncY1N545HxHKlVUq0dz8ePtN89nJZHBT35d+2e1TuT//x6m13Ky88wfuFsPnzlwF1DbAAAoH9sc/i7dT5+7nrOVa/n3JFf5mflg7BN6u9fyIc/Xry4P/LKXD585UDLp79n8p9f96xfAACAXeGhgds+mPsP9dt37t79+m59Hv/u8jOFZ/Nk5vLV2t2vB2sPD97xc+SDt/PD55++c0fwY1OLvV87ma+/NL/43+u4hTQAANDbdij8/W0uHmnk43IZ7nHLn9Zu1otcemkwX39p/tanv69dzT987ZBdvwAAADvtg9E7dsmWg9m7Xt+tR+trXJvI914/mSfLjwAq/Rz1f7wzIH7v787mW/9OqAsAAKzPDoW/0If+6Uo+fOQR4S8AAMBOe2wqb2Rk8VbJtUq+nfM581iSzGS8Npr3yuNvc7cxLcdaX+OPxvPVlef5rjKmVsn3Hp4v/RwLmb86mIN/2Kb/ssemNhZKAwAAPU34Cx0Zzpn68gX87e545tNjU27BBQAAsEvcuiVz0XLtNpwnny8NvOP6rv2YRbcfa32NxVD37mPufI2BjL05m7GV5/3e7bUBAAC2IPyt3FeudKa1X6e9Oz0fAAAAuIe9PpLqsxOpl+srFjL/cJvn697mbmPudmxZJ2NWqy9byOSzlTz3erkOAAD0i0qj0SjKxSRpNpvZV9n4DWr/9/+hmU/evVkub9qXn9iT//5/qSZd6N3aa6MaRX1T7wfAellnwDyArWBegXkA9CdrH9BvrHtAv2kU9VSr1UxOTiZJxsbGkq3Y+fvoy3vz5Sf2dLzLtnLfYlj76Mt7V2qb7d2uFwAAAAAAAEAv6frO317lU0PAVrPOgHkAW8G8AvMA6E/WPqDfWPeAfrNtO38BAAAAAAAA2H7CXwAAAAAAAIAeIPwFAAAAAAAA6AHCXwAAAAAAAIAeIPwFAAAAAAAA6AHCXwAAAAAAAIAeUGk0GkW5mCTNZrNcAgAAAAAAAGAXqFarmZycTJKMjY0la4W/tVqtXO5b9Xrd+wFsKesMmAewFcwrMA+A/mTtA/qNdQ/oN/V6vW3467bPAAAAAAAAAD1A+AsAAAAAAADQA4S/AAAAAAAAAD1A+AsAAAAAAADQA4S/AAAAAAAAAD1A+AsAAAAAAADQAyqNRqMoF5Ok2WymVquVy2v6l38uMvvijVz70c0Un5aPrl/l/uShb+7J0Kt783ufqyQd9G7Xa6Pq9fqm3g+A9bLOgHkAW8G8AvMA6E/WPqDfWPeAflOv11OtVjM5OZkkGRsbS7Zi5+/sizfyk7c2Fs62U3ya/OStm5l98cZKbbO92/UCAAAAAAAA6CVdD3+v/ehmudSR1n6d9u70fAAAAAAAAIDdquvh70Z35a6ltV+nvTs9HwAAAAAAAGC36nr4C/1lJqOV0cyUy0kWJoYyNLFw2/eVSmXxa7TdGQBwD5gZXfyzbOilvDS0+OeaP9YAAAAAYHcQ/sKmzWS0MpKz5XKSLEzk+Pjc7d9fOJb5okhRzOfM5RH/UA7AvevkdIrZV/LKbJHpk+WDAAAAAMBO2aHw94EcvbQvB8tluGcsZGLo7TxdTOfOf/NeyMTxCzl8crB8oMVgDh0o1wAAAAAAAGDzdij8hXvdQE7NTmW4XE6yMHE8F46dz58faikOnMrs+eR4pZJK5XhyfjanBlqOAwAAAAAAQIe2Ofz9bB5v7s+J5udzqPaZDDb350TzCzl6tDwO7lFLt3c+X052Z0ZTOZ6cL4oUxfnkuOcjAgAAAAAA0F3bHP7+Ou9Vr+dc9Re5Uv9N5qrXc67681y8WB63cQff2J8Tzf05cenBfLF8ELbJwjsXMjc3ngOVSg6Mz2Vu/ECGJhaycPVyBo89lcVIeCCnXj6Zs29LfwEAAAAAAOiebQ5/t87Hz13Puer1nDvyy/ysfBC2ycCp2RRFkaIoMn9mMINn5jN7aiADjxzO3IV3srA0bubtsxn00F8AAAAAAAC6aIfC39/m4pFGPi6XoVcNT2X68OKO4EqlkpFMZ7Z8a2gAAAAAAADowA6Fv9ArhjNVTGW4XF7aBdwa8A5PLe4ILooixVS7MwAAAAAAAGDzuh7+Vu4vVzrT2q/T3p2eDwBAkrMjqQy9lJeGKhk5Wz4IAAAAAOyUroe/D31zT7nUkdZ+nfbu9HwAgL43PLV4F4vZV/LK7OIdLdzQAgAAAAB2h66Hv0Ov7s1XntnT8S7byv3JV57Zk6FX967UNtu7XS8AAAAAAACAXlJpNBpFuZgkzWYztVqtXO5b9Xrd+wFsKesMmAewFcwrMA+A/mTtA/qNdQ/oN/V6PdVqNZOTk0mSsbGxZCt2/gIAAAAAAACw/YS/AAAAAAAAAD1A+AsAAAAAAADQA4S/AAAAAAAAAD1A+AsAAAAAAADQA4S/AAAAAAAAAD2g0mg0inIxSZrNZrkEAAAAAAAAwC5QrVYzOTmZJBkbG0vWCn/3VWrlct9qFHXvB7ClrDNgHsBWMK/APAD6k7UP6DfWPaDfNIp62/DXbZ8BAAAAAAAAeoDwFwAAAAAAAKAHCH8BAAAAAAAAeoDwFwAAAAAAAKAHCH8BAAAAAAAAeoDwFwAAAAAAAKAHVBqNRlEuJkmz2cy+Sq1cXtOnvyry0ekb+en7N1P8rnx0/Sr3JV/6xp48+vLe3P8HlaSD3u16bVSjqG/q/QBYL+sMmAewFcwrMA+A/mTtA/qNdQ/oN42inmq1msnJySTJ2NhYshU7fz86fSOfvLuxcLad4nfJJ+/ezEenb6zUNtu7XS8AAAAAAACAXtL18Pen798slzrS2q/T3p2eDwAAAAAAALBbdT383eiu3LW09uu0d6fnAwAAAAAAAOxWXQ9/AQAAAAAAANh+wl/oyEzGa6N5r1xOUn9tKE+8trDy/XvfqaRaW/wa/+C2oQCwO30wuvhn17MT+V9Lf66VLf65934mn/VnHQAAAADslB0Kfx/I0Uv7crBchnvKTMZrI/lhuZwk1yby7Vfmbn3/wWieu3oml+pFmvX5HPzboUxeaz0BAHap56fTfPNU/m253tZDGXuzyBvPl+sAAAAAwHbYofAX7nULmXz27TxZn863yoeykMk/u5CvPj+4UqnXL+frI0+lliQZyB+PJG+9v/ruKQDYbWq1w/lqbaBcXrHWcQAAAABg621z+PvZPN7cnxPNz+dQ7TMZbO7PieYXcvRoeRzsdgMZe3Mqj5fLSeqvHc9bI+fzpw/fqtVqh/Ph9DupJ0kW8l+mW3YFA8C94LGpnHmsXGyx1nEAAAAAYMttc/j767xXvZ5z1V/kSv03matez7nqz3PxYnncxh18Y39ONPfnxKUH88XyQdgu1yby7elj+cELpZ1Pj03ljUfGc6RWSbV2PB8/cmtXMAAAAAAAAHTDNoe/W+fj567nXPV6zh35ZX5WPgjbpP7+hXz448WQ98grc/nwlQN54rXF2zs//t0izXqRZn02T2bOrTEBuAfNZLxWSfWOr9G8Vx4KAAAAAGy7HQp/f5uLRxr5uFyGe1zthdmlgLfIpZcG8/WX5vPuCwPJB6OpfmdmcdC1iXzv9ZN50q0xAbjnDOfM0p9zt3+1fxQCAAAAALC9dij8hT7z2FTeyMji7qg/Gs9XX/OP5AAAAAAAAHSX8Bc6Mpwzq+x2qr0wu7jrd8mt2z4XOWPXLwAAAAAAAF3W9fC3cl+50pnWfp327vR8AIC+8/pIqs9OpF6ut7WQyWcree71ch0AAAAA2A5dD3+/9I095VJHWvt12rvT8wEA+spjU4t3rXjzVGrlY20NZOxNd7kAAAAAgJ3S9fD30Zf35stP7Ol4l23lvuTLT+zJoy/vXalttne7XgAAAAAAAAC9pNJoNIpyMUmazWb2Vda3x6MfNIq69wPYUtYZMA9gK5hXYB4A/cnaB/Qb6x7QbxpFPdVqNZOTk0mSsbGxZCt2/gIAAAAAAACw/YS/AAAAAAAAAD1A+AsAAAAAAADQA4S/AAAAAAAAAD1A+AsAAAAAAADQA4S/AAAAAAAAAD2g0mg0inIxSZrNZrkEAAAAAAAAwC5QrVYzOTmZJBkbG0vWCn9rtVq53Lfq9br3A9hS1hkwD2ArmFdgHgD9ydoH9BvrHtBv6vV62/DXbZ8BAAAAAAAAeoDwFwAAAAAAAKAHCH8BAAAAAAAAeoDwFwAAAAAAAKAHCH8BAAAAAAAAeoDwFwAAAAAAAKAHVBqNRlEuJkmz2UytViuX1/Qv/1xk9sUbufajmyk+LR9dv8r9yUPf3JOhV/fm9z5XSTro3a7XRtXr9U29HwDrZZ0B8wC2gnkF5gHQn6x9QL+x7gH9pl6vp1qtZnJyMkkyNjaWbMXO39kXb+Qnb20snG2n+DT5yVs3M/vijZXaZnu36wUAAAAAAADQS7oe/l770c1yqSOt/Trt3en5AAAAAAAAALtV18Pfje7KXUtrv057d3o+AAAAAAAAwG7V9fAX7i0zGa2MZqa1MlpJpbL4NdpyYGFiaKVeaT2wloWJDC2fd9vXUCYWyoMBAAAAAABgc4S/9LGZjFZGcva20mhGMp2iKFIU08nIUjC8MJHjF45lvihSFPM5c3nktmD4rgZOZbYoUhRF5s8MZvDM/FL/2ZwaKA8GAAAAAACAzdmh8PeBHL20LwfLZdg2C5kYejtPF9M52VoenkoxNdxaWcVgDh0o1zZhYSJDQ6MZHaqkUhnNzMJEhoYmsrgheCETQy27g2dGN7fzGAAAAAAAgL6wQ+Ev7LSBnJqdymox7+ItnkeS6aUxA6cyez45XqmkUjmenO/irt25yzl0vkhRrP7zZGEiQ6cPLe08LjKdDew8BgAAAAAAoC9sc/j72Tze3J8Tzc/nUO0zGWzuz4nmF3L0aHkc7KyBU7MpiiJPv7303N+Z0VSOJ+eLIkVxPjl++/OAOzJ4LE+tFSTPX8nc3HgOLO38HTmbXL7qgcEAAAAAAADcss3h76/zXvV6zlV/kSv132Suej3nqj/PxYvlcRt38I39OdHcnxOXHswXywdhkw4cGszlqwtZuHo5g8eeymJGO5BTL5/M2bdvT39nRpduydy12zLP58pcy7cnl59FvPg127WtxwAAAAAAAPSCbQ5/t87Hz13Puer1nDvyy/ysfBDWa2b0tuB2/spcDj8ykIFHDmfuwjtLz+JNZt4+m8HSQ3+Hp24Fs+t7bvAq5q5kPkkWrubycu3AoQyePb30/N+FTAx1cecxAAAAAAAAPWGHwt/f5uKRRj4ul2GnDU9lOiMrO3hPH5rP1PBS/XDLbZczvTU7bwdO5eWTZzNSqaRy/EoOD96qz04fzviBSiqVAxk/PL34cwEAAAAAAMCSSqPRKMrFJGk2m6nVauXyms5Vr5dLHTvR3J90qfdyr42q1+ubej8A1ss6A+YBbAXzCswDoD9Z+4B+Y90D+k29Xk+1Ws3k5GSSZGxsLNmKnb+V+8uVzrT267R3p+cDAAAAAAAA7FZdD38f+uaecqkjrf067d3p+QAAAAAAAAC7VdfD36FX9+Yrz+zpeJdt5f7kK8/sydCre1dqm+3drhcAAAAAAABAL+n6M397lecFAFvNOgPmAWwF8wrMA6A/WfuAfmPdA/rNtj3zFwAAAAAAAIDtJ/wFAAAAAAAA6AHCXwAAAAAAAIAeIPwFAAAAAAAA6AHCXwAAAAAAAIAeIPwFAAAAAAAA6AGVRqNRlItJ0mw2yyUAAAAAAAAAdoFqtZrJyckkydjYWLJW+LuvUiuX+1ajqHs/gC1lnQHzALaCeQXmAdCfrH1Av7HuAf2mUdTbhr9u+wwAAAAAAADQA4S/AAAAAAAAAD1A+AsAAAAAAADQA4S/AAAAAAAAAD1A+AsAAAAAAADQA4S/AAAAAAAAAD2g0mg0inIxSZrNZvZVauXymj79VZGPTt/IT9+/meJ35aPrV7kv+dI39uTRl/fm/j+oJB30btdroxpFfVPvB8B6WWfAPICtYF6BeQD0J2sf0G+se0C/aRT1VKvVTE5OJknGxsaSrdj5+9HpG/nk3Y2Fs+0Uv0s+efdmPjp9Y6W22d7tegEAAAAAAAD0kq6Hvz99/2a51JHWfp327vR8AAAAAAAAgN2q6+HvRnflrqW1X6e9Oz0fAAAAAAAAYLfqevgLAAAAAAAAwPYT/kJHZjJeG817LZX3vlNJtbb4Nf7B2nVgdzBHAei+hUw+e+vPl+p3ZsoDAAAAALpqh8LfB3L00r4cLJfhnjKT8dpIftha+mA0z2U6zXqRZn06eWEpGP5gNM9dPZNL9SLN+nwO/u1QJq+1ngjsKHMUgC1Qf+14/uqR5b8bzuevr474gBEAAACwpXYo/IV73UImn307T9an863W8mNTaX53uLWSJKnXL+frI0+lliQZyB+PJG+9v1AeBuwQcxSArVB7Ybbl74YD+eORwfxD3Z8vAAAAwNbZ5vD3s3m8uT8nmp/PodpnMtjcnxPNL+To0fI42O0GMvbmVB4vl5fUXxtKtTaSvLY4plY7nA+n30k9SbKQ/zI9Vz4F2EHmKABbbyb/8ZXD+YsXBsoHAAAAALpmm8PfX+e96vWcq/4iV+q/yVz1es5Vf56LF8vjNu7gG/tzork/Jy49mC+WD8I2q70wm2a9yJN/t/Ts0Mem8sYj4zlSq6RaO56PHxksnwLsJHMUgC01k/Ha6Rz8+9U/PAgAAADQDdsc/m6dj5+7nnPV6zl35Jf5Wfkg7JDaw7du7ff4d4ul573N5snM5as1uz5gNzFHAdgS1ybyRO10Dv79bMYeKh8EAAAA6K4dCn9/m4tHGvm4XIZ73QejqX5nZuXb+j8uBUit9WsT+d7rJ/PkY7dOA3aYOQrAVrg2kSf+6Er+oi74BQAAALbHDoW/0KMem8obGUm1Vkm1Vsn3Hp7PmcdK9T8az1eXngUM7BLmKABb4L2z4/kwZ/Pc0t8Nq7VKnnht8a4wAAAAAFuh0mg0inIxSZrNZvZVauXymv7T166XSx379z/en3Sp93KvjWoU9U29HwDrZZ0B8wC2gnkF5gHQn6x9QL+x7gH9plHUU61WMzk5mSQZGxtLtmLnb+W+cqUzrf067d3p+QAAAAAAAAC7VdfD3y99Y0+51JHWfp327vR8AAAAAAAAgN2q6+Hvoy/vzZef2NPxLtvKfcmXn9iTR1/eu1LbbO92vQAAAAAAAAB6Sdef+durPC8A2GrWGTAPYCuYV2AeAP3J2gf0G+se0G+27Zm/AAAAAAAAAGw/4S8AAAAAAABADxD+AgAAAAAAAPQA4S8AAAAAAABADxD+AgAAAAAAAPQA4S8AAAAAAABAD6g0Go2iXEySZrNZLgEAAAAAAACwC1Sr1UxOTiZJxsbGkrXC31qtVi73rXq97v0AtpR1BswD2ArmFZgHQH+y9gH9xroH9Jt6vd42/HXbZwAAAAAAAIAeIPwFAAAAAAAA6AHCXwAAAAAAAIAeIPwFAAAAAAAA6AHCXwAAAAAAAIAeIPwFAAAAAAAA6AGVRqNRlItJ0mw2U6vVyuU1/cs/F5l98Uau/ehmik/LR9evcn/y0Df3ZOjVvfm9z1WSDnq367VR9Xp9U+8HwHpZZ8A8gK1gXoF5APQnax/Qb6x7QL+p1+upVquZnJxMkoyNjSVbsfN39sUb+clbGwtn2yk+TX7y1s3MvnhjpbbZ3u16AQAAAAAAAPSSroe/1350s1zqSGu/Tnt3ej4AAAAAAADAbtX18Heju3LX0tqv096dng8AAAAAAACwW3U9/IX+MpPRymhmyuUkCxNDGZpYuFWYGU2lUkmlUslouxMAAADojuXrr6GJLCSZGV28Flv8an8Nt+yOa7lWM6OrHmt9jdWu+dYzJlnIxNBQVnmZu1jIxFDL/+fozG211V8PAADoJcJf2LSZjFZGcrZcTpKFiRwfn2spzGR05HLOzBcp5s/k8sjd/7EBAACADp2cTjF7KgNZyNXLg4vXY0WRopjKcHnssjuu5W5ZmBjK0NvJsSvfXwmVV8yMZuTymcwXRYpiPodOtwlvZ0Yzkumln2E6We26cOGdXMixPDVQPnB3CxPHM354uf98zlweyejMQE7NFpk+WR4NAAD0qh0Kfx/I0Uv7crBchnvGQiaG3s7TxXTuvIZeyMTxCzl8crCldDWXB5cu3geeyrHBy7la/ocAAAAAum/hnVyYO5xH1gxT21zLtRg4NZvzhy5nPE8vhcq3LFy9nMFjTy3VBvLUseTCO6WLvuGpFFOrxs4rFt65kKz0KrnLzuOBU7Mt/Qfy1LHBXHbhCQAAfWeHwl+41w3k1Gz7T4svTBzPhWPn8+eHWorzVzJ3+JGVfwh45PBcrsy3HAcAAGBrzF/J3ODlnL7tdsh3anst12phIsevvJz5Q6fvCGAHHjmcuQvvLO0GXsg7F9rvHs7SDuJKZSSZbn9NOX8lObbRbb93mMn3xw/n5VOd9gEAAO412xz+fjaPN/fnRPPzOVT7TAab+3Oi+YUcPVoeB/eohYkcv3As511gAwAA7A7DUynOn8/5YvG2z/OHTt/5/Nv1XMsNnMrs1HAGTs1mtjxueCrTh8dzoFJJpXI8Vw633z2c5R26RZGn3273HN6ZvH22zS7l5WcYj5zN3PiBu4bYi48oOp1D8+3DZQAAoLdtc/j767xXvZ5z1V/kSv03matez7nqz3PxYnncxh18Y39ONPfnxKUH88XyQdgmC+9cyNzc4gX/gfG5zI0fWPxE+IFDGbx8deVT4FcvD+bQgfLZAAAAbImBgdtuo1y+HfKq13IbMDy1/Ezh2TyduRy+I8G93YFDbW7LPPN2zp58+s7Qdnhqsff0yQyemV/873a3kF6YyFDldA7Nz6acTwMAAP1hm8PfrfPxc9dzrno95478Mj8rH4RtsvwJ7qIoMn9mMINn5hc/ET7wSA7PXcg7Cxt53hQAAAAdmxm9Y5dsOZhd9VpuvVpfY2Eip8+ezNPlbLb0c8xfuTMgnnn7bE7eceI6LUxk6MCVvFwIfgEAoJ/tUPj721w80sjH5TL0rOFMTR/O+IFKKgfGc3iVZzsBAADQZcNTmc7I4q2SK5Ucz/ksbpqdyWhlNKvdPHnR3ca0HGt9jduu+VYZU6nk9KH50s9RvktUm9ceniqF0rfGzHx/PHM5m5HlZxtXKhvevQwAANz7dij8hV4xnKmifZB7x3Oglm/TVRRLF/gAAABsh1u3ZC5artOG8/TJ0sA7ruXaj1l0+7HW17h1zbf6mDtfYyCnZlt37d7ttZfdGtPa+87XAAAA+kXXw9/K/eVKZ1r7ddq70/MBAACAe8TZkVSGJrL63teFXD3U5vm6t7nbmLsdW9bJmNXqrdYas5CJoUpGzpbrAABAr+p6+PvQN/eUSx1p7ddp707PBwAAAO4By3demj2V1fe+DuTUqdVj00V3G3O3Y8s6GbNavdVaYwZyara8GxkAAOhlXQ9/h17dm688s6fjXbaV+5OvPLMnQ6/uXalttne7XgAAAAAAAAC9pNJoNIpyMUmazWZqtVq53Lfq9br3A9hS1hkwD2ArmFdgHgD9ydoH9BvrHtBv6vV6qtVqJicnkyRjY2PJVuz8BQAAAAAAAGD7CX8BAAAAAAAAeoDwFwAAAAAAAKAHCH8BAAAAAAAAeoDwFwAAAAAAAKAHCH8BAAAAAAAAekCl0WgU5WKSNJvNcgkAAAAAAACAXaBarWZycjJJMjY2lqwV/u6r1MrlvtUo6t4PYEtZZ8A8gK1gXoF5APQnax/Qb6x7QL9pFPW24a/bPgMAAAAAAAD0AOEvAAAAAAAAQA8Q/gIAAAAAAAD0AOEvAAAAAAAAQA8Q/gIAAAAAAAD0AOEvAAAAAAAAQA+oNBqNolxMkmazmX2VWrm8pk9/VeSj0zfy0/dvpvhd+ej6Ve5LvvSNPXn05b25/w8qSQe92/XaqEZR39T7AbBe1hkwD2ArmFdgHgD9ydoH9BvrHtBvGkU91Wo1k5OTSZKxsbFkK3b+fnT6Rj55d2PhbDvF75JP3r2Zj07fWKlttne7XgAAAAAAAAC9pOvh70/fv1kudaS1X6e9Oz0fAAAAAAAAYLfqevi70V25a2nt12nvTs8HAAAAAAAA2K26Hv4CAAAAAAAAsP2Ev/SpmYzXRvNeuZyk/tpQnnhtoVRdffxdXZvIE7VKqi1fd/ZucW0iTzw7kXq5DgAAAAAAAGvYofD3gRy9tC8Hy2XYFjMZr43kh+VyFsPXb78yVyreZfx6fO1MLtWLNJe+3n1hoDwCAAAAAAAAOrZD4S/slIVMPvt2nqxP51vlQ1nI5J9dyFefH7y9tur4ztRfG7q1I/g7M6WjC5l8dpXdwh+M3uU8AAAAAAAA+tU2h7+fzePN/TnR/HwO1T6Tweb+nGh+IUePlsfBVhnI2JtTebxcTlJ/7XjeGjmfP324tbr6+HX78XiOLIe1y7d0vjaRb08fW9oRPJ1vvf727beU/uD7+atHppd2C0/nq698f/H4tYk88beHVnYSv5GRjH/QeiIAAAAAAAD9apvD31/nver1nKv+Ilfqv8lc9XrOVX+eixfL4zbu4Bv7c6K5PycuPZgvlg/CWpbC2B9sxS2ZW2/7/Oap1JLkoVN592+Sb9cqqdZG8sNczvy1lnP+8FC+/vrI0u7e5Ex9KYD+pyv5sCVMfu715B/qd3mGMAAAAAAAAH1jm8PfrfPxc9dzrno95478Mj8rH4Q11N+/sBKqHnllLh++cuD2Wy3fxXvfuXV75nXfhvmD0VT/6Er+Ynnnb/n4Q6fybr1I8+/PrITAKzt8n1/eEewZwgAAAAAAANyyQ+Hvb3PxSCMfl8uwQ2ovzK6EqZdeGszXX5pfd6j6+HdvBbHN7w6XD6/u+acXd/N+8HZ+WDr0/3ttaDFIXgqB33h+aYfvHx7K118/nclrWXkusNs+AwAAAAAAkJ0Lf6HPPfZ0vrV8W+e/S76VuXz8T7cO/9sXZvNGlo7XKnnu6pnFW1I/dCrvvnY4f/VHlVRrB/JXj0znzGOtjQEAAAAAAOhXlUajUZSLSdJsNrOvUiuX1/Sfvna9XOrYv//x/qRLvZd7bVSjqG/q/QBYL+sMmAewFcwrMA+A/mTtA/qNdQ/oN42inmq1msnJySTJ2NhYshU7fyv3lSudae3Xae9OzwcAAAAAAADYrboe/n7pG3vKpY609uu0d6fnAwAAAAAAAOxWXQ9/H315b778xJ6Od9lW7ku+/MSePPry3pXaZnu36wUAAAAAAADQS7r+zN9e5XkBwFazzoB5AFvBvALzAOhP1j6g31j3gH6zbc/8BQAAAAAAAGD7CX8BAAAAAAAAeoDwFwAAAAAAAKAHCH8BAAAAAAAAeoDwFwAAAAAAAKAHCH8BAAAAAAAAekCl0WgU5WKSNJvNcgkAAAAAAACAXaBarWZycjJJMjY2lqwV/tZqtXK5b9Xrde8HsKWsM2AewFYwr8A8APqTtQ/oN9Y9oN/U6/W24a/bPgMAAAAAAAD0AOEvAAAAAAAAQA8Q/gIAAAAAAAD0AOEvAAAAAAAAQA8Q/gIAAAAAAAD0AOEvAAAAAAAAQA+oNBqNolxMkmazmVqtVi6v6V/+ucjsizdy7Uc3U3xaPrp+lfuTh765J0Ov7s3vfa6SdNC7Xa+Nqtfrm3o/ANbLOgPmAWwF8wrMA6A/WfuAfmPdA/pNvV5PtVrN5ORkkmRsbCzZip2/sy/eyE/e2lg4207xafKTt25m9sUbK7XN9m7XCwAAAAAAAKCXdD38vfajm+VSR1r7ddq70/MBAAAAAAAAdquuh78b3ZW7ltZ+nfbu9HwAAAAAAACA3arr4S/0l5mMVkYz01oZraRSWf5qOTYzulIfbT0BAAAAAAAAukD4C5s2k9HKSM7eVlvI1cuDOTNfpCiKFMVUhpfHjlxerM+fyeWR2wNjAAAAAAAA6NQOhb8P5OilfTlYLsM9YyETQ2/n6WI6J28rv5MLc4fzyEBrMcnC1VwePJanBpIMPJVjg5dzdaE0BgAAAAAAADqwQ+Ev3OsGcmp2eVdvi/krmRu8nNPLt31evr/z/JXMHX4ki5nwQB45PJcr87efCgAAAAAAAJ3Y5vD3s3m8uT8nmp/PodpnMtjcnxPNL+To0fI4uEcNT6U4fz7ni8XbPs8fOu35vgAAAAAAAGyLbQ5/f533qtdzrvqLXKn/JnPV6zlX/XkuXiyP27iDb+zPieb+nLj0YL5YPgjbaWBgaYfvostXF5IDhzJ4+WoW7/S8+FzgQwdaBgEAAAAAAECHtjn83TofP3c956rXc+7IL/Oz8kHYLjOjt271vOTwIwPJwCM5PHch7yzc5bnAAAAAAAAA0IEdCn9/m4tHGvm4XIZ73fBUpjOy+LzfSiXHcz5Tw0kynKnpwxk/UEnlwHgOT7d5XjAAAAAAAAB0YIfCX+gVw5kqbg9yh6cWn/dbFEVmT7Vs7x2eWqkvBsIAAAAAAADQPcJfAAAAAAAAgB7Q9fC3cn+50pnWfp327vR8AAAAAAAAgN2q6+HvQ9/cUy51pLVfp707PR8AAAAAAABgt+p6+Dv06t585Zk9He+yrdyffOWZPRl6de9KbbO92/UCAAAAAAAA6CWVRqNRlItJ0mw2U6vVyuW+Va/XvR/AlrLOgHkAW8G8AvMA6E/WPqDfWPeAflOv11OtVjM5OZkkGRsbS7Zi5y8AAAAAAAAA20/4CwAAAAAAANADhL8AAAAAAAAAPUD4CwAAAAAAANADhL8AAAAAAAAAPUD4CwAAAAAAANADKo1GoygXk6TZbJZLAAAAAAAAAOwC1Wo1k5OTSZKxsbFkrfB3X6VWLvetRlH3fgBbyjoD5gFsBfMKzAOgP1n7gH5j3QP6TaOotw1/3fYZAAAAAAAAoAcIfwEAAAAAAAB6gPAXAAAAAAAAoAcIfwEAAAAAAAB6gPAXAAAAAAAAoAcIfwEAAAAAAAB6QKXRaBTlYpI0m83sq9TK5TV9+qsiH52+kZ++fzPF78pH169yX/Klb+zJoy/vzf1/UEk66N2u10Y1ivqm3g+A9bLOgHkAW8G8AvMA6E/WPqDfWPeAftMo6qlWq5mcnEySjI2NJVux8/ej0zfyybsbC2fbKX6XfPLuzXx0+sZKbbO92/UCAAAAAAAA6CVdD39/+v7Ncqkjrf067d3p+QAAAAAAAAC7VdfD343uyl1La79Oe3d6PgAAAAAAAMBu1fXwF+4tMxmvjea9lsp736mkWlv+uv1Yu/FrujaRJ1b6tX4NZfJaeTAA7HIfjC7+OfbsS3nl2cU/08Y/KA8CgG228ufTROprXtfdrv7aUJ54baFcXvTB6KrHWl9jtT8L1zMmWcjks5u5PlzI5NKfxdVaJdXvzJQHrOLWeav/TAAAwL1qh8LfB3L00r4cLJdhW81kvDaSH95WW8j81cH89d8XadaLNOtTefyu49fhoVN5t77Y79JLg/n6S/NLvWcz9lB5MADcA56fTvPNV/LSm0XeeL58EAB2yPPTab55KrW7XteVXJvIt1+ZK1eT5VD475Jn/vH7K6Hyig9G89zVM7lUL9Ksz+fg37YJbz8YzXOZXvoZppMXVgmhr72Tt3Isf7zB68P6a8fzV48s95/PX18dWWeYO5Axf4YDAEDP2qHwF3baQiaffTtP1qfzrdbytXfy1o8P58AdF92rjO/UtYk88exoxp9d+jT6tYk8sfKPCqVPfy9/kn1Dn+gGAADoM6te15UtZPLPLuSrzw+WDyRJai/M5gcPX85f5emlUPmWev1yvj7y1FJtIH88krz1fmmH8GNTaX53+PZaG/X3LyQrvUrusvO49sJsS/+B/PHIYP6h3n4sAADQP7Y5/P1sHm/uz4nm53Oo9pkMNvfnRPMLOXq0PA622kDG3mzz6e9/upIPv3Y537sjZF1lfDf8+HIO/s3an0Z/4m8PLX2qvMgbWe8nugEAAPrMqtd1t6u/djxvjZzPnz5cPrLk2kS+/Y8v59LDp+8IYGu1w/lw+p2VD+7+l+n2u4eztIO4WhtJXmt/zVf/x+SZbwyUyxs0k//4yuH8xQud9gEAAO512xz+/jrvVa/nXPUXuVL/Teaq13Ou+vNcvFget3EH39ifE839OXHpwXyxfBDW67GpNP/mfH6wfJvmh09vfcj6tXXc3uufruTDH4/nyNI/Xjz3enyiGwAAoJ31XNddm8i3p4/lB3cLSx86lXe/O5zaC7N5tzzusam88cjyNdrxfPxI+93DWd6hWy/y5N+1e8buTP7z6212KS/f+emFs/nwlQN3DbEXH1F0Ogf/vn24DAAA9JdtDn+3zsfPXc+56vWcO/LL/Kx8EDbioYHbbre13pD1ve8sfar8rhflGzGfj3/c8u3zy89yWvy64x8fAAAAWLTGdV39/QsrH7A98spcPnzlwB27e9fy+HeXr89m82Tm8tXa3a/Rag+3uS3zB2/nh88/fWdo+9jUYu/XTubrL80v/ne7W0hfm8gTtdM5+PezGSsHyJnJ+PI16m1fqzx7GAAA6Ak7FP7+NhePNPJxuQw77YPRO4LbtS7gl9268F/lony9fnxl8dZh167mH5Zrf3goX3/99NLzfxcy+Wy7T4wDAACwnuu65d24zXqRSy8N5usvzW/sA7atr3FtIt97/WSefOwuY5LU//HOgPi9vzubb/27TV4/XpvIE390JX9Rbxf8JslwzrR8gPjWlx3CAADQy3Yo/IVd6rGpvJGRlU9Efzvnc6Z8Ab+VHjqVv3j+bJ6rVVL9syv56tdu1d997XD+6o8qqdYO5K8emd7enwsAAOBesep13UzG19z1ercxLcdaX+OPxvPVlef5rjKmVsn3Hp4v/RwLmb86mIN/2Kb/ssemSqH0rTHvnR3Ph1m6flz6Wty93KYPAADQN4S/9LnhnCl96rl1B++dn/y+c/xG3PGsqIdO5d03T912O7KV139zKmfebPkE9/JtvzrdWQwAANDj2l/XDefJ50sD77hOaz9m0e3HWl/j1odzVx9z52sMZKz1mu+ur73s1pjb7j5122uspw8AANCruh7+Vu4rVzrT2q/T3p2eDwBAktdHUn32pbzybCXPvV4+CAA75PWRVJ+dWHyMTlsLmX+4zfN1b3O3MXc7tqyTMavVW3VjzOKjhPwZDgAAvanSaDSKcjFJms1m9lVa9yOuz//+PzTzybs3y+VN+/ITe/Lf/y/VpAu9W3ttVKOob+r9AFgv6wyYB7AVzCswD4D+ZO0D+o11D+g3jaKearWaycnJJMnY2FiyFTt/H315b778xJ6Od9lW7lsMax99ee9KbbO92/UCAAAAAAAA6CVd3/nbq3xqCNhq1hkwD2ArmFdgHgD9ydoH9BvrHtBvtm3nLwAAAAAAAADbT/gLAAAAAAAA0AOEvwAAAAAAAAA9QPgLAAAAAAAA0AOEvwAAAAAAAAA9QPgLAAAAAAAA0AMqjUajKBeTpNlslksAAAAAAAAA7ALVajWTk5NJkrGxsWSt8LdWq5XLfater3s/gC1lnQHzALaCeQXmAdCfrH1Av7HuAf2mXq+3DX/d9hkAAAAAAACgBwh/AQAAAAAAAHqA8BcAAAAAAACgBwh/AQAAAAAAAHqA8BcAAAAAAACgBwh/AQAAAAAAAHpApdFoFOVikjSbzdRqtXJ5Tf/yz0VmX7yRaz+6meLT8tH1q9yfPPTNPRl6dW9+73OVpIPe7XptVL1e39T7AbBe1hkwD2ArmFdgHgD9ydoH9BvrHtBv6vV6qtVqJicnkyRjY2PJVuz8nX3xRn7y1sbC2XaKT5OfvHUzsy/eWKlttne7XgAAAAAAAAC9pOvh77Uf3SyXOtLar9PenZ4PAAAAAAAAsFt1Pfzd6K7ctbT267R3p+cDAAAAAAAA7FZdD38BAAAAAACga2ZGU6lUUhmayEKSmdHK4veVSiqV0cyUx7dYmBjK0MRCubxoZnTVY62vMbrKC6xnTLKQiaGhrPIyd7GQiaGW/8/VX6Dk1nnrPoWeIvwFAAAAAABgdzs5nWL2VAaykKuXB3NmvkhRFCmKqQyXxy5bmMjx8blyNVkOhd9Ojl35/kqovGJmNCOXz2S+KFIU8zl0uk14OzOakUwv/QzTycgqIfTCO7mQY3lqoHzg7hYmjmf88HL/+Zy5PLLOMHcgp2aLTJ8s1+kXOxT+PpCjl/blYLkMAAAAAAAAq1l4JxfmDueRNcPUhUwcv5DDJwfLB5IkA6dmc/7Q5Yzn6aVQ+ZaFq5czeOyppdpAnjqWXHinlP4OT6WYWjV2XrHwzoVkpVfJXXYeD5yabek/kKeODeby1fZjodUOhb8AAAAAAACwQfNXMjd4OafXuB3ywsTxXDh2Pn9+qHxkycJEjl95OfOHTt8RwA48cjhzF95Z2g28kHcutN89nKUdxJXKSDLdfgfy/JXk2Ea3/d5hJt8fP5yXT3Xah36wzeHvZ/N4c39OND+fQ7XPZLC5PyeaX8jRo+VxAAAAAAAAUDI8leL8+ZwvFm/7PH/o9J23Q16YyPELx3L+bmHpwKnMTg1n4NRsZsvjhqcyfXg8ByqVVCrHc+Vw+93DWd6hWxR5+u12z9idydtn2+xSXn6G8cjZzI0fuGuIncxktHI6h+bbh8tQts3h76/zXvV6zlV/kSv132Suej3nqj/PxYvlcRt38I39OdHcnxOXHswXywcBAAAAAADoDQMDt91GuXw75IV3LmRubjG8PTA+l7nxA3fs7l3L8NTyM4Vn83TmcviOBPd2Bw61uS3zzNs5e/LpO0Pb4anF3tMnM3hmfvG/291CemEiQ5XTOTQ/m3I+vRgKL+1+vu1rlWcP0ze2OfzdOh8/dz3nqtdz7sgv87PyQQAAAAAAAO59M6N37JItB7PLu3GLosj8mcEMnpm/c3fv3bS+xsJETp89mafL2Wzp55i/cmdAPPP22Zy848R1WpjI0IErebloF/wmyXCmlv4fb/+yQ7jf7VD4+9tcPNLIx+UyAAAAAAAArGZ4KtMZWdnpejzns7hpdiaja+56vduYlmOtr3FgPIdXnue7yphKJacPzZd+joVcvTyYQwfa9F82PFUKpW+Nmfn+eOZyNiMtu3oXdy+36QMtdij8BQAAAAAAgI27dUvmoiU8Hc7TJ0sDl3YBrzVm0e3HWl/j1h2ZVx9z52sM5NRs667du732sltjWnvf/hrr6UM/E/4CAAAAAACwu50dSWVoIqs/uXchVw+1eb7ube425m7HlnUyZrV6q26MWcjEUCUjZ8t1+kWl0WgU5WKSNJvN1Gq1cnlN579wPcWn5ermVe5Pjv98f9KF3q29Nqper2/q/QBYL+sMmAewFcwrMA+A/mTtA/qNdQ/oN/V6PdVqNZOTk0mSsbGxZCt2/j70zT3lUkda+3Xau9PzAQAAAAAAAHarroe/Q6/uzVee2ZPK/eUjG1O5P/nKM3sy9Oreldpme7frBQAAAAAAANBLun7b517llhHAVrPOgHkAW8G8AvMA6E/WPqDfWPeAfrNtt30GAAAAAAAAYPsJfwEAAAAAAAB6gPAXAAAAAAAAoAcIfwEAAAAAAAB6gPAXAAAAAAAAoAcIfwEAAAAAAAB6QKXRaBTlYpI0m81yCQAAAAAAAIBdoFqtZnJyMkkyNjaWrBX+7qvUyuW+1Sjq3g9gS1lnwDyArWBegXkA9CdrH9BvrHtAv2kU9bbhr9s+AwAAAAAAANyDHnzwwTz44IMr3wt/AQAAAAAAAO5Bf/Inf5I/+ZM/Wfle+AsAAAAAAADQA4S/AAAAAAAAAD1A+AsAAAAAAADQA4S/AAAAAAAAAD2g0mg0inIxSZrNZvZVauVy32oUde/HPeTTXxX56PSN/PT9myl+Vz7a2yr3JV/6xp48+vLe3P8HlfJhdjHrzMZ1a66vNm8223+1fqzNPNg6m/19Llvt93uz/VfrR/eYVxu32d/nstV+vzfbf7V+rM08YCM2O0fL2s3ZzfZu1wvWYu1jvTa7NpWttlZttv9q/WA11j3Wa7PrUtlq69Rm+6/WD1bTKOqpVqvlcu77y7/8y/+pXEySmzdv5vcrd57Qr/5bmt6Pe8iP/z838sm7N5O2H23ocUXyz//4aX79yaf50uO/Xz7KLmad2biuzfVV5s2m+6/Sj7WZB1tn07/PZav8fm+6/yr96B7zauM2/ftctsrv96b7r9KPtZkHbMSm52hZmzm76d5tesFarH2s16bXprJV1qpN91+lH6zGusd6bXpdKltlndp0/1X6wWr+W5r5/d+/83fFbZ/pST99/2a51He8B/SDbv+el/uVv9+oTs+Hbur272O5X/n7jer0fOimbv8+lvuVv9+oTs8H7q7bc6y1X6e9Oz0foJ1ury3lfuXvN6rT8wHKur2ulPuVv9+oTs8H4S89aSO3UljNF//nL+Txb61d27Bv7ct/+J8fKFe7rhvvAex23f49L/crf79RnZ4P3dTt38dyv/L3G9Xp+dBN3f59LPcrf79RnZ4P3F2351hrv057d3o+QDvdXlvK/crfb1Sn5wOUdXtdKfcrf79RnZ4Pwl/619EH8x+aX8jRo+UDm/FAjl7anxPNW1/bEfACAAAAAADAMuEvfeuLz3wmv3zvd/k3z3Qa0j6Qo5c+n3/z7i9yrnp96esX+a9P/KscLA8FdsADOXppn/kI62K+wPqZL9DfrAFAv7HuAf3Guse9S/hLn3ogX3nid/k/n7uZXz6xJ19cqX82jy/t3B3+9v13qbX41r/Kofr/lf/v//jbluJvc/FIIx+3nHuiefsfFK23kF7572/ty3+49IVb47+17/Zzy8db+gEAAAAAANDfhL/0p6N78m/qN/Nxfp3/s/6ZfGXp1s8H3/jXyfji7t2ZH3y6aq3VFx+5L/+8cGc9pXPPjSeDb3y2POQOn6v/aum17svgkzdX/vv/uRQUtx7/f7m1NNzF8ocvPp9Dtc9ksLk/J7p2q3foNeYLrJ/5Av3NGgD0G+se0G+se9z7hL/0pS8+85l87vF/nRPN/Rl8/P6WWz9/ml/+H6XBbWu3/Ozq7/K5gTY7gvNA9tZazv0/Ps0/l0a00xokf/Kff33bsbQc/9lVT32Hu/t13lu6DfuV+m8yV72ec9Wf5+LF8rjNOfjG/sVd+JcebLl7ANyrzBdYP/MF+tvWrQHmP7A7bd26F2sfsCtZ97j3CX/pQ4u3fF5ctK/n3B//Klm59fP9efC/K49vV2vxw5v55PF/nf9w2y7cB3L00r/KZ+ot5/539+dzLSOS5MFH7NyFe9XHzy2tIUd+mZ+VDwK3MV9g/cwX6F/mP9CPrH1Av7HusR2Ev/Sfo3vyb/Jpbix/f/Fm/msWb/388fd/lQfPLH7yZvn5vu1qt/t13qv+Iv/1ic8vPYt38ZYQ/+bd/zv/23P/V7J07okzydxzt3by/ux//FV++e3Fc9r3Bbpj+RncwNrMF1g/8wX6mzUA6DfWPaDfWPe4d1UajUZRLiZJs9nMvkqtXO5bjaLu/biH/KevXS+X+tK///H+coldzDqzcVsx11vnTTf6m4cbYx5snW78PpeZL/cG82rjuvH7XGa+7CzzgI3oxhwtW56z3eht/rNe1j7WqxtrU5m/+7ATrHusVzfWpTLrHjuhUdRTrVbLZTt/AQAAAAAAAHqB8JeeVLmvXOk/3gP6Qbd/z8v9yt9vVKfnQzd1+/ex3K/8/UZ1ej50U7d/H8v9yt9vVKfnA3fX7TnW2q/T3p2eD9BOt9eWcr/y9xvV6fkAZd1eV8r9yt9vVKfng/CXnvSlb+wpl/qO94B+0O3f83K/8vcb1en50E3d/n0s9yt/v1Gdng/d1O3fx3K/8vcb1en5wN11e4619uu0d6fnA7TT7bWl3K/8/UZ1ej5AWbfXlXK/8vcb1en5cN9f/uVf/k/lYpLcvHkzv1+58z7R/eq/pen9uId8cXBPfv3Jp/m/f/Jp0vap1r2rcl/y5X+3J4++vDf/jwcq5cPsYtaZjevWXF9t3my2/2r9WJt5sHU2+/tcttrv92b7r9aP7jGvNm6zv89lq/1+b7b/av1Ym3nARmx2jpa1m7Ob7d2uF6zF2sd6bXZtKlttrdps/9X6wWqse6zXZtelstXWqc32X60frOa/pZnf//3fL5dTaTQabX/1ms2mh6O38LB4YKtZZ8A8gK1gXoF5APQnax/Qb6x7QL9pFPVUq3d+6MVtnwEAAAAAAAB6gPAXAAAAAAAAoAcIfwEAAAAAAAB6gPAXAAAAAAAAoAcIfwEAAAAAAAB6gPAXAAAAAAAAoAdUGo1GUS4mSbPZLJcAAAAAAAAA2AWq1Wq5tHr4CwAAAAAAAMC9w22fAQAAAAAAAHqA8BcAAAAAAACgBwh/AQAAAAAAAHqA8BcAAAAAAACgBwh/AQAAAAAAAHqA8BcAAAAAAACgBwh/AQAAAAAAAHrA/x+7U+gEQQERGwAAAABJRU5ErkJggg==;" vertex="1" parent="1">
          <mxGeometry x="1530" y="1870" width="1919" height="1079" as="geometry" />
        </mxCell>
      </root>
    </mxGraphModel>
  </diagram>
</mxfile>
